<svg width="32" height="32" viewBox="0 0 32 32" fill="none" xmlns="http://www.w3.org/2000/svg">
<path d="M29 10C28.7348 10 28.4804 10.1054 28.2929 10.2929C28.1054 10.4804 28 10.7348 28 11V27C28 27.2652 27.8946 27.5196 27.7071 27.7071C27.5196 27.8946 27.2652 28 27 28H5C4.73478 28 4.48043 27.8946 4.29289 27.7071C4.10536 27.5196 4 27.2652 4 27V5C4 4.73478 4.10536 4.48043 4.29289 4.29289C4.48043 4.10536 4.73478 4 5 4H21C21.2652 4 21.5196 3.89464 21.7071 3.70711C21.8946 3.51957 22 3.26522 22 3C22 2.73478 21.8946 2.48043 21.7071 2.29289C21.5196 2.10536 21.2652 2 21 2H5C4.20435 2 3.44129 2.31607 2.87868 2.87868C2.31607 3.44129 2 4.20435 2 5V27C2 27.7956 2.31607 28.5587 2.87868 29.1213C3.44129 29.6839 4.20435 30 5 30H27C27.7956 30 28.5587 29.6839 29.1213 29.1213C29.6839 28.5587 30 27.7956 30 27V11C30 10.7348 29.8946 10.4804 29.7071 10.2929C29.5196 10.1054 29.2652 10 29 10Z" fill="#692583"/>
<path d="M8.70994 11.29C8.52164 11.1017 8.26624 10.9959 7.99994 10.9959C7.73364 10.9959 7.47825 11.1017 7.28994 11.29C7.10164 11.4783 6.99585 11.7337 6.99585 12C6.99585 12.1318 7.02182 12.2624 7.07228 12.3842C7.12274 12.5061 7.1967 12.6167 7.28994 12.71L15.2899 20.71C15.3834 20.8027 15.4942 20.876 15.616 20.9257C15.7379 20.9755 15.8683 21.0007 15.9999 21H16.0699C16.2107 20.9895 16.3476 20.9493 16.4717 20.8821C16.5958 20.8148 16.7042 20.7221 16.7899 20.61L29.7899 3.60998C29.9328 3.3993 29.9899 3.14207 29.9497 2.89072C29.9095 2.63938 29.7749 2.41283 29.5734 2.25726C29.372 2.1017 29.1187 2.02881 28.8654 2.05347C28.612 2.07813 28.3776 2.19848 28.2099 2.38998L15.8999 18.49L8.70994 11.29Z" fill="#692583"/>
</svg>
