<svg width="139" height="139" viewBox="0 0 139 139" fill="none" xmlns="http://www.w3.org/2000/svg">
<g clip-path="url(#clip0_151_893)">
<path d="M24.4092 138.864H2.71272C1.21426 138.864 0 137.65 0 136.153V93.8424C0 92.3439 1.21426 91.1296 2.71272 91.1296H24.4092C25.9076 91.1296 27.1219 92.3439 27.1219 93.8424V136.153C27.1219 137.65 25.9076 138.864 24.4092 138.864ZM5.42438 133.44H21.6975V96.554H5.42438V133.44Z" fill="#BCE7AE"/>
<path d="M61.6566 139H39.9591C38.4617 139 37.2474 137.786 37.2474 136.288V77.7049C37.2474 76.2064 38.4617 74.9922 39.9591 74.9922H61.6566C63.1551 74.9922 64.3693 76.2064 64.3693 77.7049V136.288C64.3693 137.786 63.1551 139 61.6566 139ZM42.6718 133.575H58.945V80.4166H42.6718V133.575Z" fill="#BCE7AE"/>
<path d="M98.9041 138.864H77.2065C75.7091 138.864 74.4949 137.65 74.4949 136.152V51.5321C74.4949 50.0336 75.7091 48.8193 77.2065 48.8193H98.9041C100.403 48.8193 101.617 50.0336 101.617 51.5321V78.7441C101.617 80.2426 100.403 81.4568 98.9041 81.4568C97.4066 81.4568 96.1924 80.2426 96.1924 78.7441V54.2437H79.9193V133.44H96.1924V101.346C96.1924 99.8477 97.4066 98.6335 98.9041 98.6335C100.403 98.6335 101.617 99.8477 101.617 101.346V136.152C101.617 137.65 100.403 138.864 98.9041 138.864Z" fill="#BCE7AE"/>
<path d="M98.9051 93.3895C98.1893 93.3895 97.4926 93.1021 96.9878 92.5941C96.4809 92.0904 96.1935 91.3905 96.1935 90.6767C96.1935 89.9641 96.4809 89.2642 96.9878 88.7594C97.4926 88.2546 98.1893 87.9651 98.9051 87.9651C99.6188 87.9651 100.319 88.2546 100.822 88.7594C101.327 89.2642 101.618 89.9641 101.618 90.6767C101.618 91.3905 101.327 92.0904 100.822 92.5941C100.319 93.1021 99.6188 93.3895 98.9051 93.3895Z" fill="#BCE7AE"/>
<path d="M136.151 138.864H114.454C112.957 138.864 111.742 137.65 111.742 136.153V34.7171C111.742 33.2186 112.957 32.0044 114.454 32.0044H136.151C137.649 32.0044 138.864 33.2186 138.864 34.7171V136.153C138.864 137.65 137.65 138.864 136.151 138.864ZM117.167 133.44H133.44V37.4288H117.167V133.44Z" fill="#BCE7AE"/>
<path d="M13.5594 51.6235C12.3579 51.6235 11.2592 50.8185 10.939 49.6022C10.5572 48.1546 11.4204 46.6699 12.8691 46.2882C13.4247 46.1407 69.0695 31.2653 123.973 0.350066C125.277 -0.38591 126.931 0.0764615 127.667 1.38192C128.401 2.68738 127.939 4.34067 126.634 5.07559C97.6114 21.4187 68.6187 33.1742 49.407 40.1586C28.5801 47.7304 14.393 51.4962 14.253 51.5333C14.0207 51.5938 13.7885 51.6235 13.5594 51.6235Z" fill="#BCE7AE"/>
<path d="M122.095 12.6398C121.728 12.6398 121.353 12.5645 120.995 12.4055C119.626 11.7968 119.01 10.1944 119.618 8.82527L121.13 5.42536H117.257C115.759 5.42536 114.544 4.2111 114.544 2.71264C114.544 1.21523 115.759 0.000976562 117.257 0.000976562H125.303C126.221 0.000976562 127.077 0.464409 127.577 1.23538C128.078 2.00529 128.154 2.97564 127.781 3.81448L124.575 11.0279C124.126 12.0385 123.134 12.6398 122.095 12.6398Z" fill="#BCE7AE"/>
</g>
<defs>
<clipPath id="clip0_151_893">
<rect width="139" height="139" fill="white"/>
</clipPath>
</defs>
</svg>
