<svg width="82" height="82" viewBox="0 0 82 82" fill="none" xmlns="http://www.w3.org/2000/svg">
<g clip-path="url(#clip0_402_246)">
<path d="M79.8773 35.9041L70.2343 26.261C66.2686 22.2953 68.6921 18.1093 73.0136 17.8551C80.1315 17.4144 84.1311 9.82201 78.3182 3.50063C71.9968 -2.29538 64.4383 1.68726 63.9976 8.78822C63.7265 13.1098 59.5066 15.5502 55.5578 11.6015L46.1181 2.16179C43.2879 -0.66843 38.6952 -0.66843 35.8649 2.16179L26.3066 11.7201C22.3409 15.6858 18.138 13.2284 17.8668 8.90685C17.4262 1.78894 9.79983 -2.26149 3.47845 3.55147C-2.35145 9.8898 1.69898 17.5161 8.81688 17.9568C13.1385 18.2279 15.5958 22.4478 11.6471 26.4135L2.12266 35.921C-0.707554 38.7512 -0.707554 43.344 2.12266 46.1742L11.5624 55.6139C15.5281 59.5626 13.1724 63.6809 8.85078 63.952C1.73287 64.3926 -2.24977 71.9681 3.56319 78.2895C9.88457 84.1025 17.4262 80.1368 17.8668 73.0189C18.138 68.6973 22.2731 66.3246 26.2388 70.2734L35.7633 79.7978C38.6443 82.6789 43.3557 82.6789 46.2367 79.8148L52.914 73.1375L55.7781 70.2734C59.5235 66.3585 57.1 62.2403 52.8293 61.9692C45.7114 61.5285 41.6779 53.9022 47.4909 47.5808C53.8122 41.7679 61.4386 45.8183 61.8792 52.9362C62.1504 57.2069 66.2516 59.6135 70.1665 55.8681L72.7594 53.2751L79.7418 46.2928C79.7587 46.2759 79.7587 46.2759 79.7757 46.2589L79.8773 46.1572C82.7076 43.327 82.7076 38.7343 79.8773 35.9041Z" fill="white" fill-opacity="0.2"/>
</g>
<defs>
<clipPath id="clip0_402_246">
<rect width="82" height="82" fill="white"/>
</clipPath>
</defs>
</svg>
