<svg width="39" height="39" viewBox="0 0 39 39" fill="none" xmlns="http://www.w3.org/2000/svg">
<g clip-path="url(#clip0_402_243)">
<path d="M28.6716 23.6474V13.7519H30.9668V11.4599H26.3764V0H10.2919V6.87593H4.55389V9.1679H6.84908V17.0079C4.453 18.0767 2.4945 19.9309 1.29807 22.2633C0.101639 24.5957 -0.260903 27.2663 0.270505 29.8326C0.801913 32.3989 2.19537 34.7068 4.22002 36.3741C6.24466 38.0414 8.77897 38.9678 11.403 39H39.0182V35.1255L28.6716 23.6474ZM31.1489 29.8139H22.6968C22.9597 28.5329 23.0028 27.2166 22.8243 25.9212L24.0812 24.5205V13.7519H26.3764V24.5205L31.1489 29.8139ZM12.5871 2.29197H24.1541V11.3871H19.4908V13.6791H21.786V22.465C20.5706 20.0259 18.5322 18.0934 16.0298 17.0079V9.1679H18.3432V6.87593H12.5871V2.29197ZM8.37921 18.8633L9.14427 18.6087V9.1679H13.7346V18.6087L14.4997 18.8633C15.9208 19.3672 17.1967 20.2109 18.216 21.3207C19.2353 22.4305 19.9669 23.7727 20.347 25.2299H2.55015C2.91814 23.7698 3.64335 22.4238 4.66072 21.3126C5.6781 20.2014 6.95581 19.3598 8.37921 18.8633ZM11.403 36.708C8.98746 36.708 6.67083 35.7498 4.96277 34.0441C3.25471 32.3384 2.29513 30.025 2.29513 27.6129H20.6384C20.6096 30.0382 19.6233 32.3541 17.894 34.0572C16.1646 35.7604 13.8319 36.713 11.403 36.708ZM36.6865 36.708H18.325C19.9145 35.5188 21.1694 33.9399 21.9682 32.1241H33.262L36.7594 35.9986V36.708H36.6865Z" fill="#692685"/>
</g>
<defs>
<clipPath id="clip0_402_243">
<rect width="39" height="39" fill="white"/>
</clipPath>
</defs>
</svg>
