<svg width="56" height="56" viewBox="0 0 56 56" fill="none" xmlns="http://www.w3.org/2000/svg">
<path d="M51.3417 8.1071C50.8597 7.64849 50.2283 7.41453 49.5638 7.44691C46.5247 7.59708 43.3786 7.24358 40.212 6.39505C36.1376 5.30327 32.4355 3.48371 29.506 1.13302C28.6194 0.421644 27.3809 0.421644 26.4942 1.13302C23.5647 3.48371 19.8627 5.30316 15.7883 6.39494C12.6218 7.24336 9.47515 7.5973 6.43649 7.4468C5.77105 7.41421 5.14051 7.64838 4.65849 8.1071C4.17659 8.56582 3.91113 9.18477 3.91113 9.8501V26.5054C3.91113 40.571 13.9375 52.7125 27.7517 55.3753C27.8337 55.3911 27.917 55.399 28.0001 55.399C28.0832 55.399 28.1665 55.3911 28.2485 55.3753C42.0627 52.7125 52.0891 40.5709 52.0891 26.5054V9.85021C52.0891 9.18488 51.8237 8.56592 51.3417 8.1071ZM49.4641 26.5055C49.4641 39.2308 40.4528 50.2269 28.0001 52.7487C15.5474 50.2269 6.53613 39.2308 6.53613 26.5055V10.0791C9.77637 10.2148 13.1162 9.82855 16.4677 8.93069C20.8282 7.76224 24.8116 5.81317 28.0001 3.28967C31.1886 5.81328 35.172 7.76224 39.5325 8.93069C42.8841 9.82866 46.2239 10.2151 49.4641 10.0791V26.5055Z" fill="white"/>
<path d="M22.36 25.04L25.82 24.18V35H29.08V20.74L22.36 22.1V25.04Z" fill="white"/>
</svg>
