<svg width="54" height="54" viewBox="0 0 54 54" fill="none" xmlns="http://www.w3.org/2000/svg">
<path d="M9.03463 49.3269H33.0231C32.9192 50.1577 32.2962 51.1961 33.1269 52.2346C33.6462 52.8577 34.5808 53.1692 35.4116 52.7538L38.5269 51.3L41.7462 52.7538C42.5769 53.0654 43.4077 52.8577 44.0308 52.2346C44.3423 51.8192 44.55 51.1961 44.4462 50.6769L43.0962 44.2385C46.8346 42.5769 49.4308 38.7346 49.4308 34.3731C49.4308 29.0769 45.5885 24.7154 40.6039 23.7808V5.50384C40.6039 3.01153 38.6308 1.03845 36.1385 1.03845H9.13848C6.64617 1.03845 4.6731 3.01153 4.6731 5.50384V44.9654C4.6731 47.3538 6.64617 49.3269 9.03463 49.3269ZM41.0192 44.9654L42.2654 50.7808L38.9423 49.3269C38.6308 49.2231 38.3193 49.2231 38.1116 49.3269L34.8923 50.7808L36.2423 44.9654C36.9693 45.0692 37.9039 45.2769 38.8385 45.1731C39.4616 45.1731 40.2923 45.1731 41.0192 44.9654ZM47.25 34.4769C47.25 39.2538 43.4077 43.2 38.6308 43.2C33.8539 43.2 29.9077 39.3577 29.9077 34.4769C29.9077 29.7 33.8539 25.7538 38.6308 25.7538C43.4077 25.7538 47.25 29.7 47.25 34.4769ZM6.75002 5.50384C6.75002 4.15384 7.78848 3.11538 9.03463 3.11538H36.0346C37.3846 3.11538 38.4231 4.15384 38.4231 5.50384V23.6769C27 23.7808 23.6769 39.6692 34.2693 44.3423L33.5423 47.3538H9.03463C7.68463 47.3538 6.64617 46.3154 6.64617 44.9654V5.50384H6.75002Z" fill="#692583"/>
<path d="M32.3999 34.4769C32.3999 37.9038 35.2037 40.7076 38.6307 40.7076C42.0576 40.7076 44.8614 37.9038 44.8614 34.4769C44.8614 31.0499 42.0576 28.2461 38.6307 28.2461C35.2037 28.2461 32.3999 31.0499 32.3999 34.4769ZM42.6807 34.4769C42.6807 36.7615 40.8114 38.6307 38.5268 38.6307C36.2422 38.6307 34.373 36.7615 34.373 34.4769C34.373 32.1922 36.2422 30.323 38.5268 30.323C40.8114 30.323 42.6807 32.1922 42.6807 34.4769Z" fill="#692583"/>
<path d="M11.3192 10.3847H32.0885C32.7115 10.3847 33.1269 9.96928 33.1269 9.3462C33.1269 8.72312 32.7115 8.30774 32.0885 8.30774H11.3192C10.6961 8.30774 10.2808 8.72312 10.2808 9.3462C10.2808 9.96928 10.8 10.3847 11.3192 10.3847Z" fill="#692583"/>
<path d="M11.3192 16.823H32.0885C32.7115 16.823 33.1269 16.4076 33.1269 15.7846C33.1269 15.1615 32.7115 14.7461 32.0885 14.7461H11.3192C10.6961 14.7461 10.2808 15.1615 10.2808 15.7846C10.2808 16.4076 10.8 16.823 11.3192 16.823Z" fill="#692583"/>
<path d="M11.3192 23.3654H32.0885C32.7115 23.3654 33.1269 22.95 33.1269 22.3269C33.1269 21.7038 32.7115 21.2885 32.0885 21.2885H11.3192C10.6961 21.2885 10.2808 21.7038 10.2808 22.3269C10.2808 22.95 10.8 23.3654 11.3192 23.3654Z" fill="#692583"/>
</svg>
