<svg width="74" height="74" viewBox="0 0 74 74" fill="none" xmlns="http://www.w3.org/2000/svg">
<g clip-path="url(#clip0_402_293)">
<path d="M55.9462 31.6168C55.4107 31.1839 54.7978 30.91 54.1647 30.7876L55.6623 28.9354C57.0744 27.1888 56.8023 24.619 55.0557 23.2068C54.5202 22.7739 53.9073 22.5 53.2742 22.3776L53.5185 22.0754C54.9307 20.3288 54.6586 17.7591 52.912 16.3469C51.1654 14.9347 48.5956 15.2069 47.1835 16.9534L45.6859 18.8057C45.4337 18.2122 45.0375 17.6703 44.502 17.2374C42.7555 15.8253 40.1856 16.0974 38.7735 17.8439L31.985 26.2401C31.7078 25.2738 31.1434 24.3801 30.304 23.7014C28.9847 22.6347 27.0437 22.8403 25.9771 24.1595L17.8308 34.235C12.2724 41.1098 13.3434 51.2251 20.2182 56.7835C27.093 62.342 37.2083 61.271 42.7667 54.3962L56.5527 37.3453C57.9648 35.5988 57.6928 33.029 55.9462 31.6168ZM41.0819 53.0339C36.2746 58.9797 27.5263 59.9059 21.5805 55.0986C15.6347 50.2913 14.7084 41.5431 19.5157 35.5972L27.662 25.5216C27.9775 25.1314 28.5516 25.0706 28.9418 25.3861C30.1867 26.3927 30.3807 28.2244 29.3741 29.4693L28.1209 31.0194L23.7344 36.4447C23.3582 36.9099 23.4305 37.592 23.8957 37.9682C24.361 38.3444 25.0432 38.2721 25.4193 37.8069L29.8057 32.3816L31.059 30.8316L40.4584 19.2061C41.1194 18.3886 42.3223 18.2612 43.1398 18.9222C43.9573 19.5832 44.0847 20.7861 43.4237 21.6037L42.797 22.3787L34.0242 33.2292C33.6481 33.6944 33.7203 34.3765 34.1855 34.7527C34.6508 35.1289 35.3329 35.0567 35.7091 34.5914L44.4819 23.7409L45.1086 22.9658L48.8684 18.3156C49.5294 17.4981 50.7323 17.3707 51.5498 18.0317C52.3673 18.6927 52.4947 19.8956 51.8337 20.7131L49.3272 23.8133L48.0739 25.3634L38.6744 36.9889C38.2982 37.4542 38.3705 38.1363 38.8357 38.5125C39.3009 38.8886 39.9831 38.8164 40.3593 38.3512L49.7587 26.7256L51.012 25.1756C51.673 24.358 52.8759 24.2307 53.6934 24.8917C54.511 25.5527 54.6384 26.7556 53.9774 27.5732L43.3247 40.7488C42.9485 41.214 43.0208 41.8962 43.486 42.2723C43.9512 42.6484 44.6333 42.5763 45.0095 42.111L51.9024 33.5856C52.5634 32.7681 53.7663 32.6408 54.5839 33.3017C55.4014 33.9627 55.5287 35.1656 54.8678 35.9832L41.0819 53.0339Z" fill="#692583"/>
</g>
<defs>
<clipPath id="clip0_402_293">
<rect width="52" height="52" fill="white" transform="translate(32.6938) rotate(38.9562)"/>
</clipPath>
</defs>
</svg>
