<svg width="57" height="57" viewBox="0 0 57 57" fill="none" xmlns="http://www.w3.org/2000/svg">
<path d="M34.0664 35.1797C34.0664 32.1104 31.5693 29.6133 28.5 29.6133C25.4307 29.6133 22.9336 32.1104 22.9336 35.1797C22.9336 38.249 25.4307 40.7461 28.5 40.7461C31.5693 40.7461 34.0664 38.249 34.0664 35.1797Z" fill="#692583"/>
<path d="M0.278877 34.4426C-0.092959 34.8636 -0.092959 35.4956 0.278877 35.9167C0.403119 36.0573 3.37825 39.3997 8.33469 42.7792C14.2823 46.8344 21.3027 49.6523 28.5 49.6523C35.6982 49.6523 42.7187 46.8337 48.6652 42.7792C53.6216 39.3998 56.5969 36.0574 56.721 35.9167C57.0928 35.4956 57.0928 34.8636 56.721 34.4426C56.5968 34.302 53.6216 30.9596 48.6652 27.5801C42.7176 23.525 35.6973 20.707 28.5 20.707C21.3017 20.707 14.2813 23.5256 8.3348 27.5802C3.37825 30.9596 0.403119 34.302 0.278877 34.4426ZM16.2539 35.1797C16.2539 28.3964 21.7788 22.9336 28.5 22.9336C35.2312 22.9336 40.7461 28.407 40.7461 35.1797C40.7461 41.963 35.2212 47.4258 28.5 47.4258C21.7688 47.4258 16.2539 41.9523 16.2539 35.1797ZM47.3615 29.3862C50.7566 31.6947 53.218 34.0288 54.3527 35.1801C53.226 36.3245 50.7892 38.6361 47.411 40.9395C45.0982 42.5163 42.0855 44.2544 38.6002 45.5342C41.2958 42.9042 42.9727 39.2344 42.9727 35.1797C42.9727 31.1249 41.2958 27.455 38.6 24.8248C42.0648 26.0971 45.0603 27.8215 47.3615 29.3862ZM18.3998 24.8251C15.7042 27.4551 14.0273 31.125 14.0273 35.1797C14.0273 39.2345 15.7042 42.9044 18.4 45.5345C14.9351 44.2623 11.9396 42.5379 9.63845 40.9732C6.24373 38.6649 3.78226 36.3308 2.64727 35.1792C3.77402 34.0349 6.21077 31.7233 9.58903 29.4199C11.9019 27.8429 14.9146 26.1049 18.3998 24.8251Z" fill="#692583"/>
<path d="M19.0371 18.7894C19.5695 18.482 19.752 17.8011 19.4445 17.2686L16.1047 11.4839C15.7973 10.9513 15.1163 10.769 14.5839 11.0765C14.0515 11.3838 13.869 12.0647 14.1765 12.5972L17.5163 18.3819C17.8251 18.9171 18.507 19.0954 19.0371 18.7894Z" fill="#692583"/>
<path d="M42.416 11.0765C41.8836 10.769 41.2026 10.9515 40.8952 11.484L37.5554 17.2687C37.2479 17.8012 37.4304 18.482 37.9628 18.7894C38.493 19.0955 39.1749 18.9168 39.4836 18.382L42.8234 12.5972C43.1309 12.0648 42.9484 11.3839 42.416 11.0765Z" fill="#692583"/>
<path d="M29.6133 15.1406V8.46094C29.6133 7.84607 29.1149 7.34766 28.5 7.34766C27.8851 7.34766 27.3867 7.84607 27.3867 8.46094V15.1406C27.3867 15.7555 27.8851 16.2539 28.5 16.2539C29.1149 16.2539 29.6133 15.7555 29.6133 15.1406Z" fill="#692583"/>
</svg>
