<svg width="12" height="17" viewBox="0 0 12 17" fill="none" xmlns="http://www.w3.org/2000/svg">
<path d="M11.8542 5.4678L6.85414 0.155388C6.65914 -0.0517961 6.34213 -0.0517961 6.14713 0.155388L1.14705 5.4678C1.00305 5.6208 0.960052 5.84817 1.03805 6.04686C1.11505 6.24554 1.29806 6.37517 1.50006 6.37517H4.0001V10.3382C4.0001 11.5665 3.65009 12.7511 2.98908 13.7647C2.32907 14.7762 1.40806 15.5391 0.324042 15.9715C0.098039 16.0618 -0.034963 16.3104 0.00803763 16.5633C0.0510383 16.8162 0.258042 17 0.500045 17H3.34009C6.77814 17 9.00017 14.2227 9.00017 9.92386V6.37517H11.5002C11.7022 6.37517 11.8852 6.24554 11.9622 6.04686C12.0392 5.84817 11.9962 5.6208 11.8542 5.4678Z" fill="#BCE7AE"/>
</svg>
