<svg width="17" height="17" viewBox="0 0 17 17" fill="none" xmlns="http://www.w3.org/2000/svg">
<g clip-path="url(#clip0_308_250)">
<path d="M16.5141 2.32405C16.264 2.07353 15.8582 2.0731 15.6082 2.32298L7.92186 9.98899L5.14867 6.97703C4.90904 6.71692 4.5039 6.70005 4.24335 6.93965C3.98301 7.17927 3.96634 7.58462 4.20597 7.84496L7.43085 11.3473C7.54896 11.4756 7.71424 11.5502 7.88852 11.5538C7.89321 11.554 7.89772 11.554 7.9022 11.554C8.07157 11.554 8.2345 11.4867 8.35453 11.3671L16.5128 3.23019C16.7636 2.98034 16.764 2.57457 16.5141 2.32405Z" fill="#692583"/>
<path d="M16.3593 7.85928C16.0054 7.85928 15.7186 8.14609 15.7186 8.5C15.7186 12.4805 12.4805 15.7186 8.5 15.7186C4.51974 15.7186 1.28141 12.4805 1.28141 8.5C1.28141 4.51974 4.51974 1.28141 8.5 1.28141C8.85388 1.28141 9.14072 0.9946 9.14072 0.640721C9.14072 0.286809 8.85388 0 8.5 0C3.81305 0 0 3.81305 0 8.5C0 13.1868 3.81305 17 8.5 17C13.1868 17 17 13.1868 17 8.5C17 8.14612 16.7132 7.85928 16.3593 7.85928Z" fill="#692583"/>
</g>
<defs>
<clipPath id="clip0_308_250">
<rect width="17" height="17" fill="white"/>
</clipPath>
</defs>
</svg>
