<svg width="176" height="40" viewBox="0 0 176 40" fill="none" xmlns="http://www.w3.org/2000/svg">
<g clip-path="url(#clip0_416_45592)">
<path d="M22.9824 8.34351C22.5257 8.31148 22.0971 8.24742 21.6725 8.26344C20.5468 8.31148 19.4211 8.37554 18.2995 8.46762C16.7091 8.59974 15.1628 9.0001 13.6606 9.50456C11.3893 10.2692 9.26613 11.3462 7.32727 12.7795C5.94923 13.7964 4.82757 15.0295 4.01437 16.5429C3.07298 18.2845 2.72447 20.1261 3.089 22.0719C3.22921 22.8245 3.32135 23.6052 3.74598 24.2819C3.78603 24.3459 3.79405 24.43 3.81408 24.5061C3.87817 24.7543 3.75799 24.8944 3.52565 24.9465C3.40547 24.9705 3.28129 24.9865 3.16111 24.9785C2.78856 24.9545 2.41601 24.9184 1.95934 24.8784C2.09554 25.1066 2.17566 25.3028 2.30785 25.4549C2.85266 26.0755 3.50963 26.5639 4.2387 26.9322C4.72342 27.1765 5.25621 27.3286 5.76095 27.5448C5.90116 27.6048 6.11347 27.737 6.11347 27.833C6.11347 27.9972 6.00131 28.2134 5.86911 28.3055C5.61273 28.4776 5.31229 28.5817 5.01986 28.6978C4.83559 28.7739 4.6393 28.8179 4.42698 28.882C4.47105 28.9661 4.48306 29.0301 4.52312 29.0582C5.32431 29.6907 6.20561 30.1071 7.25917 30.055C7.50353 30.043 7.7559 30.003 7.99225 30.039C8.35278 30.0911 8.46895 30.4114 8.2326 30.6796C8.06435 30.8678 7.86406 31.0319 7.65575 31.1841C7.4194 31.3562 7.15902 31.5003 6.89863 31.6605C7.59166 32.2891 8.38483 32.6414 9.28216 32.7655C10.0112 32.8656 10.7643 32.8856 11.4694 33.0858C12.7553 33.4541 14.0252 33.8945 15.279 34.3709C17.0216 35.0315 18.7201 35.8122 20.5588 36.2006C22.0731 36.5209 23.5873 36.5969 25.0895 36.2006C26.3514 35.8683 27.5732 35.4279 28.6548 34.6632C29.3398 34.1788 29.9567 33.6343 30.1931 32.7855C30.2612 32.5413 30.2612 32.2771 30.3012 31.9447C30.157 32.0248 30.1089 32.0528 30.0649 32.0769C29.0714 32.6774 28.098 33.314 27.0805 33.8705C25.8186 34.5551 24.4245 34.7913 23.0104 34.7833C21.1236 34.7713 19.3771 34.2308 17.7947 33.1899C16.9054 32.6053 16.0441 31.9888 15.4713 31.06C15.3351 30.8398 15.1628 30.7717 14.8824 30.8518C14.2575 31.0359 13.6045 31.12 12.9636 30.9398C12.7753 30.8878 12.543 30.7076 12.4909 30.5395C12.4508 30.3994 12.6151 30.1551 12.7513 30.019C13.0237 29.7428 13.3522 29.5186 13.6366 29.2503C13.7087 29.1823 13.7648 29.0181 13.7287 28.934C13.5525 28.4776 13.5565 28.0372 13.7928 27.6088C13.905 27.4087 13.8689 27.2886 13.6646 27.1765C13.4603 27.0684 13.2721 26.9202 13.0798 26.7921C12.6632 26.5119 12.6071 26.2716 12.8835 25.8553C13.0157 25.6591 13.1759 25.4829 13.3522 25.2587C12.555 25.4429 11.8299 25.3668 11.1209 25.1186C11.0127 25.0826 10.8765 25.0626 10.7684 25.0946C10.0192 25.3268 9.29017 25.3068 8.60515 24.8944C8.40486 24.7743 8.24462 24.7943 8.03631 24.8544C7.46347 25.0145 6.8786 25.1266 6.28573 24.9865C5.94122 24.9064 5.60472 24.7863 5.4525 24.43C5.30428 24.0857 5.12802 23.7374 5.07594 23.373C5.00784 22.8926 4.88766 22.4722 4.62728 22.0398C4.13856 21.2271 4.66734 19.966 5.27624 19.5016C5.55264 19.2894 5.66882 19.0652 5.69285 18.6968C5.72089 18.2805 5.86511 17.8321 6.08543 17.4757C6.58217 16.671 7.3473 16.2026 8.26866 15.9744C8.46495 15.9263 8.71331 15.8102 8.80144 15.6461C9.178 14.9775 9.77088 14.5971 10.4559 14.3529C11.3732 14.0286 12.2746 14.1688 13.1238 14.5931C13.6486 14.8534 14.1373 15.1977 14.626 15.4939C14.7743 15.4499 14.9265 15.3818 15.0867 15.3578C15.7798 15.2617 16.3005 15.6101 16.7452 16.0665C17.0777 16.4068 17.3421 16.8071 17.6105 17.1474C18.0151 16.9392 18.4156 16.7311 18.8323 16.5149C18.66 15.8182 18.5719 15.0816 18.7041 14.3329C18.8323 13.6123 19.1007 12.9877 19.8257 12.6554C19.9299 12.6073 20.01 12.4712 20.0621 12.3591C20.4747 11.4863 20.9995 10.7096 21.8447 10.1932C22.2733 9.93294 22.722 9.90091 23.1987 10.0691C23.3349 10.1171 23.5392 10.1291 23.6594 10.0611C24.08 9.82484 24.4966 9.61265 24.9854 9.54459C25.6583 9.44851 26.3634 9.34041 26.9282 9.7728C27.3408 10.0851 27.6894 10.025 28.134 9.87689C26.8802 8.91603 25.418 8.70384 23.9238 8.46762C24.2563 9.14824 24.2282 9.47653 23.8437 9.76079C23.5472 9.98098 23.1627 9.94095 22.8903 9.70073C22.5337 9.38445 22.5217 8.96407 22.9824 8.34752V8.34351ZM20.5468 21.4353C20.8913 20.3583 21.2198 19.2774 21.9168 18.3565C21.9649 18.2925 21.9569 18.1684 21.9369 18.0803C21.6204 16.7911 21.7085 15.534 22.2533 14.3169C22.7621 13.1759 23.5392 12.3271 24.8171 12.0629C26.3994 11.7386 27.9057 11.9948 29.3358 12.7315C29.6643 12.8996 29.9647 13.1278 30.2972 13.336C30.4614 12.9356 30.5736 12.5393 30.3653 12.227C30.0408 11.7386 29.6362 11.3022 29.2356 10.8738C29.1115 10.7417 28.8871 10.6376 28.7069 10.6376C28.3103 10.6336 27.9057 10.6656 27.5171 10.7457C27.0484 10.8458 27.0204 10.8498 26.744 10.4734C26.6478 10.3453 26.4675 10.2252 26.3113 10.2012C25.4541 10.0731 24.6449 10.2012 23.9238 10.7297C23.6714 10.9178 23.411 11.0299 23.0946 10.8017C22.9584 10.7056 22.714 10.6616 22.5618 10.7136C22.2413 10.8257 21.9128 10.9739 21.6564 11.1861C21.1237 11.6225 20.8152 12.219 20.6069 12.8756C20.5628 13.0077 20.4306 13.2079 20.3345 13.2119C19.7937 13.2319 19.6014 13.6042 19.5013 14.0246C19.4011 14.445 19.333 14.8814 19.337 15.3098C19.345 16.0144 19.4732 16.679 20.0661 17.1835C20.4987 17.5518 20.5829 18.0763 20.4346 18.6047C20.1823 19.5096 19.4532 19.8699 18.5478 19.8018C18.1072 19.7698 17.7507 19.5536 17.5704 19.1412C17.3541 18.6488 17.1818 18.1403 16.9895 17.6359C16.7812 17.0914 16.4487 16.635 15.9801 16.2827C15.5875 15.9864 15.1829 15.9504 14.9025 16.1906C14.61 16.4388 14.4658 16.4388 14.1894 16.1746C14.0131 16.0064 13.8569 15.8102 13.6646 15.6621C12.8354 15.0215 11.89 14.7493 10.8605 14.9615C10.2476 15.0896 9.68275 15.3939 9.43839 16.0144C9.29017 16.3948 9.06984 16.5789 8.68127 16.5989C8.08839 16.627 7.56762 16.8031 7.147 17.2475C6.65027 17.776 6.24166 18.3285 6.40591 19.1212C6.47 19.4295 6.38988 19.6897 6.05739 19.8298C5.48054 20.0741 5.26422 20.5985 5.13202 21.151C5.01585 21.6435 5.14004 21.7996 5.54864 22.0879C5.68083 22.18 5.74092 22.4122 5.76896 22.5923C5.79701 22.7765 5.74092 22.9727 5.71689 23.2049C5.78499 23.1528 5.81303 23.1408 5.81704 23.1248C6.38187 21.3112 7.64373 20.0821 9.21005 19.1332C10.1995 18.5327 11.2891 18.2044 12.4588 18.1643C14.2094 18.1003 15.6756 18.6888 16.8213 20.038C17.0536 20.3143 17.31 20.5345 17.7146 20.5465C18.0231 20.5545 18.3395 20.6306 18.632 20.7267C19.2689 20.9388 19.8898 21.1831 20.5508 21.4273L20.5468 21.4353ZM31.3468 35.1476C31.0263 35.3038 30.826 35.4359 30.6097 35.4959C30.4414 35.54 30.189 35.556 30.0849 35.4639C29.9807 35.3718 29.9727 35.1156 30.0008 34.9475C30.0488 34.6432 30.161 34.3509 30.2131 34.1587C29.6122 34.6632 29.0033 35.3038 28.2782 35.7562C26.8481 36.645 25.2377 37.0293 23.5592 37.1094C22.5137 37.1614 21.4802 37.0493 20.4667 36.8051C19.5253 36.5809 18.5999 36.2887 17.6786 36.0284C17.6786 36.0284 12.2345 34.0386 11.3172 34.0667C9.30619 34.463 6.62623 32.3891 6.62623 32.3891C6.45398 32.221 6.29374 32.0689 6.13751 31.9127C5.83706 31.6165 5.85309 31.3442 6.21362 31.116C6.40991 30.9919 6.63024 30.9118 6.88261 30.7917C5.53662 30.6796 4.52713 29.987 3.58574 29.1542C3.55369 29.1262 3.49761 29.1062 3.48158 29.0702C3.40147 28.862 3.23322 28.6178 3.2893 28.4456C3.32936 28.3135 3.64583 28.2334 3.85013 28.1934C4.16259 28.1333 4.48306 28.1253 4.79953 28.0973V28.0052C4.45903 27.8451 4.10651 27.6969 3.77001 27.5208C2.63634 26.9282 1.79509 26.0394 1.19821 24.9144C1.15815 24.8344 1.11409 24.7463 1.11008 24.6622C1.09806 24.394 0.913791 24.0657 1.18619 23.8735C1.44658 23.6893 1.6669 23.9696 1.90726 24.0617C2.21171 24.1818 2.5442 24.2298 2.9528 24.3339C2.87669 24.0737 2.83663 23.9055 2.77654 23.7454C2.29583 22.4642 2.16364 21.143 2.27981 19.7898C2.31586 19.3734 2.02744 19.1132 1.88322 18.7809C1.5307 17.9482 1.17818 17.1154 0.853702 16.2746C0.717501 15.9223 0.637382 15.546 0.553258 15.1737C0.413051 14.5331 0.272844 13.8885 0.16869 13.2399C-0.0436239 11.9468 -0.0636535 10.6456 0.104595 9.34441C0.180707 8.76389 0.445098 8.68382 0.957856 8.62777C3.45354 8.36753 5.91318 8.57972 8.30872 9.35642C8.90159 9.5486 9.46643 9.83285 10.0553 10.0531C10.1835 10.1011 10.3638 10.0971 10.4919 10.049C11.4654 9.67271 12.4188 9.23231 13.4083 8.90802C14.4458 8.56771 15.5194 8.31949 16.5809 8.05125C16.8333 7.98719 16.9895 7.8911 17.0616 7.62687C17.6105 5.56501 18.4838 3.65129 19.6815 1.8897C20.0621 1.3292 20.4787 0.788712 20.9153 0.268244C21.1877 -0.0560477 21.4041 -0.084073 21.7325 0.180165C22.2253 0.580525 22.722 0.9969 23.1266 1.48134C23.8276 2.31809 24.4646 3.21089 25.1176 4.08768C26.119 5.4369 26.8842 6.91022 27.465 8.48764C27.5291 8.65579 27.6894 8.83195 27.8536 8.91603C29.1595 9.58062 30.0889 10.6376 30.9382 11.7906C31.6993 12.8235 32.156 13.9846 32.4003 15.2257C32.7488 17.0033 32.6687 18.7729 32.0518 20.4824C31.8515 21.0389 31.4549 21.5234 31.1505 22.0438C31.1304 22.0799 31.1104 22.1199 31.0583 22.22C31.6152 22.272 32.1319 22.3281 32.6527 22.3641C32.853 22.3801 33.0533 22.3521 33.2536 22.3561C33.6662 22.3601 33.8865 22.7204 33.6181 23.0367C33.3297 23.381 32.9611 23.6693 32.5926 23.9295C32.3082 24.1297 31.9677 24.2538 31.6632 24.406C32.0117 24.5901 32.4043 24.7663 32.7608 24.9945C33.6902 25.587 34.2551 26.7281 33.9706 27.757C33.7984 28.3815 33.4178 28.842 32.9331 29.2383C32.3843 29.6867 31.7514 29.967 31.0904 30.1872C30.842 30.2712 30.834 30.3753 30.858 30.6236C30.9141 31.2401 30.8901 31.8687 30.9061 32.4892C30.9141 32.7655 30.9502 33.0417 30.9582 33.318C30.9662 33.5702 30.9662 33.8264 30.9502 34.0787C30.9422 34.2188 30.8981 34.3589 30.8701 34.5031C30.9221 34.5031 30.9502 34.5151 30.9622 34.5031C31.1665 34.2949 31.4509 34.1347 31.6752 34.3109C31.8555 34.447 31.9917 34.7713 31.9757 34.9995C31.9396 35.4719 31.7914 35.9363 31.6833 36.4008L31.3468 35.1476ZM27.9537 29.8589C27.9377 29.6267 27.9217 29.4865 27.9217 29.3464C27.9257 29.0061 28.0098 28.6938 28.3223 28.5097C28.6267 28.3335 28.9272 28.4456 29.1715 28.6258C29.484 28.854 29.7804 29.1182 30.0488 29.3985C30.2131 29.5706 30.3613 29.6587 30.5976 29.6227C31.3387 29.5146 31.9076 29.0622 32.4884 28.6498C32.7448 28.4696 32.9892 28.2214 33.1454 27.9492C33.4779 27.3686 33.4058 26.8121 33.0212 26.2316C32.5606 25.543 31.9597 25.1386 31.1585 25.0626C30.181 24.9705 29.2236 25.1146 28.2902 25.4229C28.0459 25.503 27.9698 25.6471 28.0098 25.9113C28.0499 26.1515 28.0419 26.4038 28.0178 26.648C27.9297 27.5648 27.445 27.833 26.6158 27.4327C26.3874 27.3206 26.1591 27.2045 25.9428 27.1004C25.8947 27.6169 25.8907 28.1213 25.7986 28.6057C25.6624 29.3104 25.1736 29.5426 24.5247 29.2543C24.3324 29.1703 24.1601 29.0381 23.9839 28.922C23.8076 28.8019 23.6434 28.6698 23.4751 28.5457L23.5913 28.6578C23.383 29.0261 23.1907 29.4105 22.9584 29.7628C22.6299 30.2712 21.9809 30.3513 21.5403 29.9389C21.2959 29.7107 21.0876 29.4385 20.8673 29.1903C20.659 29.4665 20.4987 29.7227 20.2984 29.9429C19.9499 30.3233 19.4412 30.2592 19.1688 29.8268C19.0967 29.7147 19.0566 29.5666 18.9605 29.4865C18.8443 29.3864 18.6881 29.2904 18.5438 29.2783C18.1873 29.2583 17.8268 29.2583 17.4743 29.3104C17.326 29.3304 17.1818 29.4785 17.0697 29.5986C17.0296 29.6427 17.0536 29.7948 17.0937 29.8669C17.7026 30.8638 18.66 31.4283 19.6815 31.9568C19.7857 31.7486 19.8738 31.5604 19.974 31.3762C20.4907 30.4274 21.356 30.3193 22.025 31.12C22.2133 31.3482 22.3935 31.5844 22.5778 31.8206C22.722 31.5124 22.8422 31.2041 23.0064 30.9158C23.4871 30.0591 24.1962 29.955 24.8972 30.6356C25.1816 30.9118 25.426 31.2241 25.7104 31.5404C25.7305 31.3963 25.7425 31.2761 25.7625 31.156C25.8386 30.7196 25.8747 30.2632 26.0109 29.8469C26.2632 29.0902 26.8201 28.9581 27.449 29.4545C27.5932 29.5706 27.7334 29.6907 27.9417 29.8629L27.9537 29.8589ZM22.2293 19.3414C22.1612 19.3734 22.1331 19.3774 22.1251 19.3935C21.6965 20.1541 21.2799 20.9188 21.1918 21.8116C21.1437 22.2801 20.8312 22.4402 20.4106 22.232C20.3425 22.196 20.2744 22.1559 20.2103 22.1119C19.5133 21.6115 18.7161 21.4073 17.8228 21.2431C18.3996 22.264 18.9284 23.2209 19.4852 24.1617C19.5493 24.2698 19.7697 24.3499 19.9099 24.3419C20.699 24.2939 21.384 24.5501 22.013 24.9905C22.1091 25.0586 22.2213 25.1106 22.3374 25.1747C22.3655 25.1146 22.4015 25.0746 22.4015 25.0345C22.4176 24.1097 22.694 23.281 23.3029 22.5683C23.367 22.4922 23.395 22.3281 23.363 22.236C22.9944 21.2751 22.6139 20.3183 22.2293 19.3414ZM13.24 19.1612C13.7568 19.7978 14.0131 20.4304 13.8769 21.1751C13.7407 21.9478 13.2801 22.4642 12.579 22.7645C11.9902 23.0167 11.3973 22.9807 10.8284 22.6764C10.2796 22.3841 9.89506 21.9438 9.71479 21.3032C9.3823 22.4882 10.1434 23.9576 11.6216 24.5141C13.0838 25.0666 14.5539 24.0416 15.0427 22.8125C15.5955 21.4273 14.9345 19.7017 13.24 19.1572V19.1612ZM22.8662 17.8641C24.036 19.0852 25.6103 19.4575 27.0164 18.0763C28.0779 17.0313 28.106 15.2057 27.0324 14.1527C25.9949 13.1358 24.2843 13.1238 23.5552 13.8284C25.2618 13.7204 26.0389 14.9535 25.9908 16.0344C25.9628 16.715 25.6463 17.2515 25.1256 17.6759C24.4566 18.2204 23.7115 18.1363 22.8622 17.8681L22.8662 17.8641ZM27.3248 18.8209C27.9377 18.7409 28.4625 18.6488 28.9953 18.6047C29.3959 18.5727 29.8005 18.5767 30.2011 18.6047C30.6738 18.6408 30.822 18.913 30.6457 19.3414C30.6257 19.3935 30.6017 19.4455 30.5776 19.4935C30.2291 20.2062 30.2131 20.9869 30.125 21.7476C30.1169 21.8116 30.165 21.9117 30.2171 21.9397C30.2571 21.9638 30.3693 21.9237 30.4094 21.8797C30.5977 21.6635 30.7979 21.4473 30.9542 21.2031C31.6672 20.0901 31.8795 18.833 31.8715 17.5478C31.8635 16.615 31.7554 15.6781 31.6071 14.7573C31.535 14.3009 31.2747 13.8725 31.0784 13.372C31.0063 13.5042 30.9782 13.5842 30.9261 13.6523C30.6417 14.0326 30.3893 14.449 30.0488 14.7733C29.8165 14.9975 29.6523 15.2177 29.5161 15.506C29.3839 15.7862 29.1355 16.0184 28.9272 16.2626C28.807 16.4028 28.5747 16.5029 28.5386 16.659C28.3503 17.4797 27.9698 18.1804 27.3288 18.8169L27.3248 18.8209ZM16.4407 30.1191C15.8959 30.3273 15.8479 30.4674 16.1683 30.8678C16.2885 31.0159 16.4047 31.168 16.5329 31.3082C17.971 32.8696 19.7696 33.7464 21.8527 34.0146C22.5417 34.1027 23.2548 34.0226 23.9518 33.9706C25.0334 33.8865 26.083 33.6343 27.0284 33.0898C28.0339 32.5093 28.9993 31.8647 29.9807 31.2441C30.3293 31.0239 30.3293 30.8718 29.9767 30.5595C29.7724 30.6996 29.5721 30.8598 29.3558 30.9919C28.811 31.3202 28.2662 31.6525 27.7094 31.9608C27.2487 32.213 26.792 32.4852 26.3033 32.6614C25.1616 33.0778 23.9679 33.2419 22.7501 33.2619C21.344 33.286 20.022 32.9977 18.8002 32.2811C17.8628 31.7286 17.1257 30.9639 16.4407 30.1191ZM21.8527 3.84346C21.1757 5.07657 20.4346 6.20158 20.2023 7.49475C21.5923 7.57482 22.9664 7.65089 24.3644 7.73096C23.7956 6.28566 22.9664 5.00851 21.8567 3.84346H21.8527ZM3.66586 15.7862C4.53514 14.1367 5.81303 12.9797 7.23112 11.9548C7.19908 11.9147 7.19507 11.9027 7.18706 11.8987C5.84107 11.5624 4.48306 11.4743 3.11304 11.7306C3.04895 11.7426 2.96482 11.8667 2.96482 11.9347C2.97283 13.1238 3.16912 14.2849 3.52565 15.4179C3.5577 15.522 3.60176 15.6181 3.66986 15.7822L3.66586 15.7862ZM9.54655 19.7338C7.45145 20.9148 6.34582 22.9406 6.35783 24.2738C6.89463 24.39 7.42741 24.3339 7.93216 24.1417C8.31272 23.9976 8.62118 24.0657 8.93765 24.2738C9.27014 24.49 9.62666 24.6262 10.0633 24.494C9.42236 23.8615 9.01376 23.1408 8.91361 22.244C8.81747 21.3512 9.02177 20.5505 9.54254 19.7298L9.54655 19.7338ZM26.0469 12.6554C27.4129 13.1799 28.2302 14.1567 28.5787 15.6781C28.7189 15.4539 28.8831 15.3018 28.9031 15.1376C28.9632 14.6612 29.2677 14.421 29.6482 14.2168C29.9207 14.0727 29.9247 13.9566 29.6563 13.7884C29.3158 13.5762 28.9753 13.36 28.6107 13.1959C27.8015 12.8356 26.9523 12.6354 26.0469 12.6554ZM19.1688 19.0291C19.6855 18.8209 19.8778 18.4006 19.6855 17.9041C19.4972 17.4157 18.9564 17.1634 18.5118 17.3556C18.0711 17.5478 17.7907 18.1724 17.963 18.5927C18.1473 19.0451 18.664 19.2333 19.1688 19.0331V19.0291ZM15.936 22.224C16.4808 22.4882 16.9935 22.4882 17.5183 22.236C17.1978 21.3232 15.9921 19.95 15.1989 19.5856C15.7357 20.3783 16.0602 21.2271 15.936 22.224ZM32.4724 23.1568C31.7433 23.0087 30.9942 22.8566 30.2411 22.7164C30.145 22.7004 29.9687 22.7445 29.9447 22.8085C29.7925 23.1769 29.6763 23.5572 29.5361 23.9656C30.5696 24.0176 31.6031 23.8054 32.4724 23.1568ZM24.753 22.8205C25.7265 22.22 26.6358 21.6675 27.5331 21.099C27.6974 20.9949 27.8456 20.8388 27.9618 20.6786C28.0259 20.5905 28.0018 20.4384 28.0178 20.3183C27.8897 20.3343 27.7414 20.3183 27.6413 20.3783C27.425 20.5145 27.2527 20.7186 27.0324 20.8468C26.1951 21.3352 25.3459 21.8116 24.4926 22.276C24.2923 22.3841 24.2322 22.5123 24.3684 22.6644C24.4566 22.7605 24.6328 22.7765 24.757 22.8205H24.753ZM25.2337 32.269L25.2978 32.1449C24.9613 31.7886 24.6529 31.4043 24.2843 31.088C23.9078 30.7637 23.8276 30.7997 23.5993 31.2481C23.387 31.6605 23.1627 32.0729 23.2147 32.5853C23.5713 32.5373 23.8998 32.4932 24.2282 32.4412C24.5647 32.3891 24.8972 32.3291 25.2297 32.273L25.2337 32.269ZM13.5364 30.3153C14.5179 30.4034 15.8639 29.8068 16.4768 29.1222C16.1603 28.9541 15.8559 28.7779 15.5354 28.6378C15.4553 28.6017 15.291 28.6618 15.2149 28.7299C15.0347 28.89 14.8904 29.0982 14.7142 29.2623C14.3416 29.6106 13.9531 29.9429 13.5404 30.3113L13.5364 30.3153ZM23.1947 26.0635C24.3324 25.7272 24.2603 23.8174 23.7475 23.0848C23.2228 24.0256 22.8061 24.9625 23.1947 26.0635ZM18.5278 25.2507L18.5158 25.2147C18.5478 25.2027 18.5799 25.1947 18.6079 25.1787C18.7521 25.0826 19.0486 25.1226 18.9244 24.7903C18.8042 24.466 18.6079 24.6142 18.4116 24.6782C17.5904 24.9384 16.7692 25.2027 15.944 25.4509C15.6996 25.523 15.4393 25.543 15.1949 25.6191C15.1148 25.6431 15.0347 25.7672 15.0186 25.8553C15.0106 25.8993 15.1388 26.0034 15.2189 26.0194C15.3671 26.0474 15.5354 26.0715 15.6796 26.0314C16.633 25.7832 17.5784 25.515 18.5278 25.2547V25.2507ZM19.321 25.4829C19.2649 25.4949 19.2289 25.4949 19.2008 25.507C18.1873 26.0074 17.1658 26.4838 16.0201 26.6079C15.94 26.616 15.8318 26.7601 15.8158 26.8562C15.8038 26.9162 15.928 27.0283 16.0161 27.0724C16.0962 27.1124 16.2124 27.1044 16.3085 27.0884C16.5849 27.0443 16.8614 26.9963 17.1297 26.9282C17.991 26.708 18.7802 26.3277 19.5573 25.8513L19.325 25.4829H19.321ZM19.8978 25.0586C20.2103 26.0635 21.6885 26.8041 22.4536 26.3437C21.7886 25.4269 20.695 24.8744 19.8978 25.0586ZM25.426 25.9113C24.753 25.6751 24.6569 25.7071 24.2443 26.1716C23.6634 26.8321 22.9063 27.1364 22.049 27.1644C21.6084 27.1765 21.4401 27.4287 21.2879 27.769C22.0971 27.8891 24.8451 26.66 25.426 25.9113ZM28.126 30.9719C27.7054 30.6115 27.3729 30.3113 27.0164 30.035C26.9443 29.979 26.6999 29.991 26.6799 30.039C26.4275 30.5955 26.4035 31.1881 26.4275 31.9087L28.126 30.9719ZM24.8171 23.8775C25.6183 23.4931 26.4155 23.1168 27.2046 22.7245C27.445 22.6043 27.6733 22.4562 27.8736 22.2801C27.9457 22.212 27.9137 22.0278 27.9297 21.8957C27.8135 21.8877 27.6693 21.8357 27.5812 21.8797C26.7159 22.3201 25.8707 22.7965 24.9974 23.2209C24.713 23.361 24.6088 23.4851 24.8251 23.8775H24.8171ZM24.7971 24.8584C25.7705 24.7022 26.6598 24.402 27.445 23.8375C27.5091 23.7894 27.5612 23.6052 27.5291 23.5692C27.465 23.4971 27.3328 23.4571 27.2287 23.4651C27.1125 23.4731 27.0003 23.5452 26.8842 23.5892C26.3233 23.8014 25.7665 24.0376 25.1977 24.2138C24.769 24.3459 24.753 24.3259 24.8011 24.8584H24.7971ZM19.9339 26.3397C19.321 26.652 18.7361 26.9603 18.1432 27.2445C17.9349 27.3446 17.6866 27.3686 17.4783 27.4767C17.3781 27.5288 17.3341 27.6929 17.2619 27.809C17.3861 27.8571 17.5424 27.9732 17.6305 27.9371C18.4076 27.6048 19.1928 27.2725 19.9379 26.8722C20.3024 26.676 20.2704 26.6119 19.9299 26.3397H19.9339ZM25.2297 27.0283C24.729 27.2926 24.3244 27.4967 23.9318 27.7209C23.8797 27.753 23.8517 27.9612 23.8877 27.9932C24.1762 28.2174 24.4766 28.4256 24.7851 28.6178C24.9693 28.7339 25.1216 28.6538 25.1416 28.4336C25.1816 27.9852 25.1977 27.5368 25.2297 27.0283ZM22.1652 32.5933C21.9369 32.0649 21.6845 31.6565 21.2679 31.3923C21.1637 31.3242 20.8873 31.3522 20.8112 31.4403C20.6229 31.6605 20.5067 31.9407 20.3345 32.241L22.1652 32.5893V32.5933ZM22.8141 28.2614L22.71 28.2054C22.3294 28.2855 21.9489 28.3655 21.5723 28.4496C21.4361 28.4776 21.2639 28.5377 21.384 28.7058C21.5803 28.9781 21.8127 29.2303 22.057 29.4625C22.1051 29.5066 22.3615 29.4385 22.3935 29.3624C22.5578 29.0061 22.6779 28.6298 22.8141 28.2614ZM26.0429 26.4118L27.2287 26.9603C27.429 26.4558 27.3969 26.0354 27.2407 25.599C26.7079 25.6591 26.3153 25.8873 26.0429 26.4118ZM22.9544 19.1452L23.4431 20.5665C23.8156 20.2702 24.1561 20.05 24.2403 19.7458L22.9544 19.1452ZM28.6708 30.4514L28.819 30.4954C29.0313 30.3433 29.2517 30.1952 29.456 30.031C29.508 29.991 29.5441 29.8429 29.5201 29.8148C29.2757 29.5746 29.0193 29.3544 28.7629 29.1262L28.6187 29.2063L28.6748 30.4514H28.6708ZM15.3431 23.8335L17.1698 23.1128L15.7357 23.0608L15.3431 23.8375V23.8335ZM23.5913 15.7502C23.3469 15.6541 23.1947 15.542 23.0505 15.55C22.8422 15.562 22.71 15.8583 22.8382 16.0464C22.9183 16.1625 23.1587 16.2947 23.2468 16.2506C23.379 16.1906 23.4431 15.9784 23.5873 15.7462L23.5913 15.7502ZM10.8244 21.4073C11.0688 21.2271 11.189 21.103 11.0808 20.8708C10.9887 20.6626 10.8565 20.5705 10.6281 20.6586C10.3557 20.7627 10.3798 20.9669 10.4879 21.151C10.552 21.2631 10.7083 21.3232 10.8204 21.4073H10.8244ZM19.8017 29.5826L20.2464 28.8179C20.0701 28.8019 19.9539 28.834 19.8498 28.89C19.7376 28.9501 19.5453 29.0341 19.5493 29.0982C19.5573 29.2263 19.6735 29.3504 19.8017 29.5826ZM14.3536 27.833L14.2455 28.5137L14.3536 28.5617L14.7422 28.1213L14.3536 27.833Z" fill="#00735E"/>
<path d="M16.7648 14.7493L16.7447 14.7573C15.9235 15.0615 15.2065 14.5971 14.9501 14.0086C14.8139 13.6963 14.8339 13.316 15.0022 12.9597C15.1784 12.5833 15.4909 12.2991 15.8394 12.195C16.6085 11.9668 17.2495 12.263 17.5619 12.9957C17.6941 13.308 17.6901 13.6643 17.5499 13.9926C17.4017 14.3409 17.1173 14.6171 16.7688 14.7533L16.7648 14.7493ZM16.6205 14.421C16.893 14.3169 17.1053 14.1127 17.2174 13.8485C17.3216 13.6082 17.3256 13.356 17.2294 13.1318C16.9931 12.5713 16.5324 12.3591 15.9395 12.5353C15.6872 12.6113 15.4548 12.8275 15.3226 13.1078C15.1984 13.372 15.1824 13.6483 15.2746 13.8645C15.4668 14.3049 15.9996 14.6492 16.6125 14.421H16.6205ZM16.5124 14.1848H16.5004C16.3041 14.2648 16.1278 14.2688 15.9796 14.2048C15.8234 14.1327 15.7072 13.9926 15.6231 13.7684C15.5349 13.5362 15.5309 13.336 15.603 13.1719C15.6711 13.0197 15.8114 12.9076 15.9996 12.8355C16.4523 12.6674 16.8329 12.8275 17.0211 13.2679C17.0812 13.4081 17.0772 13.5682 17.0131 13.7243C16.925 13.9285 16.7447 14.0967 16.5124 14.1888V14.1848ZM16.1118 13.1759C16.0157 13.2119 15.9556 13.2599 15.9315 13.32C15.8995 13.392 15.9075 13.5001 15.9596 13.6403C16.0076 13.7684 16.0637 13.8485 16.1278 13.8765C16.1839 13.9005 16.268 13.8965 16.3722 13.8565C16.5244 13.7964 16.6366 13.6963 16.6846 13.5802C16.7047 13.5362 16.7207 13.4681 16.6927 13.4041C16.5805 13.1438 16.3962 13.0678 16.1238 13.1678H16.1078L16.1118 13.1759Z" fill="#00735E"/>
<path d="M18.3075 11.2141C18.015 11.3302 17.6665 11.3182 17.334 11.1861C16.9815 11.0419 16.7051 10.7817 16.5809 10.4734C16.4487 10.1411 16.4608 9.76879 16.609 9.42448C16.7692 9.05615 17.0777 8.77189 17.4462 8.62376C17.7827 8.49564 18.1472 8.50365 18.4717 8.65178C18.7922 8.79992 19.0366 9.06415 19.1607 9.40046C19.4251 10.1251 19.0926 10.8618 18.3475 11.1981C18.3315 11.2061 18.3195 11.2101 18.3035 11.2181L18.3075 11.2141ZM17.5664 8.96006C17.29 9.06816 17.0616 9.28836 16.9415 9.56461C16.8293 9.82084 16.8213 10.0971 16.9174 10.3373C17.0056 10.5535 17.2099 10.7457 17.4702 10.8498C17.7266 10.9539 17.995 10.9619 18.2073 10.8658C18.684 10.6536 19.0606 10.1531 18.8282 9.52057C18.7401 9.27635 18.5599 9.08017 18.3275 8.97608C18.0912 8.86798 17.8268 8.85997 17.5784 8.95606H17.5664V8.96006ZM18.1232 10.6015C17.7306 10.7577 17.3701 10.6095 17.2099 10.2292C17.1297 10.033 17.1297 9.81683 17.2099 9.62466C17.286 9.4485 17.4222 9.31238 17.5984 9.24432H17.6024C18.0391 9.07216 18.4277 9.24432 18.5959 9.6647C18.7121 9.95696 18.7241 10.3533 18.1352 10.5975H18.1232V10.6015ZM17.7306 9.58062C17.6465 9.61265 17.5784 9.68071 17.5383 9.76879C17.4943 9.86888 17.4943 9.98899 17.5383 10.0931C17.6425 10.3453 17.8388 10.3293 17.987 10.2732H17.995C18.3195 10.1371 18.3355 9.99699 18.2594 9.80082C18.1392 9.49654 17.9029 9.51256 17.7266 9.58062H17.7306Z" fill="#00735E"/>
<path d="M9.27823 29.7788C8.62126 30.039 7.83209 29.6587 7.55168 28.9541C7.41147 28.5977 7.43551 28.1573 7.62379 27.785C7.79204 27.4487 8.06844 27.2045 8.38491 27.1124C9.122 26.9042 9.77496 27.2045 10.0954 27.9051C10.2396 28.2174 10.2396 28.6017 10.0954 28.9541C9.93921 29.3384 9.64277 29.6387 9.28624 29.7788H9.27823ZM8.41295 27.4767C8.22067 27.5528 8.04841 27.717 7.94025 27.9412C7.80005 28.2294 7.77601 28.5577 7.88017 28.8219C8.08847 29.3464 8.66532 29.6347 9.14203 29.4465C9.41042 29.3504 9.63876 29.1062 9.75493 28.8179C9.86309 28.5537 9.86309 28.2735 9.76295 28.0492C9.51859 27.5168 9.03787 27.2926 8.47705 27.4527C8.45702 27.4607 8.43298 27.4647 8.41295 27.4727V27.4767ZM9.11399 29.1462C8.68135 29.3184 8.30479 29.1542 8.12853 28.7179C8.04841 28.5137 8.04441 28.3095 8.12052 28.1333C8.20064 27.9532 8.34886 27.813 8.56518 27.733C8.73343 27.6689 8.92571 27.6729 9.10197 27.753C9.30227 27.8411 9.4625 28.0172 9.54262 28.2294C9.69484 28.6378 9.53461 28.9821 9.11399 29.1502V29.1462ZM8.69337 28.0653C8.57319 28.1133 8.48906 28.1854 8.44901 28.2735C8.40895 28.3615 8.41295 28.4696 8.46102 28.5817C8.56117 28.834 8.73343 28.91 8.98179 28.8099C9.22215 28.7138 9.29025 28.5737 9.20612 28.3495C9.16206 28.2254 9.06992 28.1253 8.95375 28.0773C8.86562 28.0372 8.77348 28.0332 8.69337 28.0653Z" fill="#00735E"/>
<path d="M15.0671 12.0509H15.0631C14.7066 12.191 14.298 12.179 13.9615 12.0188C13.653 11.8707 13.4287 11.6185 13.3206 11.2822C13.1924 10.9499 13.2084 10.5655 13.3606 10.2212C13.5048 9.90492 13.7412 9.67271 14.0336 9.56862C14.7867 9.29237 15.628 9.6607 15.9044 10.3813C16.1688 11.062 15.8202 11.7466 15.0631 12.0468L15.0671 12.0509ZM14.1418 9.91693C13.9495 9.993 13.7852 10.1571 13.6891 10.3733C13.5729 10.6296 13.5609 10.9178 13.657 11.1621V11.1741C13.7572 11.4783 13.9615 11.6265 14.1137 11.7025C14.3621 11.8186 14.6665 11.8266 14.9309 11.7266C15.3716 11.5504 15.8042 11.13 15.5679 10.5215C15.3636 9.989 14.7146 9.70874 14.1538 9.91693L14.1378 9.92494L14.1418 9.91693ZM14.8348 11.4543C14.5984 11.5464 14.4102 11.5584 14.2539 11.4903C14.1097 11.4263 14.0016 11.3022 13.9295 11.106C13.8573 10.9138 13.8654 10.6776 13.9535 10.4774C14.0296 10.3093 14.1538 10.1932 14.298 10.1331C14.6345 10.005 15.2154 10.2372 15.3676 10.5615C15.4237 10.6856 15.4277 10.8298 15.3676 10.9659C15.2875 11.1701 15.0872 11.3542 14.8348 11.4543ZM14.7026 11.122C14.8909 11.0459 14.999 10.9258 15.0351 10.8378C15.0551 10.7897 15.0551 10.7497 15.0391 10.7177C14.967 10.5655 14.5824 10.4094 14.4222 10.4694C14.3661 10.4854 14.314 10.5495 14.278 10.6256C14.2259 10.7377 14.2219 10.8738 14.2619 10.9779C14.302 11.078 14.3461 11.142 14.3981 11.1621C14.4622 11.1901 14.5624 11.1781 14.7026 11.122Z" fill="#00735E"/>
<path d="M7.02278 27.6289C7.02278 27.6289 6.99073 27.6409 6.9747 27.6449C6.30972 27.8811 5.59266 27.4967 5.30023 26.7521C5.03183 26.0635 5.51655 25.3748 6.14548 25.1106H6.15349C6.85853 24.8544 7.60764 25.1987 7.85601 25.8873C7.97619 26.2156 7.95616 26.5759 7.79992 26.9042C7.64369 27.2325 7.36328 27.4927 7.01877 27.6289H7.02278ZM6.28168 25.4429C5.8851 25.6111 5.42842 26.0875 5.63673 26.62C5.86106 27.1885 6.37382 27.4767 6.85453 27.3086C7.12693 27.2125 7.35527 27.0083 7.47945 26.7521C7.59162 26.5119 7.60764 26.2516 7.51951 26.0114C7.33924 25.511 6.79444 25.2627 6.28168 25.4429ZM6.8345 26.9923C6.61017 27.0804 6.42589 27.0924 6.27367 27.0283C6.13346 26.9643 6.0253 26.8402 5.9532 26.648C5.81699 26.2957 6.00928 25.7912 6.32975 25.6671C6.48598 25.603 6.67026 25.6151 6.85052 25.6911C7.04681 25.7792 7.19904 25.9353 7.27114 26.1195C7.42737 26.5319 7.28717 26.8161 6.8385 26.9923H6.8345ZM6.45794 25.9994C6.33376 26.0474 6.21759 26.3397 6.28569 26.5199C6.32575 26.62 6.36981 26.68 6.41788 26.7C6.47797 26.7241 6.57011 26.712 6.7023 26.66C7.00675 26.5399 7.00675 26.4358 6.93064 26.2476C6.89459 26.1515 6.80646 26.0675 6.7023 26.0194C6.61417 25.9794 6.52604 25.9754 6.45794 25.9994Z" fill="#00735E"/>
<path d="M11.5374 31.9287H11.5333C11.2329 32.0488 10.8964 32.0368 10.5879 31.8967C10.2635 31.7526 10.0071 31.4803 9.88291 31.156C9.63855 30.5115 9.97104 29.7948 10.632 29.5306C10.9805 29.3864 11.3731 29.3944 11.7016 29.5506C11.986 29.6827 12.1943 29.9189 12.2905 30.2112C12.5228 30.9358 12.2224 31.6245 11.5414 31.9327H11.5374V31.9287ZM10.7722 29.8629C10.2915 30.055 10.0512 30.5675 10.2234 31.0319C10.3115 31.2681 10.4998 31.4643 10.7362 31.5724C10.9565 31.6725 11.1928 31.6805 11.4011 31.6004C11.9139 31.3682 12.1302 30.8678 11.954 30.3193C11.8899 30.1231 11.7497 29.967 11.5534 29.8749C11.317 29.7628 11.0326 29.7588 10.7722 29.8629ZM11.313 31.3242C11.313 31.3242 11.297 31.3322 11.289 31.3322C11.1127 31.3963 10.9405 31.3923 10.7963 31.3202C10.656 31.2521 10.5519 31.128 10.4998 30.9599C10.3836 30.6075 10.5799 30.1832 10.9084 30.0711C11.0647 30.015 11.2449 30.031 11.4052 30.1111C11.5654 30.1912 11.6816 30.3233 11.7336 30.4754C11.8458 30.8277 11.6695 31.1881 11.317 31.3242H11.313ZM11.0166 30.4114C10.8804 30.4674 10.7842 30.6916 10.8363 30.8518C10.8523 30.8998 10.8844 30.9679 10.9525 30.9999C11.0086 31.0279 11.0847 31.0279 11.1688 30.9999C11.3571 30.9358 11.4492 30.7637 11.3891 30.5875C11.3691 30.5275 11.317 30.4714 11.2449 30.4354C11.1728 30.3994 11.0887 30.3913 11.0246 30.4114H11.0166Z" fill="#00735E"/>
<path d="M12.383 13.2199H12.379C11.7381 13.4721 11.025 13.1438 10.7566 12.4752C10.5043 11.8427 10.7967 11.122 11.4136 10.8738C11.7581 10.7417 12.1187 10.7377 12.4391 10.8778C12.7476 11.0139 12.9879 11.2661 13.1081 11.5944C13.3565 12.259 13.048 12.9557 12.3871 13.2159L12.383 13.2199ZM12.2468 12.8876C12.7276 12.6954 12.9479 12.207 12.7676 11.7226C12.6795 11.4903 12.5112 11.3062 12.2909 11.2101C12.0586 11.11 11.7902 11.11 11.5458 11.2101C11.1212 11.3822 10.9129 11.9027 11.0891 12.3471C11.2814 12.8316 11.7902 13.0678 12.2468 12.8916V12.8876ZM12.1627 12.6234H12.1507C11.8102 12.7475 11.5378 12.6234 11.4016 12.2911C11.3335 12.1269 11.3375 11.9347 11.4136 11.7666C11.4777 11.6185 11.5859 11.5104 11.7221 11.4583C11.9344 11.3822 12.0906 11.4183 12.1828 11.4583C12.327 11.5264 12.4311 11.6545 12.4992 11.8387C12.6194 12.171 12.5032 12.4472 12.1707 12.6154H12.1627V12.6234ZM11.8423 11.8026C11.8062 11.8186 11.7661 11.8627 11.7421 11.9187C11.706 11.9988 11.702 12.0909 11.7341 12.1629C11.7982 12.3191 11.8703 12.3551 12.0225 12.3031C12.2068 12.207 12.2108 12.1069 12.1627 11.9708C12.1387 11.9067 12.0986 11.8226 12.0305 11.7946C11.9825 11.7746 11.9224 11.7746 11.8423 11.8026Z" fill="#00735E"/>
<path d="M14.8058 33.4661C14.7858 33.4741 14.7658 33.4821 14.7418 33.4901C14.0207 33.7304 13.4518 33.2659 13.2075 32.6974C13.0913 32.4212 13.0993 32.1049 13.2315 31.8046C13.3797 31.4683 13.6642 31.2001 13.9967 31.084C14.3331 30.9679 14.6817 30.9799 14.9821 31.128C15.2665 31.2641 15.4788 31.5084 15.587 31.8126C15.6992 32.1329 15.6751 32.4852 15.5189 32.8015C15.3707 33.1018 15.1143 33.342 14.8058 33.4621V33.4661ZM14.0848 31.4363C13.8564 31.5244 13.6642 31.7165 13.56 31.9528C13.4679 32.1609 13.4599 32.3771 13.54 32.5613C13.7082 32.9497 14.0928 33.334 14.6296 33.1538C14.8739 33.0698 15.0823 32.8896 15.1984 32.6494C15.3106 32.4172 15.3306 32.1649 15.2505 31.9327C15.1744 31.7165 15.0262 31.5484 14.8299 31.4523C14.6176 31.3482 14.3612 31.3402 14.1168 31.4243C14.1048 31.4243 14.0968 31.4323 14.0848 31.4363ZM14.5895 32.8736L14.5695 32.8816C14.245 32.9977 13.9686 32.8856 13.8444 32.5893C13.7763 32.4292 13.7883 32.225 13.8725 32.0328C13.9486 31.8567 14.0808 31.7205 14.217 31.6725C14.5134 31.5604 14.89 31.7205 15.0061 32.0088C15.0702 32.1649 15.0622 32.3371 14.9941 32.4972C14.918 32.6694 14.7698 32.8055 14.5895 32.8776V32.8736ZM14.3412 32.0048C14.3011 32.0208 14.241 32.0809 14.201 32.173C14.1569 32.273 14.1489 32.3811 14.1769 32.4492C14.209 32.5293 14.261 32.6093 14.4493 32.5413C14.5455 32.5053 14.6296 32.4332 14.6696 32.3451C14.7017 32.273 14.7057 32.201 14.6777 32.1369C14.6336 32.0288 14.4613 31.9608 14.3452 32.0008L14.3412 32.0048Z" fill="#00735E"/>
<path d="M6.57442 16.647H6.56641C6.0176 16.8632 5.42873 16.5829 5.20039 15.9984C5.09223 15.7181 5.09624 15.4139 5.22042 15.1376C5.34861 14.8494 5.57695 14.6292 5.89342 14.5091C6.44223 14.3009 7.08317 14.5771 7.29148 15.1136C7.52783 15.7221 7.21136 16.3947 6.57042 16.647H6.57442ZM6.43822 16.3147C6.89089 16.1345 7.12323 15.6661 6.95899 15.2417C6.81878 14.8854 6.39015 14.7012 6.02161 14.8414C5.80128 14.9214 5.63704 15.0776 5.54891 15.2817C5.46478 15.4699 5.46078 15.6741 5.53689 15.8663C5.69312 16.2706 6.07368 16.4588 6.43822 16.3147ZM6.40217 16.0104C6.21389 16.0825 6.05766 16.0825 5.94549 16.0104C5.8814 15.9664 5.80529 15.8823 5.80128 15.7181C5.79728 15.5059 5.94149 15.2737 6.0857 15.1416C6.20988 15.0255 6.38614 15.1056 6.51433 15.1616C6.53036 15.1696 6.54238 15.1737 6.55039 15.1777L6.61448 15.2017L6.65454 15.2657C6.75068 15.4539 6.77472 15.606 6.72665 15.7382C6.66255 15.9103 6.4943 15.9784 6.40217 16.0144V16.0104ZM6.15781 15.7061C6.18184 15.7061 6.2179 15.6981 6.26997 15.6781C6.36611 15.6381 6.38614 15.6181 6.39015 15.61C6.39416 15.598 6.39015 15.558 6.36211 15.4859C6.34208 15.4779 6.31003 15.4619 6.27798 15.4539C6.20588 15.538 6.1538 15.6421 6.1538 15.7101L6.15781 15.7061Z" fill="#00735E"/>
<path d="M9.30612 14.5811C9.04573 14.6852 8.76933 14.6812 8.52496 14.5811C8.25657 14.465 8.04425 14.2368 7.92007 13.9325C7.66369 13.312 7.89203 12.7795 8.55301 12.4792C8.81339 12.3591 9.12986 12.3551 9.39425 12.4632C9.58253 12.5393 9.8389 12.7114 9.97511 13.0878C10.1994 13.6883 9.907 14.3449 9.31012 14.5851H9.30211L9.30612 14.5811ZM8.73327 12.7875C8.73327 12.7875 8.71324 12.7955 8.70122 12.7995C8.22051 13.0197 8.06829 13.352 8.25256 13.7924C8.33669 14.0126 8.4849 14.1728 8.66517 14.2488C8.82541 14.3169 9.00167 14.3129 9.17793 14.2488C9.59855 14.0807 9.79884 13.6323 9.64261 13.2079C9.5665 13.0077 9.43431 12.8636 9.25805 12.7915C9.0938 12.7235 8.90152 12.7235 8.73327 12.7915V12.7875ZM9.0938 14.0046C9.0257 14.0326 8.93757 14.0286 8.83743 14.0006C8.79336 13.9886 8.58105 13.9165 8.50493 13.7644C8.43683 13.6243 8.43283 13.4681 8.49292 13.34C8.55701 13.2039 8.67719 13.1118 8.83743 13.0718C8.9536 13.0437 9.06176 13.0798 9.18995 13.1198C9.24603 13.1358 9.31012 13.1598 9.39024 13.1759L9.62659 13.2319L9.50241 13.4401C9.45834 13.5122 9.4263 13.5802 9.39425 13.6403C9.31814 13.7884 9.25404 13.9165 9.12585 13.9926C9.11383 14.0006 9.10582 14.0046 9.0938 14.0086V14.0046ZM8.89351 13.4241C8.85746 13.4361 8.83342 13.4601 8.8214 13.4881C8.80538 13.5202 8.80938 13.5602 8.82941 13.6042C8.84544 13.6203 8.92155 13.6523 8.96561 13.6643C8.99766 13.6283 9.03772 13.5522 9.07778 13.4761L9.08579 13.4561C9.0257 13.4361 8.94559 13.4121 8.92556 13.4161C8.91354 13.4161 8.90553 13.4201 8.89351 13.4241Z" fill="#00735E"/>
<path d="M4.9674 18.9771C4.39456 19.2013 3.83373 18.9531 3.59738 18.3725C3.48521 18.0963 3.48922 17.788 3.6134 17.5038C3.73759 17.2195 3.95391 17.0033 4.23031 16.8912C4.50272 16.7791 4.79515 16.7871 5.05954 16.8992C5.32794 17.0153 5.53224 17.2315 5.6444 17.5078C5.88876 18.1283 5.61636 18.7168 4.9674 18.9771ZM4.37052 17.2235H4.36652C4.17824 17.2996 4.02601 17.4517 3.94589 17.6439C3.86177 17.8401 3.85776 18.0522 3.93388 18.2404C4.09411 18.6408 4.45064 18.7969 4.83921 18.6448C5.3039 18.4606 5.48417 18.0763 5.31191 17.6399C5.23981 17.4517 5.0996 17.3076 4.91933 17.2275C4.74307 17.1514 4.55079 17.1514 4.37052 17.2195V17.2235ZM4.90331 18.5807L4.70702 18.4886C4.63491 18.4566 4.56281 18.4246 4.49871 18.3966C4.29842 18.3125 4.16622 18.2564 4.19026 18.0963C4.21429 17.9522 4.27037 17.82 4.32646 17.6919C4.34248 17.6519 4.36251 17.6118 4.37853 17.5718L4.45064 17.3917L4.62289 17.4757C4.65494 17.4917 4.695 17.5038 4.73105 17.5198C4.85924 17.5678 5.00746 17.6199 5.06355 17.76C5.11562 17.8921 5.06755 18.0322 5.01547 18.1764C4.99545 18.2324 4.97141 18.2965 4.95539 18.3685L4.8993 18.5767L4.90331 18.5807ZM4.57482 18.0402C4.59485 18.0482 4.61889 18.0603 4.63892 18.0683L4.67497 18.0843L4.68298 18.0643C4.69901 18.0122 4.72304 17.9482 4.73105 17.9081C4.71102 17.8961 4.67497 17.8841 4.64292 17.8721C4.61889 17.9321 4.59485 17.9882 4.57482 18.0442V18.0402Z" fill="#00735E"/>
<path d="M11.2532 27.7129C11.0129 27.809 10.7565 27.805 10.5122 27.7089C10.2357 27.5968 9.9994 27.3686 9.88723 27.0964C9.77507 26.8281 9.7991 26.4598 9.95133 26.1315C10.0755 25.8673 10.2558 25.6871 10.4601 25.6191C10.9368 25.4709 11.6058 25.551 11.9182 26.2796C12.0344 26.5479 12.0384 26.8361 11.9343 27.0924C11.8181 27.3646 11.5857 27.5808 11.2773 27.7049C11.2693 27.7049 11.2613 27.7129 11.2532 27.7169V27.7129ZM10.5562 25.9674C10.4561 26.0074 10.3519 26.1235 10.2798 26.2796C10.1717 26.5119 10.1476 26.7841 10.2197 26.9563C10.2958 27.1364 10.4601 27.2966 10.6484 27.3726C10.7605 27.4167 10.9368 27.4527 11.1411 27.3726H11.1451C11.3614 27.2805 11.5257 27.1364 11.6058 26.9523C11.6739 26.7881 11.6699 26.6039 11.5938 26.4198C11.5857 26.3998 11.5777 26.3837 11.5697 26.3677L11.4375 26.5759C11.3935 26.648 11.3574 26.712 11.3294 26.7721C11.2533 26.9162 11.1851 27.0443 11.0489 27.0804C10.8727 27.1284 10.5682 27.0163 10.4801 26.8361C10.396 26.656 10.5322 26.3517 10.6964 26.2516C10.8166 26.1796 10.9528 26.2156 11.109 26.2556C11.1691 26.2716 11.2412 26.2917 11.3214 26.3077L11.5617 26.3517C11.2773 25.7912 10.7365 25.9113 10.5722 25.9594C10.5682 25.9594 10.5602 25.9594 10.5562 25.9634V25.9674ZM10.8126 26.692C10.8406 26.708 10.9007 26.7321 10.9408 26.7361C10.9608 26.708 10.9889 26.652 11.0129 26.6079C10.9648 26.5879 10.9007 26.5719 10.8687 26.5679C10.8446 26.5959 10.8206 26.652 10.8126 26.692Z" fill="#00735E"/>
<path d="M21.4324 10.4134C21.152 10.5255 20.8516 10.5215 20.5832 10.4094C20.3228 10.2973 20.1265 10.0931 20.0264 9.82885C19.8341 9.3244 20.0905 8.67181 20.5511 8.48764C20.8836 8.36353 21.1761 8.34752 21.4284 8.45561C21.6848 8.56371 21.8811 8.78791 22.0093 9.11621C22.2256 9.65269 22.0013 10.1732 21.4525 10.4014C21.4445 10.4014 21.4364 10.4094 21.4284 10.4134H21.4324ZM20.6913 8.81994H20.6873C20.4069 8.93204 20.2427 9.38445 20.3629 9.70073C20.427 9.87289 20.5592 10.005 20.7274 10.0771C20.9117 10.1571 21.116 10.1531 21.3203 10.0691C21.6848 9.91693 21.825 9.60064 21.6848 9.24432C21.5927 9.00811 21.4605 8.85197 21.2922 8.77991C21.128 8.70784 20.9277 8.71985 20.6954 8.81194L20.6913 8.81994ZM21.2241 9.78081C21.2001 9.78881 21.1721 9.79682 21.144 9.79682C21.0078 9.79682 20.8836 9.75278 20.7715 9.71675C20.7314 9.70474 20.6913 9.68872 20.6553 9.67671L20.439 9.61266L20.5511 9.41648C20.5672 9.38845 20.5792 9.35643 20.5952 9.3244C20.6433 9.2123 20.7114 9.07217 20.8356 9.02813C20.9678 8.98009 21.0999 9.02012 21.2161 9.05616C21.2522 9.06817 21.2882 9.08018 21.3203 9.08418L21.4204 9.1042L21.5326 9.40847L21.4765 9.48454C21.4605 9.50456 21.4445 9.53258 21.4284 9.56061C21.3804 9.64468 21.3243 9.74077 21.2281 9.78081H21.2241ZM20.9477 9.39646C20.9958 9.41248 21.0399 9.42449 21.0839 9.43249C21.0919 9.42048 21.0999 9.40847 21.104 9.39646C21.0639 9.38445 20.9998 9.36443 20.9637 9.36043C20.9597 9.36844 20.9517 9.38045 20.9477 9.39646Z" fill="#00735E"/>
<path d="M16.7655 34.5231H16.7575C16.2728 34.7152 15.8522 34.5351 15.6599 34.0587C15.4676 33.5742 15.6919 32.9937 16.1446 32.8135C16.6534 32.6093 17.1341 32.8135 17.3344 33.314C17.4305 33.5582 17.4345 33.7984 17.3424 34.0106C17.2462 34.2348 17.0459 34.411 16.7655 34.5231ZM16.2768 33.1458C16.0124 33.2499 15.8762 33.6303 15.9964 33.9265C16.1126 34.2228 16.3289 34.3109 16.6293 34.1948C16.8136 34.1227 16.9578 34.0066 17.0179 33.8705C17.07 33.7464 17.066 33.6062 17.0059 33.4501C16.8817 33.1378 16.6013 33.0217 16.2808 33.1498L16.2768 33.1458Z" fill="#00735E"/>
<path d="M19.0089 35.5C18.8086 35.58 18.5923 35.576 18.396 35.492C18.1957 35.4079 18.0435 35.2437 17.9634 35.0395C17.8112 34.6392 18.0355 34.0587 18.396 33.9145C18.5803 33.8425 18.8127 33.8425 19.017 33.9346C19.2333 34.0266 19.4055 34.1988 19.4856 34.407C19.6579 34.8474 19.4576 35.3158 19.029 35.496L19.0129 35.504L19.0089 35.5ZM18.5322 34.2468C18.368 34.3149 18.2158 34.6832 18.2999 34.9154C18.344 35.0315 18.4281 35.1196 18.5362 35.1677C18.6484 35.2157 18.7686 35.2157 18.8848 35.1677C19.1331 35.0636 19.2493 34.7913 19.1491 34.5391C19.1051 34.423 19.0049 34.3229 18.8727 34.2669C18.7566 34.2148 18.6324 34.2148 18.5282 34.2508L18.5322 34.2468Z" fill="#00735E"/>
<path d="M28.434 34.6672H28.422C28.1015 34.7553 27.8291 34.6272 27.6929 34.3229C27.6128 34.1427 27.6128 33.9185 27.6929 33.7384C27.761 33.5902 27.8692 33.4901 28.0014 33.4501C28.3298 33.354 28.6303 33.4741 28.7985 33.7824C28.8746 33.9145 28.8867 34.0787 28.8306 34.2388C28.7665 34.427 28.6223 34.5871 28.442 34.6632H28.43L28.434 34.6672ZM28.1015 33.7984C28.0695 33.8104 28.0414 33.8425 28.0214 33.8905C27.9813 33.9786 27.9773 34.0947 28.0214 34.1788C28.0855 34.3189 28.1736 34.3669 28.3178 34.3309C28.4019 34.2909 28.47 34.2148 28.4981 34.1227C28.5181 34.0587 28.5181 33.9986 28.4941 33.9546C28.4059 33.7944 28.2778 33.7424 28.1095 33.7904H28.1055L28.1015 33.7984Z" fill="#00735E"/>
<path d="M26.4837 35.6601C26.4837 35.6601 26.4677 35.6641 26.4637 35.6681C26.1432 35.7802 25.8628 35.6601 25.7066 35.3478L25.6986 35.3358C25.6184 35.1396 25.6265 34.9034 25.7186 34.7192C25.7867 34.5791 25.8989 34.483 26.027 34.451C26.3635 34.3589 26.656 34.491 26.8162 34.8073C26.8923 34.9555 26.8963 35.1356 26.8282 35.3078C26.7601 35.4759 26.6359 35.6 26.4837 35.6601ZM26.027 35.1957C26.1232 35.3798 26.2394 35.3678 26.3435 35.3318C26.4036 35.3078 26.4637 35.2517 26.4957 35.1757C26.5238 35.1036 26.5278 35.0275 26.4957 34.9715C26.4116 34.8073 26.2914 34.7513 26.1192 34.7993C26.0911 34.8073 26.0591 34.8394 26.0351 34.8834C25.991 34.9755 25.987 35.0956 26.023 35.1997L26.027 35.1957Z" fill="#00735E"/>
<path d="M21.4042 36.1405C21.26 36.1966 21.0997 36.1966 20.9555 36.1325C20.8073 36.0685 20.6911 35.9443 20.631 35.7842C20.5629 35.608 20.5709 35.3999 20.6511 35.2237C20.7151 35.0796 20.8273 34.9755 20.9555 34.9234C21.2519 34.8153 21.6365 34.9875 21.7607 35.2918C21.8248 35.4439 21.8208 35.6241 21.7527 35.7842C21.6846 35.9483 21.5564 36.0765 21.4042 36.1365V36.1405ZM21.0797 35.2637C21.0436 35.2797 21.0076 35.3198 20.9795 35.3758C20.9395 35.4639 20.9355 35.576 20.9675 35.6601C20.9916 35.7282 21.0396 35.7802 21.0997 35.8082C21.1398 35.8242 21.1999 35.8403 21.272 35.8082C21.3361 35.7842 21.3921 35.7241 21.4202 35.6481C21.4482 35.572 21.4562 35.4919 21.4282 35.4279C21.3761 35.3038 21.1959 35.2157 21.0757 35.2597L21.0797 35.2637Z" fill="#00735E"/>
<path d="M23.8838 36.2646H23.8757L23.8477 36.2767C23.403 36.3607 23.2148 36.1205 23.1346 35.9083C23.0265 35.6241 23.1306 35.1837 23.4151 35.0636C23.6835 34.9435 24.1481 35.1516 24.2723 35.4359C24.3284 35.564 24.3204 35.7322 24.2523 35.8923C24.1762 36.0685 24.04 36.2046 23.8878 36.2686L23.8838 36.2646ZM23.5553 35.3919C23.4912 35.4199 23.4111 35.6321 23.4711 35.7842C23.5152 35.9003 23.5753 35.9604 23.7636 35.9283C23.8277 35.9003 23.8878 35.8323 23.9238 35.7482C23.9559 35.6721 23.9599 35.6081 23.9438 35.576C23.8998 35.4679 23.6394 35.3598 23.5593 35.3919H23.5553Z" fill="#00735E"/>
<path d="M29.7328 33.6183C29.5726 33.6823 29.3482 33.5662 29.2841 33.5262C29.204 33.4781 29.0959 33.4021 29.0879 33.282C29.0758 33.0618 29.18 32.7615 29.3643 32.6414C29.5085 32.5493 29.6887 32.6094 29.845 32.6654C29.8971 32.6814 29.9451 32.7014 29.9892 32.7135L30.0813 32.7335L30.1975 33.0418L30.1414 33.1178C30.1134 33.1579 30.0853 33.2059 30.0613 33.2499C29.9852 33.3821 29.8971 33.5302 29.7488 33.6103C29.7408 33.6103 29.7328 33.6183 29.7288 33.6183H29.7328ZM29.4484 33.2099C29.4925 33.2379 29.5686 33.27 29.6126 33.278C29.6607 33.2379 29.7128 33.1539 29.7609 33.0698C29.7689 33.0538 29.7809 33.0378 29.7889 33.0217C29.7689 33.0137 29.7488 33.0097 29.7328 33.0017C29.6807 32.9817 29.5926 32.9537 29.5525 32.9497C29.5085 32.9937 29.4644 33.1058 29.4524 33.2099H29.4484Z" fill="#00735E"/>
<path d="M25.9587 39.9039C25.9346 39.9159 25.9066 39.9239 25.8826 39.9319C25.2096 40.1441 24.3323 39.8799 24.0318 38.9711C23.8956 38.5987 23.9117 38.1904 24.0799 37.826C24.2522 37.4537 24.5646 37.1695 24.9492 37.0333C25.7063 36.7571 26.5756 37.1414 26.844 37.8741C26.9842 38.2544 26.9481 38.7269 26.7438 39.1432C26.5676 39.5076 26.2832 39.7798 25.9627 39.9079L25.9587 39.9039ZM25.0333 37.3776C24.7529 37.4897 24.5286 37.6979 24.4004 37.9742C24.2722 38.2504 24.2602 38.5627 24.3643 38.847V38.855C24.5967 39.5556 25.2456 39.7558 25.7704 39.5916C26.0348 39.5076 26.2671 39.2874 26.4153 38.9831C26.5756 38.6548 26.6076 38.2825 26.5035 37.9942C26.3032 37.4537 25.6302 37.1615 25.0654 37.3656C25.0533 37.3656 25.0453 37.3736 25.0333 37.3776ZM25.7464 39.2794C25.2576 39.4715 24.809 39.2834 24.5967 38.7949C24.4164 38.3745 24.6527 37.794 25.0854 37.6018C25.2616 37.5258 25.498 37.5298 25.7303 37.6259C25.9867 37.734 26.191 37.9221 26.2711 38.1343C26.4434 38.5827 26.2231 39.0832 25.7624 39.2713L25.7464 39.2794ZM25.2416 37.9261H25.2336C24.9812 38.0422 24.821 38.4146 24.9251 38.6548C25.0613 38.9671 25.3217 39.0712 25.6262 38.9431C25.9026 38.831 26.0388 38.5307 25.9346 38.2624C25.8906 38.1463 25.7544 38.0262 25.5941 37.9582C25.4619 37.9021 25.3297 37.8901 25.2416 37.9261Z" fill="#00735E"/>
<path d="M29.0436 39.5396C28.7111 39.6717 28.3346 39.6637 28.0061 39.5196C27.6736 39.3754 27.4252 39.0992 27.2971 38.7509C26.9405 37.9261 27.4413 37.0934 28.1103 36.7971C28.4748 36.633 28.8754 36.621 29.2239 36.7571C29.5684 36.8932 29.8408 37.1655 29.989 37.5218C30.1372 37.8701 30.1372 38.2584 29.989 38.6188C29.8248 39.0231 29.4883 39.3554 29.0637 39.5316C29.0557 39.5316 29.0476 39.5396 29.0396 39.5436L29.0436 39.5396ZM28.3065 37.1014C28.3065 37.1014 28.2745 37.1134 28.2585 37.1214C27.7417 37.3496 27.3571 37.9862 27.6295 38.6108V38.6228C27.7257 38.883 27.9059 39.0832 28.1503 39.1913C28.3987 39.2994 28.6791 39.3034 28.9315 39.1993C29.268 39.0592 29.5364 38.7949 29.6646 38.4786C29.7767 38.2064 29.7767 37.9221 29.6646 37.6579C29.5524 37.3897 29.3481 37.1895 29.0957 37.0894C28.8513 36.9933 28.5749 36.9973 28.3065 37.1014ZM28.8433 38.927L28.8193 38.9351C28.4027 39.0912 28.0622 38.9471 27.91 38.5547C27.8178 38.3145 27.8298 38.0382 27.938 37.798C28.0381 37.5818 28.1944 37.4217 28.4027 37.3456C28.8433 37.1855 29.26 37.3656 29.4202 37.79C29.5003 38.0022 29.4923 38.2264 29.4002 38.4266C29.3 38.6468 29.0997 38.823 28.8433 38.927ZM28.5149 37.6859C28.4107 37.726 28.3186 37.8221 28.2625 37.9462C28.1944 38.0983 28.1864 38.2785 28.2424 38.4266C28.2945 38.5667 28.3947 38.7109 28.6951 38.5988C28.8754 38.5307 29.0116 38.4186 29.0757 38.2745C29.1278 38.1624 29.1318 38.0342 29.0837 37.9101C28.9956 37.6739 28.7832 37.5858 28.5269 37.6779H28.5189L28.5149 37.6859Z" fill="#00735E"/>
<path d="M31.0906 27.4968C30.9824 27.5408 30.8502 27.5568 30.702 27.5408C30.2093 27.4847 29.7406 27.5888 29.2438 27.7009C29.1437 27.725 29.0435 27.745 28.9474 27.765C28.703 27.817 28.5228 27.797 28.3946 27.7009C28.3265 27.6529 28.2464 27.5568 28.2303 27.3887C28.2143 27.2085 28.3065 27.0484 28.3986 26.8922C28.4306 26.8362 28.4627 26.7801 28.4907 26.7241L28.5348 26.632L29.0796 26.5799C29.6324 26.5279 30.1492 26.4798 30.6699 26.4318C30.742 26.4238 30.8182 26.4318 30.8823 26.4598L30.9544 26.4838C31.1426 26.5479 31.4952 26.668 31.4311 27.0764C31.399 27.2766 31.2788 27.4247 31.0986 27.4968H31.0906ZM28.7631 26.9683C28.7431 27.0043 28.7231 27.0363 28.703 27.0724C28.643 27.1725 28.5749 27.2886 28.5829 27.3566C28.5829 27.3847 28.5909 27.4047 28.6029 27.4127C28.6149 27.4207 28.675 27.4567 28.8673 27.4127C28.9634 27.3927 29.0636 27.3686 29.1597 27.3486C29.6645 27.2365 30.1852 27.1164 30.738 27.1805C30.8502 27.1925 31.0385 27.1885 31.0665 27.0163C31.0785 26.9322 31.0705 26.9042 30.8262 26.8201C30.7981 26.8121 30.7701 26.8001 30.7461 26.7921C30.73 26.7881 30.71 26.7841 30.69 26.7841C30.1732 26.8322 29.6564 26.8802 29.1036 26.9322L28.7591 26.9643L28.7631 26.9683Z" fill="#00735E"/>
<path d="M30.6416 18.5367H30.6376C30.0768 18.7569 29.5239 18.5087 29.2956 17.9321C29.0633 17.3396 29.3276 16.4708 29.8003 16.2666C30.0647 16.1545 30.3932 16.1625 30.7057 16.2907C31.0342 16.4268 31.2905 16.671 31.4067 16.9593C31.5189 17.2315 31.5109 17.5398 31.3867 17.828C31.2465 18.1483 30.9781 18.4086 30.6456 18.5407L30.6416 18.5367ZM30.5054 18.2044C30.7497 18.1043 30.95 17.9161 31.0502 17.6839C31.1343 17.4837 31.1423 17.2755 31.0702 17.0914C30.9901 16.8952 30.8018 16.715 30.5615 16.619C30.3371 16.5269 30.1128 16.5189 29.9365 16.5949C29.6722 16.711 29.4558 17.3756 29.6241 17.8C29.7763 18.1884 30.1288 18.3525 30.5014 18.2044H30.5054ZM30.5094 17.9442C30.5094 17.9442 30.4854 17.9522 30.4733 17.9562C30.3251 18.0042 30.1408 17.9081 30.0727 17.8641C29.9526 17.788 29.8805 17.7039 29.8684 17.6119C29.8444 17.4437 29.8965 17.2796 29.9405 17.1354C29.9566 17.0834 29.9726 17.0313 29.9846 16.9793L30.0287 16.7871L30.7818 17.0473L30.8098 17.1314C30.8819 17.3476 30.8819 17.5318 30.8098 17.6839C30.7497 17.804 30.6496 17.8921 30.5134 17.9482L30.5094 17.9442ZM30.3772 17.6119C30.4293 17.5918 30.4693 17.5598 30.4894 17.5198C30.5134 17.4717 30.5174 17.4037 30.4974 17.3196L30.2811 17.2475C30.249 17.3516 30.221 17.4517 30.225 17.5318C30.261 17.5638 30.3371 17.6038 30.3772 17.6078V17.6119Z" fill="#00735E"/>
<path d="M31.0666 16.2787C30.8383 16.3707 30.5979 16.3667 30.3896 16.2787C30.1813 16.1866 30.0211 16.0144 29.933 15.7902C29.7527 15.3298 29.969 14.7693 30.3976 14.5891C30.6099 14.5051 30.8463 14.5011 31.0586 14.5891C31.295 14.6892 31.4792 14.8814 31.5794 15.1336C31.6795 15.3859 31.6875 15.6141 31.5994 15.8102C31.5113 16.0144 31.335 16.1706 31.0706 16.2706L31.0666 16.2787ZM30.5378 14.9174H30.5298C30.2815 15.0215 30.1533 15.3818 30.2614 15.6581C30.3135 15.7942 30.4056 15.8943 30.5298 15.9464C30.65 15.9984 30.7942 15.9984 30.9344 15.9464C31.1027 15.8783 31.2148 15.7862 31.2629 15.6741C31.311 15.566 31.303 15.4299 31.2389 15.2697C31.1748 15.1056 31.0586 14.9855 30.9104 14.9214C30.7902 14.8694 30.654 14.8694 30.5338 14.9174H30.5378Z" fill="#00735E"/>
<path d="M57.3331 9.15625C57.4092 9.23232 57.4453 9.34042 57.4453 9.47654V30.5195C57.4453 30.6476 57.4092 30.7517 57.3331 30.8278C57.257 30.9038 57.1489 30.9399 57.0127 30.9399H54.513C54.3728 30.9399 54.2646 30.9038 54.1845 30.8278C54.1044 30.7517 54.0643 30.6516 54.0643 30.5195V21.5834H42.5633V30.5195C42.5633 30.7997 42.4231 30.9399 42.1427 30.9399H39.627C39.4868 30.9399 39.3786 30.9038 39.3065 30.8278C39.2304 30.7517 39.1943 30.6516 39.1943 30.5195V9.48055C39.1943 9.34042 39.2304 9.23232 39.3065 9.16026C39.3826 9.08419 39.4868 9.04816 39.627 9.04816H42.1427C42.4231 9.04816 42.5633 9.19229 42.5633 9.48055V18.3565H54.0643V9.48055C54.0643 9.19229 54.2125 9.04816 54.513 9.04816H57.0127C57.1529 9.04816 57.261 9.08419 57.3331 9.16026V9.15625Z" fill="#00735E"/>
<path d="M62.473 14.3209C63.4745 12.5913 64.8445 11.2221 66.5751 10.2212C68.3056 9.2203 70.2125 8.71585 72.2875 8.71585C74.3626 8.71585 76.2694 9.2163 78 10.2212C79.7305 11.2261 81.1005 12.5913 82.102 14.3209C83.1035 16.0505 83.6082 17.9602 83.6082 20.046C83.6082 22.1319 83.1075 24.0216 82.102 25.7432C81.0965 27.4647 79.7305 28.8259 78 29.8228C76.2694 30.8197 74.3626 31.3202 72.2875 31.3202C70.2125 31.3202 68.3056 30.8197 66.5751 29.8228C64.8445 28.8259 63.4745 27.4647 62.473 25.7432C61.4715 24.0216 60.9668 22.1239 60.9668 20.046C60.9668 17.9682 61.4675 16.0505 62.473 14.3209ZM65.4013 24.0416C66.0984 25.2507 67.0558 26.2036 68.2696 26.9002C69.4834 27.6008 70.8214 27.9492 72.2915 27.9492C73.7617 27.9492 75.0837 27.6008 76.2974 26.9002C77.5112 26.2036 78.4687 25.2507 79.1737 24.0416C79.8787 22.8326 80.2313 21.5034 80.2313 20.046C80.2313 18.5887 79.8787 17.2515 79.1737 16.0344C78.4687 14.8173 77.5112 13.8565 76.2974 13.1518C75.0837 12.4472 73.7497 12.0949 72.2915 12.0949C70.8334 12.0949 69.4834 12.4472 68.2696 13.1518C67.0558 13.8565 66.0984 14.8173 65.4013 16.0344C64.7043 17.2515 64.3518 18.5887 64.3518 20.046C64.3518 21.5034 64.7003 22.8366 65.4013 24.0416Z" fill="#00735E"/>
<path d="M102.391 30.5235C102.391 30.6436 102.351 30.7437 102.271 30.8238C102.191 30.9038 102.087 30.9439 101.955 30.9439H99.2147C99.0745 30.9439 98.9584 30.9078 98.8622 30.8398C98.7661 30.7717 98.6699 30.6516 98.5698 30.4794L94.9324 23.5812H90.4859V30.3754C90.4859 30.5555 90.4378 30.6956 90.3417 30.7957C90.2455 30.8958 90.1093 30.9439 89.929 30.9439H87.6697C87.3092 30.9439 87.1289 30.7557 87.1289 30.3754V9.62868C87.1289 9.46053 87.177 9.3204 87.2771 9.21631C87.3773 9.11221 87.5055 9.06017 87.6657 9.06017H94.676C96.1342 9.06017 97.4361 9.36444 98.5858 9.97299C99.7355 10.5815 100.629 11.4383 101.266 12.5473C101.903 13.6563 102.223 14.9214 102.223 16.3507C102.223 17.78 101.875 19.1292 101.182 20.2502C100.489 21.3712 99.5312 22.224 98.3134 22.8005L102.327 30.2993C102.367 30.3673 102.387 30.4434 102.387 30.5235H102.391ZM90.4859 20.3743H94.6801C95.4772 20.3743 96.1943 20.1982 96.8312 19.8499C97.4642 19.5016 97.9609 19.0211 98.3134 18.4126C98.6659 17.804 98.8462 17.1154 98.8462 16.3467C98.8462 15.578 98.6699 14.8534 98.3134 14.2368C97.9609 13.6203 97.4642 13.1358 96.8312 12.7835C96.1983 12.4352 95.4812 12.259 94.6801 12.259H90.4859V20.3703V20.3743Z" fill="#00735E"/>
<path d="M124.528 30.5555C124.528 30.6836 124.484 30.7837 124.4 30.8558C124.316 30.9238 124.192 30.9599 124.032 30.9599H121.516C121.376 30.9599 121.248 30.9158 121.135 30.8238C121.019 30.7357 120.939 30.6156 120.887 30.4634L119.253 26.1836H109.606L107.988 30.4514C107.94 30.5996 107.852 30.7197 107.728 30.8117C107.603 30.8998 107.471 30.9479 107.331 30.9479H104.831C104.511 30.9479 104.351 30.8238 104.351 30.5755C104.351 30.4875 104.371 30.3954 104.411 30.3073L112.827 9.56061C112.887 9.40047 112.979 9.27636 113.104 9.18828C113.228 9.1002 113.364 9.05215 113.516 9.05215H115.375C115.523 9.05215 115.659 9.1002 115.787 9.19228C115.912 9.28837 116 9.40847 116.048 9.56061L124.464 30.3073C124.504 30.4274 124.524 30.5115 124.524 30.5635L124.528 30.5555ZM118.163 23.297L114.433 13.4922L110.704 23.297H118.163Z" fill="#00735E"/>
<path d="M146.288 9.48055V30.5235C146.288 30.8037 146.144 30.9439 145.856 30.9439H143.476C143.136 30.9439 142.867 30.7957 142.667 30.4955L130.954 14.0447V30.5235C130.954 30.8037 130.813 30.9439 130.533 30.9439H128.033C127.745 30.9439 127.601 30.8037 127.601 30.5235V9.48055C127.601 9.19229 127.745 9.04816 128.033 9.04816H130.625C130.934 9.04816 131.206 9.21631 131.434 9.55661L142.935 25.4669V9.48055C142.935 9.19229 143.075 9.04816 143.356 9.04816H145.856C146.144 9.04816 146.288 9.19229 146.288 9.48055Z" fill="#00735E"/>
<path d="M163.381 27.5768C164.187 27.3166 164.864 27.0043 165.412 26.632V21.3632C165.412 21.1951 165.464 21.0469 165.569 20.9308C165.673 20.8107 165.805 20.7507 165.965 20.7507H168.076C168.224 20.7507 168.357 20.8107 168.465 20.9308C168.573 21.0509 168.629 21.1951 168.629 21.3632V28.5497C168.629 28.6698 168.597 28.7899 168.541 28.91C168.481 29.0301 168.413 29.1182 168.333 29.1783C167.475 29.7788 166.362 30.2873 164.992 30.7036C163.622 31.124 162.376 31.3322 161.246 31.3322C159.151 31.3322 157.228 30.8318 155.482 29.8268C153.735 28.8259 152.353 27.4607 151.34 25.7352C150.326 24.0096 149.821 22.1039 149.821 20.018C149.821 17.9321 150.326 16.0424 151.34 14.3169C152.353 12.5913 153.731 11.2261 155.474 10.2252C157.216 9.2243 159.135 8.71985 161.234 8.71985C162.372 8.71985 163.562 8.91603 164.799 9.31238C166.037 9.70473 167.111 10.2732 168.02 11.0099C168.18 11.138 168.261 11.2942 168.261 11.4743C168.261 11.6024 168.224 11.7105 168.156 11.7906L166.866 13.7203C166.778 13.8685 166.642 13.9446 166.462 13.9446C166.322 13.9446 166.197 13.8965 166.085 13.7964C165.408 13.2199 164.631 12.7875 163.758 12.5113C162.885 12.231 162.047 12.0909 161.25 12.0909C159.772 12.0909 158.418 12.4432 157.192 13.1478C155.966 13.8525 154.993 14.8093 154.28 16.0224C153.567 17.2355 153.21 18.5687 153.21 20.026C153.21 21.4833 153.567 22.8326 154.28 24.0456C154.993 25.2587 155.966 26.2156 157.192 26.9202C158.418 27.6249 159.772 27.9772 161.25 27.9772C161.867 27.9772 162.58 27.8491 163.385 27.5888L163.381 27.5768Z" fill="#00735E"/>
<path d="M175 30.6517C175 30.885 174.875 31 174.624 31H172.376C172.261 31 172.168 30.9689 172.1 30.9067C172.032 30.8445 172 30.7605 172 30.6517V14.3484C172 14.1151 172.125 14 172.376 14H174.624C174.875 14 175 14.1151 175 14.3484V30.6517Z" fill="#00735E"/>
<path d="M175 11.9386C175 11.9797 174.875 12 174.624 12H172.376C172.261 12 172.168 11.9945 172.1 11.9836C172.032 11.9726 172 11.9578 172 11.9386V9.0615C172 9.02034 172.125 9.00003 172.376 9.00003H174.624C174.875 9.00003 175 9.02034 175 9.0615V11.9386Z" fill="#00735E"/>
</g>
<defs>
<clipPath id="clip0_416_45592">
<rect width="176" height="40" fill="white"/>
</clipPath>
</defs>
</svg>
