<svg width="309" height="235" viewBox="0 0 309 235" fill="none" xmlns="http://www.w3.org/2000/svg">
<g clip-path="url(#clip0_703_4947)">
<path d="M237.438 125.494C235.059 124.438 189.945 104.431 150.908 128.716C121.095 147.261 109.347 175.394 105.85 207.035C123.279 226.285 144.782 233.732 174.595 215.187C213.621 190.904 236.246 128.765 237.438 125.494Z" fill="url(#paint0_linear_703_4947)"/>
<path d="M213.571 142.528L226.854 149.842C227.554 148.429 228.226 147.054 228.848 145.718L218.02 139.759L227.111 134.105L232.717 137.19C233.378 135.661 233.976 134.23 234.507 132.963L229.418 130.158L231.543 123.189C230.561 122.842 229.478 122.476 228.293 122.102L225.921 129.757L216.83 135.411L221.554 120.192C220.473 119.925 219.358 119.651 218.201 119.395L212.369 138.17L203.289 143.823L211.28 118.085C210.155 117.901 209.012 117.742 207.836 117.588L198.841 146.592L189.76 152.244L200.719 116.935C199.555 116.867 198.372 116.813 197.169 116.784L185.301 155.015L176.221 160.667L189.812 116.872C188.6 116.932 187.369 117.017 186.143 117.135L171.773 163.436L162.682 169.09L178.487 118.17C177.211 118.405 175.937 118.662 174.648 118.965L158.234 171.86L149.154 177.512L166.605 121.269C165.251 121.736 163.891 122.248 162.536 122.792L144.694 180.283L135.614 185.935L153.922 126.944C152.913 127.506 151.908 128.089 150.909 128.716C150.429 129.015 149.962 129.324 149.494 129.622L131.155 188.706L122.075 194.358L140.008 136.568C138.27 138.016 136.616 139.508 135.033 141.034L116.803 199.783L116.634 200.237L116.987 200.463L158.16 223.135C159.982 222.525 161.835 221.811 163.727 220.981L123.276 198.705L132.356 193.052L173.614 215.778C173.941 215.577 174.271 215.398 174.596 215.187C175.738 214.474 176.865 213.73 177.977 212.955L136.804 190.283L145.884 184.631L185.974 206.704C187.19 205.649 188.38 204.565 189.555 203.45L150.344 181.86L159.424 176.208L196.301 196.515C197.347 195.351 198.369 194.18 199.377 192.989L163.872 173.439L172.963 167.785L205.256 185.569C206.181 184.334 207.082 183.092 207.971 181.841L177.411 165.016L186.491 159.363L213.214 174.079C214.041 172.781 214.857 171.485 215.653 170.202L190.952 156.603L200.032 150.951L220.377 162.15C221.13 160.796 221.862 159.456 222.575 158.141L204.48 148.182L213.561 142.529L213.571 142.528Z" fill="url(#paint1_linear_703_4947)"/>
<g style="mix-blend-mode:color-burn">
<path d="M231.569 128.739C229.379 127.767 187.794 109.328 151.819 131.712C124.342 148.802 113.516 174.741 110.289 203.892C126.363 221.633 146.175 228.501 173.651 211.4C209.626 189.016 230.472 131.743 231.568 128.729L231.569 128.739Z" fill="#C6CED6"/>
</g>
<path d="M237.438 125.494C237.208 126.145 236.119 129.125 234.219 133.677C231.749 139.612 227.91 148.202 222.78 157.781C212.059 177.775 195.736 202.038 174.596 215.187C160.729 223.811 148.668 226.814 137.978 225.616L151.688 227.139C162.387 228.325 174.448 225.321 188.305 216.71C196.61 211.542 204.285 204.741 210.961 196.987C240.086 163.169 237.449 125.493 237.449 125.493L237.438 125.494Z" fill="url(#paint2_linear_703_4947)"/>
<path d="M158.106 223.153C159.417 223.951 161.403 225.206 163.694 226.738C165.612 226.412 167.579 225.958 169.573 225.379C167.851 224.109 165.706 222.513 163.704 220.984C161.801 221.815 159.929 222.543 158.106 223.153V223.153Z" fill="url(#paint3_linear_703_4947)"/>
<path d="M174.595 215.187C174.269 215.398 173.94 215.577 173.613 215.778C174.921 216.874 177.25 218.909 179.893 221.363C181.328 220.675 182.786 219.917 184.256 219.092C182.573 217.463 180.49 215.438 177.946 212.981C176.844 213.744 175.728 214.486 174.595 215.187V215.187Z" fill="url(#paint4_linear_703_4947)"/>
<path d="M186.054 206.649C187.52 208.463 190.318 211.623 192.453 213.939C193.664 213.084 194.859 212.187 196.039 211.27C194.24 208.741 191.343 205.671 189.585 203.435C188.431 204.536 187.25 205.608 186.054 206.649Z" fill="url(#paint5_linear_703_4947)"/>
<path d="M206.06 202.294C204.252 199.777 201.395 195.808 199.357 193.003C198.358 194.182 197.346 195.351 196.31 196.502C198.119 199.019 200.785 202.739 202.773 205.506C203.891 204.465 204.993 203.383 206.069 202.281L206.06 202.294Z" fill="url(#paint6_linear_703_4947)"/>
<path d="M215.162 191.758C213.293 188.974 210.426 185.006 207.972 181.851C207.093 183.091 206.191 184.333 205.265 185.557C206.862 187.672 209.731 191.497 212.437 195.178C213.375 194.041 214.279 192.898 215.151 191.759L215.162 191.758Z" fill="url(#paint7_linear_703_4947)"/>
<path d="M223.381 179.293C221.453 176.948 218.903 173.896 215.654 170.213C214.869 171.494 214.062 172.778 213.224 174.078C214.928 176.09 217.508 179.193 220.897 183.474C221.766 182.082 222.59 180.685 223.383 179.304L223.381 179.293Z" fill="url(#paint8_linear_703_4947)"/>
<path d="M229.945 165.548C228.279 163.807 225.697 161.157 222.566 158.153C221.863 159.467 221.129 160.796 220.377 162.15C222.996 164.828 225.387 167.383 227.964 170.233C228.674 168.654 229.341 167.091 229.945 165.548V165.548Z" fill="url(#paint9_linear_703_4947)"/>
<path d="M233.357 155.506C233.788 153.998 234.188 152.507 234.541 151.077C233.097 149.414 231.209 147.594 228.843 145.763C228.219 147.088 227.557 148.451 226.866 149.851C228.723 151.135 230.885 152.851 233.357 155.506V155.506Z" fill="url(#paint10_linear_703_4947)"/>
<path d="M237.193 134.859C236.368 134.202 235.48 133.565 234.508 132.974C234.408 133.209 234.319 133.442 234.219 133.677C233.772 134.756 233.273 135.941 232.728 137.188C233.702 137.802 235.044 138.662 236.662 139.748C236.901 137.98 237.07 136.344 237.193 134.859V134.859Z" fill="url(#paint11_linear_703_4947)"/>
</g>
<path d="M141.718 17.0947C138.778 18.9642 82.9886 54.5482 59.5031 106.989C41.5684 147.041 46.916 173.682 62.3723 193.723C90.791 185.968 116.145 167.931 134.072 127.879C157.55 75.4375 142.508 20.0099 141.71 17.0947H141.718Z" fill="url(#paint12_linear_703_4947)"/>
<path d="M128.669 50.2943L145.947 40.5586C145.783 39.109 145.611 37.7148 145.431 36.376L131.343 44.3135L136.808 32.1062L144.102 27.9949C143.836 26.5136 143.571 25.1669 143.32 23.9628L136.597 27.5355L134.611 21.8953C133.454 22.7191 132.18 23.6301 130.796 24.652L133.048 31.0606L127.583 43.2678L123.103 30.5298C121.899 31.4804 120.656 32.4865 119.374 33.5321L124.901 49.2566L119.436 61.4638L111.861 39.9091C110.664 40.9626 109.453 42.0479 108.217 43.1648L116.755 67.4446L111.29 79.6519L100.9 50.0804C99.7191 51.237 98.5385 52.4173 97.358 53.6214L108.608 85.6327L103.143 97.8399L90.2592 61.1707C89.1177 62.4382 87.9763 63.7373 86.8427 65.0523L100.47 103.821L95.0048 116.028L80.0253 73.3938C78.923 74.8118 77.8363 76.2535 76.7652 77.719L92.331 122.009L86.8661 134.216L70.3153 87.122C69.2755 88.7459 68.2591 90.3936 67.2662 92.0651L84.1845 140.205L78.7197 152.412L61.3636 103.029C60.7225 104.352 60.097 105.674 59.495 107.021C59.2058 107.663 58.94 108.297 58.6663 108.938L76.0537 158.401L70.5889 170.608L53.5846 122.231C52.7558 124.758 52.0366 127.221 51.4033 129.637L68.6891 178.823L68.8376 179.179L69.2755 178.981L122.821 148.816C124.229 146.637 125.605 144.38 126.949 142.019L74.3416 171.662L79.8064 159.454L133.47 129.218C133.673 128.782 133.876 128.354 134.072 127.91C134.76 126.374 135.409 124.837 136.034 123.3L82.488 153.466L87.9528 141.258L140.092 111.885C140.639 110.103 141.155 108.32 141.632 106.538L90.6344 135.27L96.0993 123.062L144.063 96.0417C144.392 94.3782 144.681 92.7146 144.954 91.0669L98.7809 117.082L104.246 104.874L146.252 81.2045C146.416 79.6202 146.557 78.0517 146.674 76.4911L106.927 98.8856L112.392 86.6784L147.144 67.0961C147.183 65.5751 147.198 64.07 147.198 62.5887L115.074 80.6896L120.539 68.4824L146.995 53.5739C146.925 52.0925 146.846 50.6508 146.745 49.2407L123.212 62.5015L128.677 50.2943H128.669Z" fill="url(#paint13_linear_703_4947)"/>
<g style="mix-blend-mode:color-burn">
<path d="M138.536 24.1053C135.823 25.8322 84.349 58.6595 62.6851 107.045C46.1421 143.999 51.0753 168.572 65.3277 187.061C91.5495 179.908 114.933 163.265 131.484 126.31C153.148 77.9249 139.263 26.7908 138.536 24.0974V24.1053Z" fill="#C6CED6"/>
</g>
<path d="M62.3799 193.723L71.6912 201.629C100.11 193.874 125.464 175.836 143.391 135.784C148.113 125.233 151.279 114.57 153.312 104.233C161.396 63.1747 141.718 17.1025 141.718 17.1025C142.507 20.0177 157.557 75.4454 134.079 127.887C116.145 167.938 90.7986 185.984 62.3799 193.731V193.723Z" fill="url(#paint14_linear_703_4947)"/>
<path d="M122.813 148.816C124.432 155.304 125.823 160.912 126.699 164.477C128.224 162.473 129.709 160.365 131.171 158.171C130.139 154.179 128.708 148.657 126.965 141.987C125.612 144.364 124.229 146.637 122.813 148.816Z" fill="url(#paint15_linear_703_4947)"/>
<path d="M134.08 127.879C133.892 128.299 133.696 128.703 133.509 129.123C135.706 136.909 136.081 138.24 138.301 146.194C139.279 144.356 140.232 142.463 141.178 140.514C139.419 134.47 139.232 133.812 136.104 123.118C135.463 124.71 134.791 126.294 134.08 127.879Z" fill="url(#paint16_linear_703_4947)"/>
<path d="M140.029 112.059C140.944 115.529 142.899 123.023 144.845 132.386C145.697 130.335 146.487 128.291 147.222 126.239C146.268 122.508 144.415 115.466 141.64 106.459C141.139 108.32 140.6 110.19 140.021 112.059H140.029Z" fill="url(#paint17_linear_703_4947)"/>
<path d="M144.063 96.0259C145.181 99.0836 148.027 107.069 150.693 115.363C151.178 113.596 151.624 111.837 152.038 110.079C150.857 106.712 148.223 99.3371 144.947 91.0986C144.681 92.7305 144.392 94.3703 144.063 96.0259Z" fill="url(#paint18_linear_703_4947)"/>
<path d="M146.244 81.2204C148.152 85.4981 151.06 92.2632 154.078 99.7491C154.344 97.9747 154.555 96.2003 154.727 94.4258C153.249 91.0037 150.177 83.9851 146.658 76.5784C146.541 78.1072 146.401 79.6599 146.244 81.2204V81.2204Z" fill="url(#paint19_linear_703_4947)"/>
<path d="M155.149 77.6795C153.226 73.9088 150.279 68.2211 147.19 62.6125C147.19 64.0939 147.175 65.599 147.136 67.12C148.348 69.441 151.725 75.9526 155.259 83.2167C155.259 81.3631 155.227 79.5094 155.149 77.6716V77.6795Z" fill="url(#paint20_linear_703_4947)"/>
<path d="M153.421 60.0617C151.576 56.9723 149.246 53.1382 146.729 49.1299C146.83 50.5558 146.916 52.0213 146.979 53.5105C148.175 55.491 150.958 60.1409 154.203 65.8287C153.976 63.872 153.71 61.9471 153.421 60.0538V60.0617Z" fill="url(#paint21_linear_703_4947)"/>
<path d="M149.958 42.8242C148.559 40.7725 147.019 38.5624 145.432 36.3364C145.611 37.6752 145.783 39.0694 145.948 40.5111C147.316 42.5074 149.177 45.2958 151.28 48.5041C150.857 46.5474 150.412 44.6462 149.958 42.8163V42.8242Z" fill="url(#paint22_linear_703_4947)"/>
<path d="M145.087 26.1651C144.516 25.46 143.93 24.7392 143.344 24.0183C143.602 25.2778 143.883 26.6879 144.157 28.2405C144.876 29.1595 145.814 30.3477 146.885 31.734C146.26 29.6902 145.65 27.8286 145.087 26.1572V26.1651Z" fill="url(#paint23_linear_703_4947)"/>
<path d="M81.541 87.8984L79.1565 97.7529C77.0143 106.601 71.4244 113.842 63.7549 120.029L66.1394 110.174C73.8011 103.987 79.3988 96.7469 81.541 87.8984V87.8984Z" fill="url(#paint24_linear_703_4947)"/>
<path d="M54.4909 107.101C35.5868 100.969 19.7474 89.5858 9.75585 68.7598C1.30451 51.1184 2.65704 33.0412 5.84682 19.8438L3.4623 29.6983C0.272526 42.8957 -1.08 60.9729 7.37916 78.6064C17.3707 99.4324 33.2101 110.816 52.1142 116.947C55.8903 118.167 59.7759 119.189 63.771 120.021L66.1555 110.166C62.1604 109.327 58.267 108.313 54.4987 107.093L54.4909 107.101Z" fill="url(#paint25_linear_703_4947)"/>
<path d="M17.6215 81.6959L16.9883 80.9275C17.1994 81.2127 17.4105 81.4978 17.6294 81.783C17.6294 81.7592 17.6294 81.7276 17.6215 81.7038V81.6959Z" fill="url(#paint26_linear_703_4947)"/>
<path d="M16.988 80.9194L16.9567 80.8798C16.9254 80.8323 16.8864 80.7768 16.8473 80.7214C16.1045 79.6916 15.3775 78.63 14.666 77.5369C15.182 84.2069 15.6745 90.061 15.9091 92.5087C16.9645 93.8633 18.0591 95.1625 19.1849 96.4062C18.4343 90.1006 17.9496 85.2842 17.6213 81.767C17.4102 81.4818 17.1913 81.2046 16.9802 80.9115L16.988 80.9194Z" fill="url(#paint27_linear_703_4947)"/>
<path d="M9.75583 68.752C9.41965 68.0549 9.10692 67.3578 8.80984 66.6607C8.68475 66.4072 8.55966 66.1616 8.43457 65.916C8.66129 73.5366 8.94275 79.3669 9.06783 81.9335C9.72455 83.1535 10.3969 84.3338 11.0927 85.4904C10.5924 78.0995 10.3187 72.1741 10.2015 69.655C10.0529 69.354 9.90437 69.0609 9.75583 68.752V68.752Z" fill="url(#paint28_linear_703_4947)"/>
<path d="M5.14363 55.5702C4.76836 62.8739 4.72146 68.2606 4.72927 72.1977C5.27654 73.7662 5.89417 75.3267 6.58998 76.8952C6.22253 68.9181 6.29289 62.5967 6.33198 59.9746C5.87853 58.5012 5.47981 57.0278 5.14363 55.5623V55.5702Z" fill="url(#paint29_linear_703_4947)"/>
<path d="M2.1416 62.4304C2.17287 62.5809 2.20415 62.7314 2.23542 62.8819C2.20415 62.7235 2.17287 62.573 2.14942 62.4146V62.4304H2.1416Z" fill="url(#paint30_linear_703_4947)"/>
<path d="M3.99449 49.2409C3.93194 48.7736 3.87722 48.3062 3.82249 47.8467C3.80685 47.72 3.79122 47.5932 3.77558 47.4665C3.71304 46.8724 3.65831 46.2862 3.6114 45.7C3.6114 45.6762 3.6114 45.6524 3.6114 45.6287C2.69669 53.9305 2.29015 60.0856 2.1416 62.4146C2.17287 62.573 2.20415 62.7235 2.2276 62.882C2.30578 63.2781 2.38396 63.6821 2.46996 64.0861C2.51687 64.3158 2.5716 64.5455 2.6185 64.7752C2.7045 65.1555 2.7905 65.5357 2.88432 65.9239C2.91559 66.0506 2.94686 66.1695 2.97814 66.2883C3.25177 59.1034 3.68176 53.5028 4.02576 49.431C4.01794 49.3677 4.01012 49.3122 4.0023 49.2488L3.99449 49.2409Z" fill="url(#paint31_linear_703_4947)"/>
<path d="M1.02344 51.5064C1.02344 51.6332 1.03126 51.7678 1.03907 51.8946C1.03907 51.7599 1.03126 51.6173 1.03126 51.4827V51.5064H1.02344Z" fill="url(#paint32_linear_703_4947)"/>
<path d="M3.40013 38.3645C3.40013 37.9922 3.41577 37.6278 3.43141 37.2555C3.43141 37.0653 3.43922 36.8673 3.44704 36.6772C3.46268 36.2256 3.48613 35.7741 3.5174 35.3226C3.5174 35.2354 3.5174 35.1483 3.53304 35.0691C2.14142 43.1888 1.33616 49.1934 1.02344 51.4827C1.02344 51.6174 1.02344 51.752 1.03126 51.8946C1.03907 52.259 1.05471 52.6314 1.07035 53.0037C1.07816 53.2255 1.0938 53.4394 1.10162 53.6612C1.12507 54.0414 1.14853 54.4216 1.17198 54.8019C1.1798 54.9445 1.18762 55.0791 1.20325 55.2217C1.99288 48.1556 2.78251 42.658 3.3845 38.6576C3.3845 38.5625 3.3845 38.4675 3.3845 38.3724L3.40013 38.3645Z" fill="url(#paint33_linear_703_4947)"/>
<path d="M4.22876 28.2485C4.27566 27.9238 4.32257 27.5911 4.3773 27.2742C4.40857 27.0761 4.43984 26.886 4.47112 26.6959C4.52584 26.3632 4.58057 26.0384 4.6353 25.7136C4.65875 25.5869 4.67439 25.4681 4.69784 25.3413C2.98568 33.16 1.88333 38.9586 1.46116 41.1766C1.45334 41.2876 1.4377 41.3905 1.42988 41.5014C1.39861 41.8421 1.35952 42.1906 1.32825 42.5312C1.31261 42.7293 1.28916 42.9194 1.27352 43.1174C1.24225 43.5294 1.21098 43.9413 1.1797 44.3532C1.1797 44.4641 1.16407 44.575 1.15625 44.6859C2.48532 36.9623 3.71276 30.8944 4.17403 28.605C4.18966 28.4862 4.2053 28.3753 4.22876 28.2644V28.2485Z" fill="url(#paint34_linear_703_4947)"/>
<path d="M2.35254 34.9744V34.9584C2.35254 34.9584 2.36045 34.9344 2.36045 34.9185V34.9744H2.35254Z" fill="url(#paint35_linear_703_4947)"/>
<path d="M13.0946 0C15.4791 1.18824 60.7693 23.7094 76.4523 56.4179C88.4375 81.4027 81.3855 97.8718 66.1481 110.174C42.1466 105.136 21.7414 93.7367 9.75629 68.7518C-5.92678 36.0434 12.1408 1.79821 13.0946 0Z" fill="url(#paint36_linear_703_4947)"/>
<path d="M24.7985 20.0734L31.0139 10.3694C29.9975 9.71187 29.0046 9.07814 28.043 8.4761L23.0081 16.3344L19.3571 8.72167L21.8902 4.76877C20.78 4.12712 19.7558 3.54884 18.8255 3.03394L16.5661 6.63828L11.0699 4.24595C10.7416 4.99058 10.3898 5.82235 10.0301 6.74126L16.0031 9.34748L19.6542 16.9602L8.13034 11.922C7.85671 12.7538 7.57526 13.6172 7.30162 14.5124L21.4445 20.6913L25.0956 28.3039L5.83964 19.8912C5.62855 20.7625 5.42528 21.6577 5.22983 22.5766L26.8781 32.035L30.5291 39.6477L4.24475 28.1613C4.11185 29.0803 3.99458 30.015 3.88512 30.9577L32.3273 43.3867L35.9783 50.9994L3.44731 36.7801C3.40822 37.7465 3.39258 38.7209 3.38477 39.7032L37.7609 54.7226L41.4119 62.3353L3.62713 45.8266C3.71312 46.8485 3.81476 47.8783 3.94767 48.916L43.2023 66.0664L46.8533 73.679L5.12038 55.4434C5.37838 56.5525 5.65983 57.6615 5.98037 58.7705L48.6515 77.418L52.3025 85.0307L8.47434 65.8762C8.87306 66.8348 9.30305 67.7933 9.76432 68.7518C9.89723 69.029 10.038 69.2905 10.1709 69.5677L54.085 88.7618L57.7361 96.3745L14.6819 77.5606C15.6357 79.0341 16.6286 80.452 17.6606 81.8066L61.4809 100.953L61.8093 101.104L62.0047 100.858L81.4639 70.4945C81.1356 68.9974 80.7212 67.4606 80.2365 65.8921L61.0978 95.7487L57.4468 88.136L77.0155 57.606C76.8356 57.21 76.648 56.8139 76.4604 56.4178C76.0616 55.5781 75.6316 54.7543 75.1938 53.9304L55.6565 84.4049L52.0054 76.7922L71.0424 47.0861C70.331 46.0405 69.5961 45.0107 68.8377 43.9967L50.2151 73.0612L46.564 65.4485L64.0765 38.1188C63.2791 37.1999 62.4582 36.2969 61.6295 35.4096L44.7659 61.7174L41.1148 54.1047L56.4461 30.1814C55.5783 29.3575 54.7105 28.5416 53.827 27.7494L39.3245 50.3736L35.6734 42.7609L48.3387 23.0044C47.4162 22.2439 46.5015 21.5072 45.5789 20.7784L33.8831 39.0298L30.2321 31.4171L39.8405 16.4294C38.871 15.7244 37.9172 15.0431 36.9712 14.3856L28.4495 27.6861L24.7985 20.0734V20.0734Z" fill="url(#paint37_radial_703_4947)"/>
<g style="mix-blend-mode:color-dodge">
<path d="M14.8304 3.81812C17.0429 4.91922 59.1199 25.8482 73.6928 56.2355C84.8257 79.4459 78.2741 94.7505 64.1234 106.174C41.8184 101.492 22.8674 90.9085 11.7345 67.6902C-2.83843 37.2949 13.947 5.48958 14.8304 3.81812Z" fill="#512333"/>
</g>
<mask id="mask0_703_4947" style="mask-type:alpha" maskUnits="userSpaceOnUse" x="247" y="170" width="62" height="62">
<ellipse cx="277.63" cy="200.63" rx="30.6303" ry="30.6304" fill="#C4C4C4"/>
</mask>
<g mask="url(#mask0_703_4947)">
<path d="M283.767 155.895L231.326 196.454L271.886 248.895L324.326 208.335L283.767 155.895Z" fill="url(#paint38_radial_703_4947)"/>
<path d="M255.111 207.893L262.539 191.226H266.349L273.801 207.893H269.754L263.659 193.179H265.182L259.063 207.893H255.111ZM258.825 204.322L259.849 201.393H268.42L269.468 204.322H258.825ZM281.176 212.703C279.97 212.703 278.803 212.552 277.676 212.25C276.565 211.964 275.637 211.528 274.89 210.941L276.367 208.274C276.906 208.718 277.589 209.068 278.414 209.322C279.256 209.591 280.081 209.726 280.89 209.726C282.208 209.726 283.16 209.433 283.748 208.845C284.351 208.258 284.652 207.385 284.652 206.226V204.298L284.89 201.084L284.843 197.845V195.084H288.367V205.75C288.367 208.131 287.748 209.885 286.51 211.012C285.271 212.139 283.494 212.703 281.176 212.703ZM280.605 207.274C279.414 207.274 278.335 207.02 277.367 206.512C276.414 205.988 275.644 205.266 275.057 204.345C274.486 203.409 274.2 202.322 274.2 201.084C274.2 199.83 274.486 198.742 275.057 197.822C275.644 196.885 276.414 196.163 277.367 195.655C278.335 195.147 279.414 194.893 280.605 194.893C281.684 194.893 282.637 195.115 283.462 195.56C284.287 195.988 284.93 196.663 285.39 197.584C285.851 198.488 286.081 199.655 286.081 201.084C286.081 202.496 285.851 203.663 285.39 204.584C284.93 205.488 284.287 206.163 283.462 206.607C282.637 207.052 281.684 207.274 280.605 207.274ZM281.343 204.226C281.994 204.226 282.573 204.099 283.081 203.845C283.589 203.576 283.986 203.203 284.271 202.726C284.557 202.25 284.7 201.703 284.7 201.084C284.7 200.449 284.557 199.901 284.271 199.441C283.986 198.964 283.589 198.599 283.081 198.345C282.573 198.076 281.994 197.941 281.343 197.941C280.692 197.941 280.113 198.076 279.605 198.345C279.097 198.599 278.692 198.964 278.39 199.441C278.105 199.901 277.962 200.449 277.962 201.084C277.962 201.703 278.105 202.25 278.39 202.726C278.692 203.203 279.097 203.576 279.605 203.845C280.113 204.099 280.692 204.226 281.343 204.226Z" fill="#434153" fill-opacity="0.52"/>
</g>
<defs>
<linearGradient id="paint0_linear_703_4947" x1="103.773" y1="175.57" x2="240.133" y2="166.579" gradientUnits="userSpaceOnUse">
<stop stop-color="#149F7B"/>
<stop offset="0.46" stop-color="#017B5A"/>
<stop offset="0.57" stop-color="#008161"/>
<stop offset="1" stop-color="#009778"/>
</linearGradient>
<linearGradient id="paint1_linear_703_4947" x1="114.887" y1="173.931" x2="236.686" y2="165.899" gradientUnits="userSpaceOnUse">
<stop stop-color="#3E9D7F"/>
<stop offset="0.44" stop-color="#49A680"/>
<stop offset="1" stop-color="#54AF81"/>
</linearGradient>
<linearGradient id="paint2_linear_703_4947" x1="247.903" y1="136.602" x2="149.237" y2="238.169" gradientUnits="userSpaceOnUse">
<stop stop-color="#56DF9A"/>
<stop offset="0.11" stop-color="#53DB97"/>
<stop offset="0.21" stop-color="#4CCE91"/>
<stop offset="0.32" stop-color="#41BA85"/>
<stop offset="0.43" stop-color="#319E76"/>
<stop offset="0.54" stop-color="#1C7A62"/>
<stop offset="0.64" stop-color="#034E49"/>
<stop offset="0.66" stop-color="#004846"/>
<stop offset="0.8" stop-color="#075E52"/>
<stop offset="1" stop-color="#158567"/>
</linearGradient>
<linearGradient id="paint3_linear_703_4947" x1="243.87" y1="138.909" x2="160.225" y2="229.002" gradientUnits="userSpaceOnUse">
<stop stop-color="#D1FDAF"/>
<stop offset="0.1" stop-color="#CCF9AC"/>
<stop offset="0.21" stop-color="#BFEEA5"/>
<stop offset="0.32" stop-color="#AADD9A"/>
<stop offset="0.43" stop-color="#8DC48A"/>
<stop offset="0.54" stop-color="#66A475"/>
<stop offset="0.65" stop-color="#387D5D"/>
<stop offset="0.67" stop-color="#317759"/>
<stop offset="0.91" stop-color="#469A59"/>
</linearGradient>
<linearGradient id="paint4_linear_703_4947" x1="248.535" y1="143.2" x2="164.871" y2="233.317" gradientUnits="userSpaceOnUse">
<stop stop-color="#D1FDAF"/>
<stop offset="0.1" stop-color="#CCF9AC"/>
<stop offset="0.21" stop-color="#BFEEA5"/>
<stop offset="0.32" stop-color="#AADD9A"/>
<stop offset="0.43" stop-color="#8DC48A"/>
<stop offset="0.54" stop-color="#66A475"/>
<stop offset="0.65" stop-color="#387D5D"/>
<stop offset="0.67" stop-color="#317759"/>
<stop offset="0.91" stop-color="#469A59"/>
</linearGradient>
<linearGradient id="paint5_linear_703_4947" x1="250.733" y1="145.289" x2="167.1" y2="235.382" gradientUnits="userSpaceOnUse">
<stop stop-color="#D1FDAF"/>
<stop offset="0.1" stop-color="#CCF9AC"/>
<stop offset="0.21" stop-color="#BFEEA5"/>
<stop offset="0.32" stop-color="#AADD9A"/>
<stop offset="0.43" stop-color="#8DC48A"/>
<stop offset="0.54" stop-color="#66A475"/>
<stop offset="0.65" stop-color="#387D5D"/>
<stop offset="0.67" stop-color="#317759"/>
<stop offset="0.91" stop-color="#469A59"/>
</linearGradient>
<linearGradient id="paint6_linear_703_4947" x1="251.297" y1="145.821" x2="167.674" y2="235.902" gradientUnits="userSpaceOnUse">
<stop stop-color="#D1FDAF"/>
<stop offset="0.1" stop-color="#CCF9AC"/>
<stop offset="0.21" stop-color="#BFEEA5"/>
<stop offset="0.32" stop-color="#AADD9A"/>
<stop offset="0.43" stop-color="#8DC48A"/>
<stop offset="0.54" stop-color="#66A475"/>
<stop offset="0.65" stop-color="#387D5D"/>
<stop offset="0.67" stop-color="#317759"/>
<stop offset="0.91" stop-color="#469A59"/>
</linearGradient>
<linearGradient id="paint7_linear_703_4947" x1="250.733" y1="145.289" x2="167.099" y2="235.371" gradientUnits="userSpaceOnUse">
<stop stop-color="#D1FDAF"/>
<stop offset="0.1" stop-color="#CCF9AC"/>
<stop offset="0.21" stop-color="#BFEEA5"/>
<stop offset="0.32" stop-color="#AADD9A"/>
<stop offset="0.43" stop-color="#8DC48A"/>
<stop offset="0.54" stop-color="#66A475"/>
<stop offset="0.65" stop-color="#387D5D"/>
<stop offset="0.67" stop-color="#317759"/>
<stop offset="0.91" stop-color="#469A59"/>
</linearGradient>
<linearGradient id="paint8_linear_703_4947" x1="249.196" y1="143.857" x2="165.551" y2="233.94" gradientUnits="userSpaceOnUse">
<stop stop-color="#D1FDAF"/>
<stop offset="0.1" stop-color="#CCF9AC"/>
<stop offset="0.21" stop-color="#BFEEA5"/>
<stop offset="0.32" stop-color="#AADD9A"/>
<stop offset="0.43" stop-color="#8DC48A"/>
<stop offset="0.54" stop-color="#66A475"/>
<stop offset="0.65" stop-color="#387D5D"/>
<stop offset="0.67" stop-color="#317759"/>
<stop offset="0.91" stop-color="#469A59"/>
</linearGradient>
<linearGradient id="paint9_linear_703_4947" x1="246.592" y1="141.445" x2="162.969" y2="231.515" gradientUnits="userSpaceOnUse">
<stop stop-color="#D1FDAF"/>
<stop offset="0.1" stop-color="#CCF9AC"/>
<stop offset="0.21" stop-color="#BFEEA5"/>
<stop offset="0.32" stop-color="#AADD9A"/>
<stop offset="0.43" stop-color="#8DC48A"/>
<stop offset="0.54" stop-color="#66A475"/>
<stop offset="0.65" stop-color="#387D5D"/>
<stop offset="0.67" stop-color="#317759"/>
<stop offset="0.91" stop-color="#469A59"/>
</linearGradient>
<linearGradient id="paint10_linear_703_4947" x1="242.908" y1="138.02" x2="159.264" y2="228.113" gradientUnits="userSpaceOnUse">
<stop stop-color="#D1FDAF"/>
<stop offset="0.1" stop-color="#CCF9AC"/>
<stop offset="0.21" stop-color="#BFEEA5"/>
<stop offset="0.32" stop-color="#AADD9A"/>
<stop offset="0.43" stop-color="#8DC48A"/>
<stop offset="0.54" stop-color="#66A475"/>
<stop offset="0.65" stop-color="#387D5D"/>
<stop offset="0.67" stop-color="#317759"/>
<stop offset="0.91" stop-color="#469A59"/>
</linearGradient>
<linearGradient id="paint11_linear_703_4947" x1="238.157" y1="133.603" x2="154.503" y2="223.708" gradientUnits="userSpaceOnUse">
<stop stop-color="#D1FDAF"/>
<stop offset="0.1" stop-color="#CCF9AC"/>
<stop offset="0.21" stop-color="#BFEEA5"/>
<stop offset="0.32" stop-color="#AADD9A"/>
<stop offset="0.43" stop-color="#8DC48A"/>
<stop offset="0.54" stop-color="#66A475"/>
<stop offset="0.65" stop-color="#387D5D"/>
<stop offset="0.67" stop-color="#317759"/>
<stop offset="0.91" stop-color="#469A59"/>
</linearGradient>
<linearGradient id="paint12_linear_703_4947" x1="145.955" y1="22.4181" x2="58.0797" y2="187.956" gradientUnits="userSpaceOnUse">
<stop stop-color="#025E55"/>
<stop offset="0.6" stop-color="#00876C"/>
<stop offset="1" stop-color="#009E79"/>
</linearGradient>
<linearGradient id="paint13_linear_703_4947" x1="140.451" y1="29.0564" x2="64.4369" y2="178.838" gradientUnits="userSpaceOnUse">
<stop stop-color="#008480"/>
<stop offset="0.04" stop-color="#088880"/>
<stop offset="0.38" stop-color="#46AC87"/>
<stop offset="0.66" stop-color="#73C68C"/>
<stop offset="0.87" stop-color="#8FD68E"/>
<stop offset="1" stop-color="#9ADC90"/>
</linearGradient>
<linearGradient id="paint14_linear_703_4947" x1="54.8042" y1="188.313" x2="189.805" y2="26.9031" gradientUnits="userSpaceOnUse">
<stop stop-color="#007463"/>
<stop offset="0.18" stop-color="#005E55"/>
<stop offset="0.41" stop-color="#004846"/>
<stop offset="0.48" stop-color="#126556"/>
<stop offset="0.58" stop-color="#27896A"/>
<stop offset="0.69" stop-color="#39A57A"/>
<stop offset="0.79" stop-color="#45B986"/>
<stop offset="0.9" stop-color="#4CC68C"/>
<stop offset="1" stop-color="#4FCA8F"/>
</linearGradient>
<linearGradient id="paint15_linear_703_4947" x1="160.035" y1="32.6925" x2="119.049" y2="178.632" gradientUnits="userSpaceOnUse">
<stop stop-color="#B0FD87"/>
<stop offset="0.12" stop-color="#A5F383"/>
<stop offset="0.33" stop-color="#89D97A"/>
<stop offset="0.59" stop-color="#5CAF6A"/>
<stop offset="0.67" stop-color="#4FA266"/>
<stop offset="0.91" stop-color="#51D187"/>
</linearGradient>
<linearGradient id="paint16_linear_703_4947" x1="164.906" y1="34.055" x2="123.912" y2="180.003" gradientUnits="userSpaceOnUse">
<stop stop-color="#B0FD87"/>
<stop offset="0.12" stop-color="#A5F383"/>
<stop offset="0.33" stop-color="#89D97A"/>
<stop offset="0.59" stop-color="#5CAF6A"/>
<stop offset="0.67" stop-color="#4FA266"/>
<stop offset="0.91" stop-color="#51D187"/>
</linearGradient>
<linearGradient id="paint17_linear_703_4947" x1="166.767" y1="34.5779" x2="125.773" y2="180.525" gradientUnits="userSpaceOnUse">
<stop stop-color="#B0FD87"/>
<stop offset="0.12" stop-color="#A5F383"/>
<stop offset="0.33" stop-color="#89D97A"/>
<stop offset="0.59" stop-color="#5CAF6A"/>
<stop offset="0.67" stop-color="#4FA266"/>
<stop offset="0.91" stop-color="#51D187"/>
</linearGradient>
<linearGradient id="paint18_linear_703_4947" x1="166.603" y1="34.5382" x2="125.617" y2="180.478" gradientUnits="userSpaceOnUse">
<stop stop-color="#B0FD87"/>
<stop offset="0.12" stop-color="#A5F383"/>
<stop offset="0.33" stop-color="#89D97A"/>
<stop offset="0.59" stop-color="#5CAF6A"/>
<stop offset="0.67" stop-color="#4FA266"/>
<stop offset="0.91" stop-color="#51D187"/>
</linearGradient>
<linearGradient id="paint19_linear_703_4947" x1="165.156" y1="34.1263" x2="124.162" y2="180.074" gradientUnits="userSpaceOnUse">
<stop stop-color="#B0FD87"/>
<stop offset="0.12" stop-color="#A5F383"/>
<stop offset="0.33" stop-color="#89D97A"/>
<stop offset="0.59" stop-color="#5CAF6A"/>
<stop offset="0.67" stop-color="#4FA266"/>
<stop offset="0.91" stop-color="#51D187"/>
</linearGradient>
<linearGradient id="paint20_linear_703_4947" x1="162.076" y1="33.2629" x2="121.09" y2="179.203" gradientUnits="userSpaceOnUse">
<stop stop-color="#B0FD87"/>
<stop offset="0.12" stop-color="#A5F383"/>
<stop offset="0.33" stop-color="#89D97A"/>
<stop offset="0.59" stop-color="#5CAF6A"/>
<stop offset="0.67" stop-color="#4FA266"/>
<stop offset="0.91" stop-color="#51D187"/>
</linearGradient>
<linearGradient id="paint21_linear_703_4947" x1="157.447" y1="31.9637" x2="116.453" y2="177.911" gradientUnits="userSpaceOnUse">
<stop stop-color="#B0FD87"/>
<stop offset="0.12" stop-color="#A5F383"/>
<stop offset="0.33" stop-color="#89D97A"/>
<stop offset="0.59" stop-color="#5CAF6A"/>
<stop offset="0.67" stop-color="#4FA266"/>
<stop offset="0.91" stop-color="#51D187"/>
</linearGradient>
<linearGradient id="paint22_linear_703_4947" x1="151.663" y1="30.3398" x2="110.669" y2="176.28" gradientUnits="userSpaceOnUse">
<stop stop-color="#B0FD87"/>
<stop offset="0.12" stop-color="#A5F383"/>
<stop offset="0.33" stop-color="#89D97A"/>
<stop offset="0.59" stop-color="#5CAF6A"/>
<stop offset="0.67" stop-color="#4FA266"/>
<stop offset="0.91" stop-color="#51D187"/>
</linearGradient>
<linearGradient id="paint23_linear_703_4947" x1="144.954" y1="28.4544" x2="103.968" y2="174.402" gradientUnits="userSpaceOnUse">
<stop stop-color="#B0FD87"/>
<stop offset="0.12" stop-color="#A5F383"/>
<stop offset="0.33" stop-color="#89D97A"/>
<stop offset="0.59" stop-color="#5CAF6A"/>
<stop offset="0.67" stop-color="#4FA266"/>
<stop offset="0.91" stop-color="#51D187"/>
</linearGradient>
<linearGradient id="paint24_linear_703_4947" x1="59.1469" y1="112.606" x2="86.3769" y2="95.6172" gradientUnits="userSpaceOnUse">
<stop stop-color="#00A38B"/>
<stop offset="1" stop-color="#156758"/>
</linearGradient>
<linearGradient id="paint25_linear_703_4947" x1="10.9273" y1="85.2195" x2="39.4755" y2="67.408" gradientUnits="userSpaceOnUse">
<stop stop-color="#008768"/>
<stop offset="0.44" stop-color="#006E77"/>
<stop offset="0.71" stop-color="#005967"/>
<stop offset="1" stop-color="#004859"/>
</linearGradient>
<linearGradient id="paint26_linear_703_4947" x1="4.5922" y1="29.1681" x2="23.8827" y2="106.176" gradientUnits="userSpaceOnUse">
<stop stop-color="#009B66"/>
<stop offset="0.12" stop-color="#059D66"/>
<stop offset="0.27" stop-color="#15A567"/>
<stop offset="0.44" stop-color="#2EB26A"/>
<stop offset="0.62" stop-color="#52C56D"/>
<stop offset="0.81" stop-color="#80DC72"/>
<stop offset="1" stop-color="#B6F877"/>
</linearGradient>
<linearGradient id="paint27_linear_703_4947" x1="2.7479" y1="29.636" x2="22.0415" y2="106.634" gradientUnits="userSpaceOnUse">
<stop stop-color="#009B66"/>
<stop offset="0.12" stop-color="#059D66"/>
<stop offset="0.27" stop-color="#15A567"/>
<stop offset="0.44" stop-color="#2EB26A"/>
<stop offset="0.62" stop-color="#52C56D"/>
<stop offset="0.81" stop-color="#80DC72"/>
<stop offset="1" stop-color="#B6F877"/>
</linearGradient>
<linearGradient id="paint28_linear_703_4947" x1="-1.37019" y1="30.6711" x2="17.9234" y2="107.67" gradientUnits="userSpaceOnUse">
<stop stop-color="#009B66"/>
<stop offset="0.12" stop-color="#059D66"/>
<stop offset="0.27" stop-color="#15A567"/>
<stop offset="0.44" stop-color="#2EB26A"/>
<stop offset="0.62" stop-color="#52C56D"/>
<stop offset="0.81" stop-color="#80DC72"/>
<stop offset="1" stop-color="#B6F877"/>
</linearGradient>
<linearGradient id="paint29_linear_703_4947" x1="-3.00189" y1="31.0792" x2="16.2807" y2="108.075" gradientUnits="userSpaceOnUse">
<stop stop-color="#009B66"/>
<stop offset="0.12" stop-color="#059D66"/>
<stop offset="0.27" stop-color="#15A567"/>
<stop offset="0.44" stop-color="#2EB26A"/>
<stop offset="0.62" stop-color="#52C56D"/>
<stop offset="0.81" stop-color="#80DC72"/>
<stop offset="1" stop-color="#B6F877"/>
</linearGradient>
<linearGradient id="paint30_linear_703_4947" x1="-5.38503" y1="31.6027" x2="13.9472" y2="108.765" gradientUnits="userSpaceOnUse">
<stop stop-color="#009B66"/>
<stop offset="0.12" stop-color="#059D66"/>
<stop offset="0.27" stop-color="#15A567"/>
<stop offset="0.44" stop-color="#2EB26A"/>
<stop offset="0.62" stop-color="#52C56D"/>
<stop offset="0.81" stop-color="#80DC72"/>
<stop offset="1" stop-color="#B6F877"/>
</linearGradient>
<linearGradient id="paint31_linear_703_4947" x1="-2.78576" y1="31.0252" x2="16.5079" y2="108.024" gradientUnits="userSpaceOnUse">
<stop stop-color="#009B66"/>
<stop offset="0.12" stop-color="#059D66"/>
<stop offset="0.27" stop-color="#15A567"/>
<stop offset="0.44" stop-color="#2EB26A"/>
<stop offset="0.62" stop-color="#52C56D"/>
<stop offset="0.81" stop-color="#80DC72"/>
<stop offset="1" stop-color="#B6F877"/>
</linearGradient>
<linearGradient id="paint32_linear_703_4947" x1="-3.93563" y1="31.3025" x2="15.3639" y2="108.325" gradientUnits="userSpaceOnUse">
<stop stop-color="#009B66"/>
<stop offset="0.12" stop-color="#059D66"/>
<stop offset="0.27" stop-color="#15A567"/>
<stop offset="0.44" stop-color="#2EB26A"/>
<stop offset="0.62" stop-color="#52C56D"/>
<stop offset="0.81" stop-color="#80DC72"/>
<stop offset="1" stop-color="#B6F877"/>
</linearGradient>
<linearGradient id="paint33_linear_703_4947" x1="-1.17116" y1="30.6188" x2="18.1225" y2="107.617" gradientUnits="userSpaceOnUse">
<stop stop-color="#009B66"/>
<stop offset="0.12" stop-color="#059D66"/>
<stop offset="0.27" stop-color="#15A567"/>
<stop offset="0.44" stop-color="#2EB26A"/>
<stop offset="0.62" stop-color="#52C56D"/>
<stop offset="0.81" stop-color="#80DC72"/>
<stop offset="1" stop-color="#B6F877"/>
</linearGradient>
<linearGradient id="paint34_linear_703_4947" x1="1.68506" y1="29.9044" x2="20.9787" y2="106.903" gradientUnits="userSpaceOnUse">
<stop stop-color="#009B66"/>
<stop offset="0.12" stop-color="#059D66"/>
<stop offset="0.27" stop-color="#15A567"/>
<stop offset="0.44" stop-color="#2EB26A"/>
<stop offset="0.62" stop-color="#52C56D"/>
<stop offset="0.81" stop-color="#80DC72"/>
<stop offset="1" stop-color="#B6F877"/>
</linearGradient>
<linearGradient id="paint35_linear_703_4947" x1="1.14695" y1="29.9979" x2="20.5398" y2="107.595" gradientUnits="userSpaceOnUse">
<stop stop-color="#009B66"/>
<stop offset="0.12" stop-color="#059D66"/>
<stop offset="0.27" stop-color="#15A567"/>
<stop offset="0.44" stop-color="#2EB26A"/>
<stop offset="0.62" stop-color="#52C56D"/>
<stop offset="0.81" stop-color="#80DC72"/>
<stop offset="1" stop-color="#B6F877"/>
</linearGradient>
<linearGradient id="paint36_linear_703_4947" x1="19.8007" y1="-1.70822" x2="67.4346" y2="126.033" gradientUnits="userSpaceOnUse">
<stop stop-color="#026D5B"/>
<stop offset="0.65" stop-color="#149F77"/>
<stop offset="1" stop-color="#1DB785"/>
</linearGradient>
<radialGradient id="paint37_radial_703_4947" cx="0" cy="0" r="1" gradientUnits="userSpaceOnUse" gradientTransform="translate(29.9295 34.5393) rotate(-32.6415) scale(77.1045 77.5354)">
<stop stop-color="#83CB87"/>
<stop offset="0.26" stop-color="#78C787"/>
<stop offset="0.71" stop-color="#5CBC88"/>
<stop offset="0.91" stop-color="#4EB789"/>
</radialGradient>
<radialGradient id="paint38_radial_703_4947" cx="0" cy="0" r="1" gradientUnits="userSpaceOnUse" gradientTransform="translate(270.621 188.053) rotate(52.28) scale(39.4773 40.0937)">
<stop stop-color="#FEFEFE"/>
<stop offset="0.3" stop-color="#BDC3C7"/>
<stop offset="0.64" stop-color="#9199A3" stop-opacity="0.73"/>
<stop offset="1" stop-color="#505E6D" stop-opacity="0.44"/>
</radialGradient>
<clipPath id="clip0_703_4947">
<rect width="141.682" height="105.539" fill="white" transform="translate(94.9727 129.877) rotate(-8.02417)"/>
</clipPath>
</defs>
</svg>
