<svg width="239" height="211" viewBox="0 0 239 211" fill="none" xmlns="http://www.w3.org/2000/svg">
<path d="M104.822 0C102.972 0.042696 100.898 0.665346 98.6989 1.93555L14.1004 50.7798C6.29054 55.2913 0 66.1824 0 75.2019V172.89C0 177.711 1.79679 180.988 4.66098 182.312L18.1458 190.129L28.19 172.897L98.6989 132.187C106.509 127.675 112.799 116.784 112.799 107.765V27.7346L123.427 9.50342L108.711 0.957102C108.69 0.94287 108.668 0.932196 108.647 0.921522L108.572 0.878826C107.48 0.277524 106.217 -0.024906 104.826 0.007116L104.822 0Z" fill="#E7F2F8"/>
<path d="M4.12016 61.3008C1.57264 65.7163 0 70.6939 0 75.2019V172.89C0 177.711 1.79679 180.988 4.66098 182.312L18.1458 190.129L28.19 172.897L98.6989 132.187C102.606 129.931 106.128 126.081 108.679 121.669L4.12016 61.3008Z" fill="#C8D3D5"/>
<path d="M118.923 8.14422C117.073 8.18691 114.998 8.80956 112.8 10.0798L28.2009 58.9204C20.3911 63.432 14.1006 74.323 14.1006 83.3425V181.031C14.1006 185.496 15.6412 188.638 18.146 190.129L18.2136 190.171C18.2136 190.171 18.2279 190.179 18.235 190.182L32.7659 198.551L43.2157 180.504L112.803 140.327C120.613 135.816 126.903 124.925 126.903 115.905V35.982L137.524 17.637L123.431 9.49981C122.186 8.57829 120.656 8.10152 118.93 8.14066L118.923 8.14422Z" fill="#EC4F4F"/>
<path d="M18.2207 69.4414C15.6732 73.8569 14.1006 78.8345 14.1006 83.3425V181.031C14.1006 185.496 15.6412 188.638 18.146 190.129L18.2136 190.171C18.2136 190.171 18.2279 190.179 18.235 190.182L32.7659 198.551L43.2157 180.504L112.803 140.327C116.71 138.072 120.236 134.222 122.783 129.81L18.2207 69.4414Z" fill="#BB4346"/>
<path d="M42.3015 67.0612L126.9 18.2169C134.689 13.7196 141 17.3666 141 26.3576V124.046C141 133.037 134.689 143.971 126.9 148.468L42.3015 197.312C34.5131 201.81 28.2012 198.163 28.2012 189.172V91.4833C28.2012 82.4922 34.5131 71.5585 42.3015 67.0612V67.0612Z" fill="#FF6565"/>
<path d="M98.6993 50.7798L70.4986 67.0612V99.624L42.2979 115.905V148.468L70.4986 132.187V164.75L98.6993 148.468V115.905L126.9 99.624V67.0612L98.6993 83.3426V50.7798V50.7798Z" fill="#B4BEC0"/>
<path d="M109.273 56.8853L81.0728 73.1667V105.729L52.8721 122.011V154.574L81.0728 138.292V170.855L109.273 154.574V122.011L137.474 105.729V73.1667L109.273 89.4481V56.8853Z" fill="#E7F2F8"/>
<path d="M109.273 56.8853L98.6988 50.7798L70.498 67.0612L81.0724 73.1667L109.273 56.8853Z" fill="#C8D3D5"/>
<path d="M137.474 73.1668L126.9 67.0613L109.273 77.2372V89.4482L137.474 73.1668V73.1668Z" fill="#C8D3D5"/>
<path d="M81.0759 105.73L52.8752 122.011L42.3008 115.905L70.5015 99.624L81.0759 105.73V105.73Z" fill="#C8D3D5"/>
<path d="M52.8752 154.574L42.3008 148.468V115.906L52.8752 122.011V154.574Z" fill="#B4BEC0"/>
<path d="M81.0763 170.855L70.502 164.75V144.398L81.0763 138.292V170.855V170.855Z" fill="#B4BEC0"/>
<mask id="mask0_703_4967" style="mask-type:alpha" maskUnits="userSpaceOnUse" x="177" y="149" width="62" height="62">
<ellipse cx="207.63" cy="179.63" rx="30.6303" ry="30.6304" fill="#C4C4C4"/>
</mask>
<g mask="url(#mask0_703_4967)">
<path d="M213.767 134.895L161.326 175.454L201.886 227.895L254.326 187.335L213.767 134.895Z" fill="url(#paint0_radial_703_4967)"/>
<path d="M185.111 186.893L192.539 170.226H196.349L203.801 186.893H199.754L193.659 172.179H195.182L189.063 186.893H185.111ZM188.825 183.322L189.849 180.393H198.42L199.468 183.322H188.825ZM211.176 191.703C209.97 191.703 208.803 191.552 207.676 191.25C206.565 190.964 205.637 190.528 204.89 189.941L206.367 187.274C206.906 187.718 207.589 188.068 208.414 188.322C209.256 188.591 210.081 188.726 210.89 188.726C212.208 188.726 213.16 188.433 213.748 187.845C214.351 187.258 214.652 186.385 214.652 185.226V183.298L214.89 180.084L214.843 176.845V174.084H218.367V184.75C218.367 187.131 217.748 188.885 216.51 190.012C215.271 191.139 213.494 191.703 211.176 191.703ZM210.605 186.274C209.414 186.274 208.335 186.02 207.367 185.512C206.414 184.988 205.644 184.266 205.057 183.345C204.486 182.409 204.2 181.322 204.2 180.084C204.2 178.83 204.486 177.742 205.057 176.822C205.644 175.885 206.414 175.163 207.367 174.655C208.335 174.147 209.414 173.893 210.605 173.893C211.684 173.893 212.637 174.115 213.462 174.56C214.287 174.988 214.93 175.663 215.39 176.584C215.851 177.488 216.081 178.655 216.081 180.084C216.081 181.496 215.851 182.663 215.39 183.584C214.93 184.488 214.287 185.163 213.462 185.607C212.637 186.052 211.684 186.274 210.605 186.274ZM211.343 183.226C211.994 183.226 212.573 183.099 213.081 182.845C213.589 182.576 213.986 182.203 214.271 181.726C214.557 181.25 214.7 180.703 214.7 180.084C214.7 179.449 214.557 178.901 214.271 178.441C213.986 177.964 213.589 177.599 213.081 177.345C212.573 177.076 211.994 176.941 211.343 176.941C210.692 176.941 210.113 177.076 209.605 177.345C209.097 177.599 208.692 177.964 208.39 178.441C208.105 178.901 207.962 179.449 207.962 180.084C207.962 180.703 208.105 181.25 208.39 181.726C208.692 182.203 209.097 182.576 209.605 182.845C210.113 183.099 210.692 183.226 211.343 183.226Z" fill="#434153" fill-opacity="0.52"/>
</g>
<defs>
<radialGradient id="paint0_radial_703_4967" cx="0" cy="0" r="1" gradientUnits="userSpaceOnUse" gradientTransform="translate(200.621 167.053) rotate(52.28) scale(39.4773 40.0937)">
<stop stop-color="#FEFEFE"/>
<stop offset="0.3" stop-color="#BDC3C7"/>
<stop offset="0.64" stop-color="#9199A3" stop-opacity="0.73"/>
<stop offset="1" stop-color="#505E6D" stop-opacity="0.44"/>
</radialGradient>
</defs>
</svg>
