<svg width="44" height="44" viewBox="0 0 44 44" fill="none" xmlns="http://www.w3.org/2000/svg">
<circle cx="22" cy="5" r="4" fill="white"/>
<circle cx="37" cy="13" r="4" fill="white"/>
<ellipse cx="37" cy="30.5" rx="4" ry="4.5" fill="white"/>
<ellipse cx="22" cy="39.5" rx="4" ry="4.5" fill="white"/>
<ellipse cx="7" cy="30.5" rx="4" ry="4.5" fill="white"/>
<ellipse cx="7" cy="13.5" rx="4" ry="4.5" fill="white"/>
<path d="M17.9504 7.29932C17.9528 7.30334 17.9555 7.30637 17.9578 7.31006C18.7981 8.84183 20.4262 9.88281 22.293 9.88281C23.8405 9.88281 25.2239 9.16711 26.1306 8.04993L30.5601 10.6072C30.6581 10.664 30.7699 10.6942 30.8824 10.6942C31.112 10.6942 31.3258 10.5703 31.441 10.3719C31.6179 10.0641 31.5121 9.66898 31.2046 9.49106L26.8054 6.9512C27.0803 6.33688 27.2344 5.65677 27.2344 4.94141C27.2344 2.21658 25.0178 0 22.293 0C19.5681 0 17.3516 2.21658 17.3516 4.94141C17.3516 5.76923 17.5573 6.54971 17.9185 7.23587C17.9279 7.25735 17.9384 7.27884 17.9504 7.29932ZM22.293 1.28906C24.3068 1.28906 25.9453 2.92758 25.9453 4.94141C25.9453 6.95523 24.3068 8.59375 22.293 8.59375C20.2791 8.59375 18.6406 6.95523 18.6406 4.94141C18.6406 2.92758 20.2791 1.28906 22.293 1.28906Z" fill="#FF6565"/>
<path d="M16.5977 8.82471C16.9052 8.64713 17.0109 8.25235 16.834 7.94385C16.7189 7.74545 16.5047 7.62158 16.2754 7.62158C16.1626 7.62158 16.0512 7.65179 15.9532 7.70853L11.145 10.485C10.2397 9.33463 8.83612 8.59375 7.26172 8.59375C4.5369 8.59375 2.32031 10.8103 2.32031 13.5352C2.32031 16.2596 4.53656 18.4762 7.26105 18.4766H7.26138H7.26172C9.98654 18.4766 12.2031 16.26 12.2031 13.5352C12.2031 12.8456 12.0608 12.1887 11.8043 11.5918L16.5977 8.82471ZM7.26172 17.1875C5.24789 17.1875 3.60938 15.549 3.60938 13.5352C3.60938 11.5213 5.24789 9.88281 7.26172 9.88281C9.27554 9.88281 10.9141 11.5213 10.9141 13.5352C10.9141 15.549 9.27554 17.1875 7.26172 17.1875Z" fill="#FF6565"/>
<path d="M26.5056 36.4771C26.4922 36.4539 26.4771 36.4318 26.4613 36.411C25.5835 35.0333 24.0433 34.1172 22.2923 34.1172C20.6515 34.1172 19.1959 34.9215 18.2966 36.1562L13.5371 33.4082C13.4391 33.3515 13.3273 33.3223 13.2148 33.3223C12.9852 33.3223 12.7714 33.4451 12.6562 33.6445C12.479 33.952 12.5847 34.3468 12.8926 34.5244L17.6799 37.2885C17.4681 37.8387 17.3509 38.4349 17.3509 39.0586C17.3509 41.7834 19.5675 44 22.2923 44C25.0168 44 27.2337 41.7834 27.2337 39.0586C27.2337 38.1197 26.9702 37.2411 26.5137 36.4926C26.511 36.4875 26.5086 36.4821 26.5056 36.4771ZM22.2923 42.7109C20.2785 42.7109 18.64 41.0724 18.64 39.0586C18.64 37.0448 20.2785 35.4062 22.2923 35.4062C24.3061 35.4062 25.9447 37.0448 25.9447 39.0586C25.9447 41.0724 24.3061 42.7109 22.2923 42.7109Z" fill="#FF6565"/>
<path d="M36.1634 18.4329V23.6543C36.1634 24.0091 36.4531 24.2988 36.8089 24.2988C37.1638 24.2988 37.4535 24.0091 37.4535 23.6543V18.4333C39.8745 18.116 41.75 16.0411 41.75 13.5352C41.75 10.8103 39.5334 8.59375 36.8086 8.59375C35.013 8.59375 33.4386 9.55652 32.5732 10.9926C32.5681 11.0007 32.5621 11.0081 32.5574 11.0161C32.551 11.0272 32.546 11.0386 32.5403 11.05C32.1133 11.7808 31.8672 12.6295 31.8672 13.5352C31.8672 16.0411 33.7427 18.116 36.1634 18.4329ZM36.8086 9.88281C38.8224 9.88281 40.4609 11.5213 40.4609 13.5352C40.4609 15.549 38.8224 17.1875 36.8086 17.1875C34.7948 17.1875 33.1562 15.549 33.1562 13.5352C33.1562 11.5213 34.7948 9.88281 36.8086 9.88281Z" fill="#FF6565"/>
<path d="M7.90591 25.6312V20.4102C7.90591 20.0543 7.61722 19.7656 7.26138 19.7656C6.90656 19.7656 6.61685 20.0543 6.61685 20.4102V25.6312C4.19583 25.9484 2.32031 28.0233 2.32031 30.5293C2.32031 33.2541 4.5369 35.4707 7.26172 35.4707C9.07547 35.4707 10.6626 34.4881 11.5223 33.0279C11.5284 33.0185 11.5354 33.0097 11.5411 33C11.5489 32.9862 11.5559 32.9721 11.5626 32.958C11.9695 32.24 12.2031 31.4118 12.2031 30.5293C12.2031 28.023 10.3273 25.9481 7.90591 25.6312ZM7.26172 34.1816C5.24789 34.1816 3.60938 32.5431 3.60938 30.5293C3.60938 28.5155 5.24789 26.877 7.26172 26.877C9.27554 26.877 10.9141 28.5155 10.9141 30.5293C10.9141 32.5431 9.27554 34.1816 7.26172 34.1816Z" fill="#FF6565"/>
<path d="M36.8083 25.5879H36.808C36.8077 25.5879 36.8077 25.5879 36.8077 25.5879C34.0828 25.5879 31.8662 27.8045 31.8662 30.5293C31.8662 31.1987 32.0009 31.8375 32.2429 32.4203L27.8574 34.9524C27.708 35.0383 27.6016 35.1776 27.5576 35.3435C27.513 35.5103 27.5351 35.6839 27.6221 35.8326C27.7365 36.0316 27.9504 36.1548 28.1807 36.1548C28.2935 36.1548 28.4042 36.1256 28.5019 36.0689L32.8898 33.5354C33.7938 34.711 35.2134 35.4707 36.8077 35.4707C39.5325 35.4707 41.7491 33.2541 41.7491 30.5293C41.7491 27.8048 39.5328 25.5882 36.8083 25.5879ZM36.8077 34.1816C34.7938 34.1816 33.1553 32.5431 33.1553 30.5293C33.1553 28.5155 34.7938 26.877 36.8077 26.877C38.8215 26.877 40.46 28.5155 40.46 30.5293C40.46 32.5431 38.8215 34.1816 36.8077 34.1816Z" fill="#FF6565"/>
</svg>
