<svg width="43" height="43" viewBox="0 0 43 43" fill="none" xmlns="http://www.w3.org/2000/svg">
<g clip-path="url(#clip0_402_231)">
<path d="M41.7443 16.0203C42.0531 15.9824 42.3375 15.8328 42.5436 15.5998C42.7498 15.3667 42.8636 15.0663 42.8636 14.7551C42.8636 14.4439 42.7498 14.1435 42.5436 13.9104C42.3375 13.6774 42.0531 13.5278 41.7443 13.4898H38.8903C38.7637 12.468 38.4947 11.4689 38.0912 10.5217L40.5647 9.09469C40.7087 9.01384 40.8351 8.90494 40.9364 8.77443C41.0377 8.64393 41.1118 8.49447 41.1543 8.33486C41.1969 8.17524 41.2071 8.00872 41.1842 7.84511C41.1614 7.68151 41.106 7.52412 41.0213 7.38228C40.9402 7.23852 40.8315 7.11216 40.7015 7.01044C40.5715 6.90871 40.4228 6.83362 40.2637 6.78944C40.1047 6.74526 39.9385 6.73287 39.7746 6.75298C39.6108 6.77309 39.4525 6.82529 39.3089 6.90662L36.8164 8.35265C36.2185 7.52722 35.5002 6.79609 34.6854 6.18363L36.1315 3.69116C36.298 3.401 36.3424 3.05656 36.255 2.73364C36.1676 2.41072 35.9555 2.13578 35.6653 1.96925C35.3752 1.80273 35.0307 1.75827 34.7078 1.84569C34.3849 1.93311 34.1099 2.14524 33.9434 2.4354L32.5164 4.90885C31.5713 4.50278 30.5709 4.23985 29.5483 4.12876V1.25576C29.5483 0.922713 29.416 0.603279 29.1805 0.36778C28.945 0.132281 28.6256 0 28.2925 0C27.9595 0 27.6401 0.132281 27.4046 0.36778C27.1691 0.603279 27.0368 0.922713 27.0368 1.25576V4.12876C26.0141 4.23985 25.0138 4.50278 24.0686 4.90885L22.6416 2.4354C22.471 2.14698 22.1936 1.93737 21.8696 1.85191C21.5456 1.76645 21.2009 1.812 20.9102 1.97875C20.6231 2.14576 20.4139 2.41971 20.3283 2.74064C20.2427 3.06157 20.2878 3.40336 20.4536 3.69116L21.8806 6.18363C21.0611 6.80325 20.3312 7.53317 19.7116 8.35265L17.2381 6.90662C16.9517 6.78173 16.6294 6.76639 16.3324 6.8635C16.0354 6.96062 15.7844 7.16345 15.6271 7.43344C15.4698 7.70342 15.4172 8.02178 15.4791 8.32803C15.5411 8.63429 15.7134 8.90711 15.9633 9.09469L18.4558 10.5217C17.8765 11.8544 17.5786 13.2924 17.5806 14.7456C17.5857 15.0427 17.5406 15.3386 17.4474 15.6208L15.6779 13.8704C15.5659 13.7374 15.4274 13.6291 15.2713 13.5524C15.1152 13.4757 14.9449 13.4324 14.7711 13.425C14.5974 13.4176 14.424 13.4463 14.2619 13.5094C14.0999 13.5726 13.9527 13.6687 13.8297 13.7916C13.7068 13.9146 13.6107 14.0618 13.5476 14.2238C13.4844 14.3859 13.4557 14.5593 13.4631 14.733C13.4705 14.9068 13.5139 15.0771 13.5906 15.2332C13.6672 15.3893 13.7755 15.5278 13.9085 15.6398L15.6589 17.4093C15.3808 17.4921 15.0928 17.5369 14.8027 17.5425C13.3432 17.5384 11.8986 17.8364 10.5598 18.4177L9.13279 15.9252C8.96233 15.6419 8.68843 15.4359 8.36893 15.3507C8.04942 15.2655 7.70932 15.3078 7.4204 15.4686C7.2757 15.5513 7.14891 15.662 7.04742 15.7942C6.94593 15.9264 6.87177 16.0774 6.82927 16.2386C6.78677 16.3997 6.77677 16.5678 6.79986 16.7328C6.82295 16.8979 6.87867 17.0567 6.96377 17.2L8.39076 19.6734C7.53995 20.2823 6.78345 21.0132 6.14563 21.8425L3.65315 20.4155C3.36731 20.2737 3.03822 20.246 2.73272 20.3381C2.42723 20.4302 2.16824 20.6351 2.00837 20.9113C1.8485 21.1874 1.79975 21.514 1.87201 21.8248C1.94426 22.1356 2.13211 22.4072 2.39739 22.5845L4.88987 24.0305C4.46883 24.965 4.19908 25.9604 4.09076 26.9796H1.2558C0.946955 27.0176 0.662648 27.1672 0.456468 27.4003C0.250287 27.6333 0.136475 27.9337 0.136475 28.2449C0.136475 28.5561 0.250287 28.8565 0.456468 29.0896C0.662648 29.3226 0.946955 29.4723 1.2558 29.5102H4.12881C4.23737 30.5355 4.50707 31.5372 4.92793 32.4783L2.43545 33.9053C2.14834 34.0723 1.9391 34.3463 1.85352 34.6672C1.76794 34.9881 1.81299 35.3299 1.97881 35.6177C2.08317 35.8144 2.23945 35.9787 2.43066 36.0927C2.62187 36.2068 2.84069 36.2662 3.06333 36.2646C3.28441 36.2665 3.5017 36.2073 3.6912 36.0934L6.18368 34.6473C6.7932 35.4756 7.52448 36.2069 8.35271 36.8164L6.92571 39.3089C6.84104 39.4507 6.78565 39.608 6.76279 39.7716C6.73994 39.9352 6.7501 40.1018 6.79266 40.2614C6.83522 40.421 6.90933 40.5705 7.01061 40.701C7.11189 40.8315 7.2383 40.9404 7.38235 41.0212C7.5242 41.1059 7.68156 41.1613 7.84516 41.1842C8.00877 41.207 8.1753 41.1968 8.33492 41.1543C8.49453 41.1117 8.644 41.0376 8.7745 40.9363C8.905 40.8351 9.01389 40.7087 9.09474 40.5646L10.5217 38.0911C11.4698 38.4923 12.4685 38.7613 13.4899 38.8903V41.7443C13.5278 42.0531 13.6774 42.3374 13.9105 42.5436C14.1435 42.7497 14.444 42.8636 14.7551 42.8636C15.0663 42.8636 15.3667 42.7497 15.5998 42.5436C15.8329 42.3374 15.9825 42.0531 16.0204 41.7443V38.9283C17.2988 38.852 18.5703 38.6867 19.8257 38.4336L20.5678 41.1544C20.6102 41.3143 20.6838 41.4643 20.7842 41.5958C20.8847 41.7273 21.01 41.8377 21.1531 41.9207C21.2962 42.0037 21.4543 42.0578 21.6183 42.0798C21.7823 42.1017 21.949 42.0912 22.1089 42.0487C22.2688 42.0062 22.4188 41.9327 22.5503 41.8322C22.6818 41.7318 22.7922 41.6064 22.8752 41.4633C22.9582 41.3202 23.0123 41.1621 23.0342 40.9981C23.0562 40.8341 23.0456 40.6674 23.0031 40.5075L22.2231 37.7487C22.8319 37.5584 23.4217 37.3301 24.0116 37.1018C24.6014 36.8735 25.1912 36.588 25.743 36.3026L27.1509 38.738C27.3175 39.0282 27.5924 39.2403 27.9153 39.3277C28.2383 39.4151 28.5827 39.3707 28.8728 39.2042C29.163 39.0377 29.3751 38.7627 29.4625 38.4398C29.55 38.1169 29.5055 37.7724 29.339 37.4823L27.931 35.0279C28.9733 34.3396 29.9594 33.5697 30.8801 32.7256L32.8779 34.7235C32.99 34.8564 33.1285 34.9647 33.2846 35.0414C33.4407 35.118 33.611 35.1614 33.7847 35.1688C33.9585 35.1762 34.1319 35.1474 34.2939 35.0843C34.456 35.0212 34.6031 34.9252 34.7261 34.8022C34.8491 34.6792 34.9452 34.532 35.0083 34.37C35.0714 34.2079 35.1002 34.0345 35.0928 33.8608C35.0854 33.687 35.042 33.5167 34.9653 33.3606C34.8886 33.2045 34.7804 33.0661 34.6474 32.954L32.7447 30.9562C33.5929 30.0071 34.3688 28.9959 35.066 27.931L37.5014 29.3389C37.7915 29.5054 38.136 29.5499 38.4589 29.4625C38.7818 29.375 39.0568 29.1629 39.2233 28.8728C39.3898 28.5826 39.4342 28.2382 39.3468 27.9153C39.2594 27.5924 39.0473 27.3174 38.7571 27.1509L36.3217 25.7429C36.6071 25.1911 36.8735 24.6013 37.1208 24.0115C37.3682 23.4217 37.5775 22.8318 37.7677 22.223L40.5076 22.9651C40.8304 23.0468 41.1723 22.999 41.4603 22.8319C41.7483 22.6647 41.9595 22.3916 42.0487 22.0708C42.0918 21.9109 42.1028 21.744 42.0811 21.5798C42.0594 21.4156 42.0054 21.2574 41.9223 21.1141C41.8392 20.9709 41.7285 20.8455 41.5968 20.7452C41.465 20.6449 41.3147 20.5716 41.1545 20.5297L38.4908 19.7876C38.7533 18.5338 38.9187 17.2616 38.9854 15.9823L41.7443 16.0203ZM34.7806 23.0602C33.1295 27.0066 30.3483 30.3766 26.7868 32.7464C23.2253 35.1162 19.0425 36.38 14.7647 36.3788C13.6558 36.4322 12.5476 36.2599 11.5073 35.8724C10.467 35.4849 9.51619 34.8903 8.71252 34.1244C7.90885 33.3585 7.26905 32.4375 6.83189 31.417C6.39473 30.3966 6.16932 29.298 6.16932 28.1878C6.16932 27.0777 6.39473 25.9791 6.83189 24.9586C7.26905 23.9382 7.90885 23.0171 8.71252 22.2513C9.51619 21.4854 10.467 20.8907 11.5073 20.5032C12.5476 20.1157 13.6558 19.9435 14.7647 19.9969C15.4625 19.9994 16.1539 19.8638 16.7991 19.598C17.4442 19.3321 18.0304 18.9411 18.5239 18.4477C19.0173 17.9543 19.4082 17.3681 19.6741 16.7229C19.94 16.0777 20.0756 15.3863 20.0731 14.6885C20.0731 12.5187 20.935 10.4377 22.4693 8.90337C24.0037 7.36905 26.0846 6.50708 28.2545 6.50708C30.4243 6.50708 32.5053 7.36905 34.0396 8.90337C35.5739 10.4377 36.4359 12.5187 36.4359 14.6885C36.4424 17.5425 35.8797 20.3692 34.7806 23.0031V23.0602Z" fill="#692685"/>
<path d="M28.2545 9.43716C27.5574 9.43716 26.8671 9.57449 26.2231 9.84126C25.579 10.108 24.9938 10.4991 24.5009 10.992C24.008 11.4849 23.617 12.0701 23.3502 12.7141C23.0834 13.3582 22.9461 14.0485 22.9461 14.7456C22.9461 16.9172 22.0848 19.0001 20.551 20.5375C19.0172 22.0748 16.9363 22.941 14.7647 22.946C13.3568 22.946 12.0066 23.5053 11.0111 24.5008C10.0156 25.4963 9.4563 26.8466 9.4563 28.2544C9.4563 29.6623 10.0156 31.0125 11.0111 32.008C12.0066 33.0035 13.3568 33.5628 14.7647 33.5628C19.7505 33.5527 24.5289 31.5664 28.0527 28.0391C31.5764 24.5119 33.5579 19.7314 33.5629 14.7456C33.5629 13.3377 33.0037 11.9875 32.0081 10.992C31.0126 9.99646 29.6624 9.43716 28.2545 9.43716ZM14.7647 31.0323C14.3793 31.0642 13.9915 31.0158 13.6257 30.8902C13.26 30.7646 12.9242 30.5644 12.6397 30.3025C12.3552 30.0406 12.1282 29.7225 11.9728 29.3683C11.8175 29.0141 11.7373 28.6316 11.7373 28.2449C11.7373 27.8582 11.8175 27.4756 11.9728 27.1215C12.1282 26.7673 12.3552 26.4493 12.6397 26.1874C12.9242 25.9254 13.26 25.7253 13.6257 25.5997C13.9915 25.4741 14.3793 25.4257 14.7647 25.4575C17.6024 25.4525 20.3221 24.3217 22.3269 22.3134C24.3317 20.305 25.4576 17.5833 25.4576 14.7456C25.5155 14.0461 25.8342 13.3939 26.3505 12.9185C26.8669 12.4431 27.5431 12.1791 28.245 12.1791C28.9469 12.1791 29.6231 12.4431 30.1395 12.9185C30.6558 13.3939 30.9746 14.0461 31.0324 14.7456C31.0274 19.0603 29.3125 23.1971 26.2633 26.2498C23.2142 29.3025 19.0794 31.0222 14.7647 31.0323Z" fill="#692685"/>
</g>
<defs>
<clipPath id="clip0_402_231">
<rect width="43" height="43" fill="white"/>
</clipPath>
</defs>
</svg>
