<svg width="39" height="39" viewBox="0 0 39 39" fill="none" xmlns="http://www.w3.org/2000/svg">
<g clip-path="url(#clip0_402_234)">
<path d="M37.85 18.35H36.0834L36.95 16.85C37.0745 16.5891 37.0962 16.2909 37.0108 16.0148C36.9254 15.7386 36.7391 15.5048 36.489 15.3598C36.239 15.2148 35.9435 15.1693 35.6614 15.2323C35.3793 15.2953 35.1312 15.4623 34.9667 15.7L33.4334 18.35H22.25L30.25 10.45L33.2 11.2333C33.2994 11.2492 33.4007 11.2492 33.5 11.2333C33.751 11.2311 33.9944 11.1468 34.193 10.9933C34.3916 10.8399 34.5346 10.6256 34.6 10.3833C34.6404 10.2389 34.6516 10.0878 34.6332 9.93899C34.6147 9.79014 34.5669 9.64644 34.4925 9.51622C34.418 9.38599 34.3185 9.27184 34.1997 9.18036C34.0808 9.08889 33.945 9.02191 33.8 8.98332L32.1334 8.53332L33.2834 7.38332C33.3942 7.27469 33.4823 7.14504 33.5424 7.00195C33.6025 6.85886 33.6335 6.7052 33.6335 6.54999C33.6335 6.39477 33.6025 6.24113 33.5424 6.09803C33.4823 5.95494 33.3942 5.82528 33.2834 5.71665C33.1772 5.60151 33.0484 5.50961 32.9049 5.44675C32.7615 5.38389 32.6066 5.35143 32.45 5.35143C32.2934 5.35143 32.1385 5.38389 31.9951 5.44675C31.8517 5.50961 31.7228 5.60151 31.6167 5.71665L30.4667 6.86666L30.0167 5.19999C29.905 4.92926 29.6957 4.71041 29.4301 4.58691C29.1646 4.4634 28.8623 4.44427 28.5834 4.53332C28.29 4.6116 28.0395 4.80272 27.8865 5.065C27.7335 5.32728 27.6904 5.63941 27.7667 5.93332L28.5667 8.89999L20.65 16.8V5.61666L23.3 4.08333C23.4292 4.00891 23.5424 3.90979 23.6332 3.79162C23.724 3.67345 23.7907 3.53855 23.8294 3.39462C23.8681 3.25069 23.878 3.10055 23.8587 2.95277C23.8394 2.80498 23.7911 2.66246 23.7167 2.53333C23.6423 2.40419 23.5431 2.29098 23.425 2.20015C23.3068 2.10933 23.1719 2.04267 23.028 2.00397C22.8841 1.96528 22.7339 1.95532 22.5861 1.97465C22.4383 1.99399 22.2958 2.04224 22.1667 2.11666L20.65 2.98332V1.19999C20.6523 1.05054 20.6245 0.902156 20.5683 0.763638C20.5122 0.62512 20.4288 0.499278 20.3231 0.393587C20.2174 0.287896 20.0916 0.204499 19.953 0.14834C19.8145 0.0921806 19.6661 0.0644068 19.5167 0.0666546C19.3665 0.0644452 19.2173 0.0921331 19.0779 0.148098C18.9384 0.204064 18.8115 0.287185 18.7045 0.392646C18.5975 0.498106 18.5125 0.623792 18.4545 0.762392C18.3965 0.900992 18.3667 1.04974 18.3667 1.19999V8.19998C15.536 8.46578 12.9064 9.77821 10.9923 11.8805C9.07817 13.9827 8.01733 16.7235 8.01733 19.5667C8.01733 22.4098 9.07817 25.1506 10.9923 27.2528C12.9064 29.3551 15.536 30.6675 18.3667 30.9333V37.8667C18.3667 38.1717 18.4878 38.4642 18.7035 38.6798C18.9192 38.8955 19.2117 39.0167 19.5167 39.0167C19.6669 39.0167 19.8157 38.9868 19.9543 38.9288C20.0929 38.8708 20.2186 38.7858 20.324 38.6788C20.4295 38.5718 20.5126 38.4449 20.5686 38.3055C20.6245 38.166 20.6522 38.0169 20.65 37.8667V36.0833L22.1667 36.9667C22.3394 37.0648 22.5347 37.1164 22.7334 37.1167C22.9333 37.1205 23.1305 37.0698 23.3037 36.9699C23.477 36.8701 23.6198 36.7249 23.7167 36.55C23.8682 36.2868 23.9094 35.9743 23.8314 35.6808C23.7533 35.3872 23.5623 35.1365 23.3 34.9833L20.65 33.45V22.2667L28.5834 30.1667L27.7834 33.1166C27.7405 33.2622 27.7272 33.4149 27.7445 33.5656C27.7617 33.7164 27.809 33.8621 27.8836 33.9943C27.9582 34.1264 28.0586 34.2422 28.1788 34.3348C28.299 34.4274 28.4366 34.4949 28.5834 34.5333C28.6827 34.5498 28.784 34.5498 28.8834 34.5333C29.1351 34.5339 29.3798 34.4507 29.579 34.2968C29.7782 34.1429 29.9204 33.927 29.9834 33.6833L30.4334 32.0167L31.5834 33.15C31.6857 33.2598 31.8095 33.3476 31.9471 33.4078C32.0847 33.468 32.2332 33.4994 32.3834 33.5C32.6084 33.4981 32.828 33.4303 33.0149 33.3048C33.2017 33.1794 33.3477 33.0019 33.4347 32.7943C33.5216 32.5867 33.5457 32.3581 33.504 32.1369C33.4623 31.9158 33.3566 31.7117 33.2 31.55L32.05 30.4L33.7167 29.95C33.9957 29.8575 34.2287 29.6617 34.3678 29.4029C34.507 29.144 34.5417 28.8416 34.465 28.5579C34.3882 28.2742 34.2057 28.0307 33.9549 27.8773C33.7042 27.724 33.4042 27.6724 33.1167 27.7333L30.1667 28.5333L22.25 20.6166H33.4334L34.9667 23.2667C35.0682 23.4425 35.2138 23.5888 35.3892 23.6911C35.5646 23.7934 35.7637 23.8482 35.9667 23.85C36.1676 23.8498 36.3643 23.792 36.5334 23.6833C36.7911 23.5303 36.979 23.2826 37.0568 22.993C37.1346 22.7035 37.0963 22.395 36.95 22.1333L36.0834 20.6166H37.85C38.0002 20.6189 38.1494 20.5912 38.2888 20.5352C38.4283 20.4792 38.5552 20.3961 38.6622 20.2907C38.7692 20.1852 38.8542 20.0595 38.9122 19.9209C38.9702 19.7823 39 19.6336 39 19.4833C39 19.1783 38.8789 18.8858 38.6632 18.6702C38.4475 18.4545 38.155 18.3333 37.85 18.3333V18.35ZM10.35 19.5C10.3526 17.2743 11.1664 15.1258 12.639 13.4569C14.1116 11.788 16.142 10.7131 18.35 10.4333V28.5667C16.1434 28.2835 14.1151 27.2076 12.6431 25.5394C11.1712 23.8712 10.3562 21.7247 10.35 19.5Z" fill="#692685"/>
<path d="M5.95 19.5333C5.95 19.2283 5.82884 18.9358 5.61317 18.7202C5.39751 18.5045 5.105 18.3833 4.8 18.3833H1.13333C0.831232 18.3877 0.542994 18.5108 0.330919 18.726C0.118843 18.9412 -3.17253e-05 19.2312 6.35102e-09 19.5333C6.35101e-09 19.8339 0.119407 20.1222 0.331949 20.3347C0.54449 20.5473 0.832755 20.6667 1.13333 20.6667H4.8C4.95023 20.6689 5.0994 20.6412 5.23883 20.5852C5.37826 20.5293 5.50518 20.4461 5.61219 20.3407C5.7192 20.2352 5.80417 20.1095 5.86217 19.9709C5.92016 19.8323 5.95002 19.6836 5.95 19.5333Z" fill="#692685"/>
<path d="M8.30011 9.91666C8.5131 10.1279 8.80018 10.2475 9.10011 10.25C9.40512 10.2483 9.69768 10.1289 9.91677 9.91666C10.0319 9.81053 10.1238 9.68167 10.1867 9.53825C10.2495 9.39482 10.282 9.23993 10.282 9.08333C10.282 8.92673 10.2495 8.77183 10.1867 8.6284C10.1238 8.48497 10.0319 8.35613 9.91677 8.25L7.31678 5.64999C7.09576 5.42898 6.796 5.30481 6.48344 5.30481C6.17088 5.30481 5.87112 5.42898 5.65011 5.64999C5.4291 5.871 5.30493 6.17076 5.30493 6.48332C5.30493 6.79588 5.4291 7.09564 5.65011 7.31666L8.30011 9.91666Z" fill="#692685"/>
<path d="M8.30012 29.0833L5.71678 31.6667C5.60164 31.7728 5.50974 31.9017 5.44688 32.0451C5.38402 32.1885 5.35156 32.3434 5.35156 32.5C5.35156 32.6566 5.38402 32.8115 5.44688 32.9549C5.50974 33.0984 5.60164 33.2272 5.71678 33.3333C5.82292 33.4485 5.95176 33.5404 6.09519 33.6032C6.23862 33.6661 6.39352 33.6986 6.55011 33.6986C6.70671 33.6986 6.86161 33.6661 7.00504 33.6032C7.14847 33.5404 7.27731 33.4485 7.38345 33.3333L9.98345 30.75C10.0929 30.6406 10.1797 30.5107 10.2389 30.3677C10.2981 30.2247 10.3286 30.0714 10.3286 29.9167C10.3286 29.7619 10.2981 29.6087 10.2389 29.4657C10.1797 29.3227 10.0929 29.1928 9.98345 29.0833C9.87402 28.9739 9.7441 28.8871 9.60112 28.8279C9.45813 28.7687 9.30488 28.7382 9.15012 28.7382C8.99535 28.7382 8.8421 28.7687 8.69912 28.8279C8.55613 28.8871 8.42622 28.9739 8.31678 29.0833H8.30012Z" fill="#692685"/>
<path d="M12.9334 6.29999C13.0167 6.51073 13.1613 6.69166 13.3484 6.81941C13.5356 6.94716 13.7568 7.01586 13.9834 7.01665C14.1267 7.04188 14.2734 7.04188 14.4167 7.01665C14.6958 6.90192 14.9185 6.68212 15.037 6.40464C15.1555 6.12716 15.1602 5.81422 15.05 5.53332L13.6834 2.19999C13.5652 1.91973 13.3423 1.69669 13.0621 1.57838C12.7819 1.46008 12.4666 1.45588 12.1834 1.56666C11.9043 1.6814 11.6815 1.90121 11.5631 2.17869C11.4446 2.45617 11.4399 2.76909 11.55 3.04999L12.9334 6.29999Z" fill="#692685"/>
<path d="M6.91658 24.5334C6.86181 24.3938 6.7795 24.2667 6.67456 24.1597C6.56962 24.0526 6.4442 23.9678 6.30578 23.9102C6.16735 23.8527 6.01876 23.8236 5.86885 23.8247C5.71895 23.8258 5.5708 23.8571 5.43325 23.9167L2.09991 25.2833C1.84375 25.3743 1.62883 25.5544 1.49435 25.7906C1.35987 26.0269 1.31478 26.3036 1.36731 26.5703C1.41985 26.837 1.56651 27.076 1.78053 27.2436C1.99456 27.4112 2.26171 27.4963 2.53324 27.4834C2.67113 27.507 2.81203 27.507 2.94991 27.4834L6.28324 26.1167C6.43389 26.0608 6.57115 25.974 6.6862 25.8619C6.80124 25.7497 6.89151 25.6147 6.95118 25.4655C7.01085 25.3163 7.03859 25.1563 7.03264 24.9958C7.02668 24.8352 6.98714 24.6777 6.91658 24.5334Z" fill="#692685"/>
<path d="M14.35 32.0333C14.0691 31.9232 13.7562 31.9279 13.4787 32.0464C13.2012 32.1648 12.9814 32.3876 12.8667 32.6667L11.4834 36C11.4238 36.1376 11.3925 36.2857 11.3914 36.4356C11.3903 36.5855 11.4194 36.7341 11.4769 36.8725C11.5345 37.0109 11.6193 37.1364 11.7263 37.2413C11.8334 37.3462 11.9605 37.4286 12.1 37.4833C12.2427 37.515 12.3907 37.515 12.5334 37.4833C12.7599 37.4828 12.9814 37.4163 13.1709 37.292C13.3603 37.1677 13.5094 36.991 13.6 36.7833L14.9834 33.45C15.0941 33.1667 15.0899 32.8514 14.9716 32.5712C14.8533 32.2911 14.6303 32.0681 14.35 31.95V32.0333Z" fill="#692685"/>
<path d="M2.08343 13.5833L5.41676 14.9833C5.5601 15.0085 5.70676 15.0085 5.8501 14.9833C6.11048 14.9755 6.36049 14.8795 6.55919 14.7111C6.7579 14.5426 6.89353 14.3117 6.94387 14.0561C6.99422 13.8005 6.9563 13.5354 6.83631 13.3042C6.71633 13.0729 6.52139 12.8893 6.28343 12.7833L2.9501 11.4C2.81221 11.3431 2.66447 11.3139 2.5153 11.3141C2.36613 11.3143 2.21845 11.3439 2.08071 11.4011C1.80253 11.5168 1.58169 11.7382 1.46676 12.0167C1.35184 12.2951 1.35224 12.6079 1.46789 12.886C1.58354 13.1642 1.80495 13.3851 2.08343 13.5V13.5833Z" fill="#692685"/>
</g>
<defs>
<clipPath id="clip0_402_234">
<rect width="39" height="39" fill="white"/>
</clipPath>
</defs>
</svg>
