<svg width="24" height="25" viewBox="0 0 24 25" fill="none" xmlns="http://www.w3.org/2000/svg">
<g clip-path="url(#clip0_719_4662)">
<path d="M12 24.5C18.6274 24.5 24 19.1274 24 12.5C24 5.87258 18.6274 0.5 12 0.5C5.37258 0.5 0 5.87258 0 12.5C0 19.1274 5.37258 24.5 12 24.5Z" fill="#6DA544"/>
<path d="M11.9999 5.19568L21.913 12.5L11.9999 19.8044L2.08691 12.5L11.9999 5.19568Z" fill="#FFDA44"/>
<path d="M12.0001 16.6739C14.3052 16.6739 16.174 14.8052 16.174 12.5C16.174 10.1948 14.3052 8.32611 12.0001 8.32611C9.69489 8.32611 7.82617 10.1948 7.82617 12.5C7.82617 14.8052 9.69489 16.6739 12.0001 16.6739Z" fill="#F0F0F0"/>
<path d="M9.91276 12.2391C9.18695 12.2391 8.48649 12.3495 7.82715 12.5544C7.85635 14.8344 9.71279 16.6739 11.9997 16.6739C13.4139 16.6739 14.6628 15.97 15.4178 14.8942C14.1261 13.2771 12.1385 12.2391 9.91276 12.2391Z" fill="#0052B4"/>
<path d="M16.0962 13.2997C16.1464 13.0408 16.1735 12.7736 16.1735 12.5C16.1735 10.1948 14.3048 8.32611 11.9997 8.32611C10.2796 8.32611 8.80306 9.36678 8.16406 10.8526C8.72891 10.7356 9.31372 10.6739 9.91273 10.6739C12.337 10.6739 14.5301 11.6816 16.0962 13.2997Z" fill="#0052B4"/>
</g>
<defs>
<clipPath id="clip0_719_4662">
<rect width="24" height="24" fill="white" transform="translate(0 0.5)"/>
</clipPath>
</defs>
</svg>
