<svg width="282" height="64" viewBox="0 0 282 64" fill="none" xmlns="http://www.w3.org/2000/svg">
<path d="M86.2607 20.5768C86.2607 19.9248 86.4635 19.4483 86.8563 19.1348C87.2492 18.8213 87.7941 18.6708 88.4657 18.6708C88.9093 18.6708 89.3148 18.7335 89.695 18.8464C90.0625 18.9592 90.3159 19.047 90.43 19.0846V28.1881H102.748V20.5768C102.748 19.9248 102.938 19.4483 103.331 19.1348C103.711 18.8213 104.243 18.6708 104.927 18.6708C105.396 18.6708 105.814 18.7335 106.182 18.8464C106.549 18.9592 106.803 19.0596 106.917 19.1222V42.4201H102.76V31.9624H90.4427V42.4201H86.2861V20.5768H86.2607Z" fill="#00735E"/>
<path d="M127.294 42.3448C127.066 42.395 126.699 42.4451 126.192 42.4953C125.685 42.558 125.102 42.6081 124.43 42.6708C123.759 42.7335 122.998 42.7837 122.162 42.8213C121.325 42.8715 120.451 42.8965 119.539 42.8965C117.714 42.8965 116.231 42.7461 115.078 42.4326C113.925 42.1191 113.012 41.7053 112.353 41.1912C111.694 40.6771 111.238 40.0752 110.985 39.3856C110.744 38.7085 110.617 38.0063 110.617 37.2915C110.617 36.3511 110.757 35.511 111.061 34.7962C111.352 34.0815 111.834 33.4796 112.493 32.9906C113.152 32.5016 114.026 32.1379 115.103 31.8997C116.18 31.6614 117.486 31.536 119.019 31.536C119.906 31.536 120.742 31.5611 121.541 31.6238C122.339 31.6865 122.922 31.7367 123.328 31.7743C123.328 30.9718 123.188 30.2947 122.922 29.768C122.656 29.2414 122.289 28.8276 121.82 28.5266C121.351 28.2257 120.793 28.0251 120.147 27.8997C119.488 27.7868 118.766 27.7241 117.98 27.7241C116.649 27.7241 115.585 27.8746 114.774 28.1755C113.975 28.4765 113.443 28.7273 113.177 28.9404C113.038 28.8276 112.848 28.6019 112.594 28.2884C112.353 27.9624 112.227 27.5737 112.227 27.1097C112.227 26.7837 112.315 26.4702 112.493 26.1567C112.67 25.8433 112.974 25.5674 113.418 25.3292C113.861 25.0909 114.457 24.9028 115.205 24.7524C115.952 24.6144 116.89 24.5392 118.043 24.5392C119.425 24.5392 120.666 24.6771 121.807 24.9404C122.935 25.2038 123.911 25.6301 124.722 26.2069C125.533 26.7837 126.179 27.5486 126.622 28.489C127.079 29.4295 127.307 30.5831 127.307 31.9122V42.3448H127.294ZM123.34 34.6583C123.112 34.6081 122.669 34.5455 122.022 34.4451C121.376 34.3574 120.413 34.3072 119.133 34.3072C117.549 34.3072 116.396 34.5455 115.673 35.0219C114.951 35.4984 114.584 36.2382 114.584 37.2539C114.584 37.6677 114.66 38.0439 114.812 38.395C114.964 38.7461 115.23 39.0345 115.597 39.2727C115.965 39.511 116.472 39.6991 117.118 39.8245C117.764 39.9498 118.563 40.0125 119.513 40.0125C120.59 40.0125 121.439 39.9749 122.06 39.8871C122.694 39.8119 123.112 39.7492 123.315 39.6991V34.6583H123.34Z" fill="#00735E"/>
<path d="M147.025 41.1285C146.835 41.2414 146.544 41.4044 146.151 41.6175C145.758 41.8307 145.264 42.0188 144.668 42.2069C144.072 42.395 143.388 42.558 142.602 42.6959C141.817 42.8338 140.968 42.9091 140.03 42.9091C138.725 42.9091 137.508 42.7085 136.38 42.3197C135.252 41.931 134.264 41.3417 133.402 40.5768C132.553 39.7994 131.882 38.8589 131.387 37.7429C130.893 36.627 130.652 35.3354 130.652 33.8809C130.652 32.5016 130.893 31.2351 131.375 30.094C131.856 28.953 132.515 27.9749 133.364 27.1473C134.213 26.3323 135.214 25.6928 136.368 25.2414C137.521 24.79 138.788 24.5643 140.157 24.5643C141.373 24.5643 142.438 24.7147 143.375 25.0282C144.313 25.3417 145.099 25.7555 145.733 26.2696C146.379 26.7837 146.86 27.3981 147.19 28.0878C147.519 28.7774 147.684 29.5172 147.684 30.3072C147.684 31.1097 147.532 31.8495 147.228 32.5016C146.924 33.1536 146.392 33.7304 145.619 34.1943C144.845 34.6708 143.806 35.0345 142.501 35.2978C141.196 35.5611 139.536 35.699 137.533 35.699C137.065 35.699 136.634 35.699 136.216 35.6865C135.81 35.674 135.366 35.6614 134.898 35.6364C135.088 36.815 135.658 37.768 136.634 38.4953C137.597 39.2226 138.978 39.5862 140.778 39.5862C141.386 39.5862 141.943 39.536 142.45 39.4483C142.957 39.3605 143.426 39.2351 143.832 39.0972C144.237 38.9592 144.592 38.8213 144.884 38.6834C145.175 38.5454 145.39 38.4451 145.53 38.3699L147.025 41.1285ZM134.746 32.9279C135.278 32.953 135.797 32.9655 136.279 32.9655C136.773 32.9655 137.255 32.9655 137.749 32.9655C139.029 32.9655 140.068 32.8903 140.866 32.7273C141.665 32.5643 142.273 32.3636 142.717 32.1003C143.16 31.8495 143.452 31.5611 143.591 31.2351C143.73 30.9091 143.806 30.5831 143.806 30.232C143.806 29.3542 143.452 28.7022 142.742 28.2633C142.032 27.8244 141.145 27.6113 140.106 27.6113C139.244 27.6113 138.484 27.7617 137.838 28.0627C137.179 28.3636 136.634 28.7649 136.19 29.2539C135.747 29.7555 135.405 30.3197 135.164 30.9718C134.898 31.5987 134.771 32.2633 134.746 32.9279Z" fill="#00735E"/>
<path d="M150.231 18.7335C150.231 18.1066 150.422 17.6552 150.789 17.3542C151.157 17.0533 151.689 16.9028 152.36 16.9028C152.779 16.9028 153.159 16.953 153.514 17.0533C153.868 17.1536 154.097 17.2288 154.211 17.279V27.21C154.794 26.4702 155.592 25.8433 156.618 25.3292C157.645 24.815 158.823 24.5517 160.154 24.5517C161.434 24.5517 162.625 24.7774 163.702 25.2288C164.792 25.6802 165.73 26.3072 166.541 27.1348C167.339 27.9498 167.973 28.9279 168.429 30.0439C168.885 31.1599 169.113 32.3887 169.113 33.7304C169.113 35.047 168.885 36.2633 168.416 37.4044C167.948 38.5329 167.301 39.4984 166.452 40.3135C165.616 41.116 164.615 41.7555 163.461 42.2194C162.308 42.6834 161.041 42.9091 159.672 42.9091C158.291 42.9091 157.037 42.6959 155.883 42.2821C154.73 41.8683 153.729 41.2414 152.893 40.4138C152.056 39.5862 151.397 38.5455 150.928 37.3041C150.46 36.0627 150.231 34.5956 150.231 32.9028V18.7335ZM159.609 39.3354C160.407 39.3354 161.13 39.1975 161.801 38.8965C162.46 38.6081 163.043 38.2194 163.512 37.7179C163.994 37.2163 164.361 36.6395 164.615 35.9498C164.868 35.2727 164.995 34.5204 164.995 33.7179C164.995 32.9154 164.868 32.163 164.615 31.4734C164.361 30.7837 163.994 30.1818 163.512 29.6928C163.031 29.1912 162.46 28.8025 161.801 28.5141C161.142 28.2257 160.407 28.0752 159.609 28.0752C158.798 28.0752 158.05 28.2132 157.391 28.5141C156.732 28.8025 156.162 29.2038 155.693 29.7053C155.224 30.2069 154.857 30.8088 154.591 31.511C154.325 32.2006 154.185 32.9404 154.185 33.7304C154.185 34.558 154.325 35.3229 154.591 36.0125C154.857 36.7022 155.237 37.2915 155.706 37.7806C156.187 38.2696 156.758 38.6458 157.417 38.9216C158.088 39.1975 158.823 39.3354 159.609 39.3354Z" fill="#00735E"/>
<path d="M188.324 42.3448C188.096 42.395 187.729 42.4451 187.222 42.4953C186.715 42.558 186.132 42.6081 185.46 42.6708C184.789 42.7335 184.028 42.7837 183.192 42.8213C182.356 42.8715 181.481 42.8965 180.569 42.8965C178.744 42.8965 177.261 42.7461 176.108 42.4326C174.955 42.1191 174.043 41.7053 173.384 41.1912C172.725 40.6771 172.268 40.0752 172.015 39.3856C171.774 38.7085 171.647 38.0063 171.647 37.2915C171.647 36.3511 171.787 35.511 172.091 34.7962C172.382 34.0815 172.864 33.4796 173.523 32.9906C174.182 32.5016 175.056 32.1379 176.134 31.8997C177.211 31.6614 178.516 31.536 180.049 31.536C180.936 31.536 181.773 31.5611 182.571 31.6238C183.369 31.6865 183.952 31.7367 184.358 31.7743C184.358 30.9718 184.219 30.2947 183.952 29.768C183.686 29.2414 183.319 28.8276 182.85 28.5266C182.381 28.2257 181.823 28.0251 181.177 27.8997C180.518 27.7868 179.796 27.7241 179.01 27.7241C177.68 27.7241 176.615 27.8746 175.804 28.1755C175.006 28.4765 174.473 28.7273 174.207 28.9404C174.068 28.8276 173.878 28.6019 173.624 28.2884C173.384 27.9624 173.257 27.5737 173.257 27.1097C173.257 26.7837 173.346 26.4702 173.523 26.1567C173.7 25.8433 174.005 25.5674 174.448 25.3292C174.892 25.0909 175.487 24.9028 176.235 24.7524C176.983 24.6144 177.92 24.5392 179.074 24.5392C180.455 24.5392 181.697 24.6771 182.837 24.9404C183.965 25.2038 184.941 25.6301 185.752 26.2069C186.563 26.7837 187.209 27.5486 187.653 28.489C188.109 29.4295 188.337 30.5831 188.337 31.9122V42.3448H188.324ZM184.371 34.6583C184.142 34.6081 183.699 34.5455 183.053 34.4451C182.406 34.3574 181.443 34.3072 180.163 34.3072C178.579 34.3072 177.426 34.5455 176.704 35.0219C175.981 35.4984 175.614 36.2382 175.614 37.2539C175.614 37.6677 175.69 38.0439 175.842 38.395C175.994 38.7461 176.26 39.0345 176.628 39.2727C176.995 39.511 177.502 39.6991 178.148 39.8245C178.795 39.9498 179.593 40.0125 180.544 40.0125C181.621 40.0125 182.47 39.9749 183.091 39.8871C183.724 39.8119 184.142 39.7492 184.345 39.6991V34.6583H184.371Z" fill="#00735E"/>
<path d="M192.418 31.2351C192.418 29.116 193.077 27.4733 194.395 26.3072C195.713 25.1411 197.538 24.5643 199.869 24.5643C201.339 24.5643 202.531 24.7649 203.456 25.1661C204.381 25.5674 204.837 26.1818 204.837 27.0219C204.837 27.4106 204.723 27.7994 204.507 28.163C204.292 28.5266 204.102 28.7649 203.963 28.8527C203.57 28.6646 203.075 28.489 202.493 28.3385C201.91 28.1755 201.251 28.1003 200.503 28.1003C197.778 28.1003 196.41 29.5298 196.41 32.3887V42.4201H192.418V31.2351Z" fill="#00735E"/>
<path d="M222.426 42.3448C222.198 42.395 221.83 42.4451 221.323 42.4953C220.817 42.558 220.234 42.6081 219.562 42.6708C218.89 42.7335 218.13 42.7837 217.294 42.8213C216.457 42.8715 215.583 42.8965 214.67 42.8965C212.846 42.8965 211.363 42.7461 210.21 42.4326C209.057 42.1191 208.144 41.7053 207.485 41.1912C206.826 40.6771 206.37 40.0752 206.117 39.3856C205.876 38.7085 205.749 38.0063 205.749 37.2915C205.749 36.3511 205.888 35.511 206.193 34.7962C206.484 34.0815 206.966 33.4796 207.625 32.9906C208.284 32.5016 209.158 32.1379 210.235 31.8997C211.312 31.6614 212.618 31.536 214.151 31.536C215.038 31.536 215.874 31.5611 216.673 31.6238C217.471 31.6865 218.054 31.7367 218.459 31.7743C218.459 30.9718 218.32 30.2947 218.054 29.768C217.788 29.2414 217.42 28.8276 216.951 28.5266C216.483 28.2257 215.925 28.0251 215.279 27.8997C214.62 27.7868 213.897 27.7241 213.112 27.7241C211.781 27.7241 210.717 27.8746 209.906 28.1755C209.107 28.4765 208.575 28.7273 208.309 28.9404C208.169 28.8276 207.979 28.6019 207.726 28.2884C207.485 27.9624 207.358 27.5737 207.358 27.1097C207.358 26.7837 207.447 26.4702 207.625 26.1567C207.802 25.8433 208.106 25.5674 208.55 25.3292C208.993 25.0909 209.589 24.9028 210.336 24.7524C211.084 24.6144 212.022 24.5392 213.175 24.5392C214.556 24.5392 215.798 24.6771 216.939 24.9404C218.067 25.2038 219.042 25.6301 219.853 26.2069C220.665 26.7837 221.311 27.5486 221.754 28.489C222.211 29.4295 222.439 30.5831 222.439 31.9122V42.3448H222.426ZM218.472 34.6583C218.244 34.6081 217.801 34.5455 217.154 34.4451C216.508 34.3574 215.545 34.3072 214.265 34.3072C212.681 34.3072 211.528 34.5455 210.805 35.0219C210.083 35.4984 209.716 36.2382 209.716 37.2539C209.716 37.6677 209.792 38.0439 209.944 38.395C210.096 38.7461 210.362 39.0345 210.729 39.2727C211.097 39.511 211.604 39.6991 212.25 39.8245C212.896 39.9498 213.695 40.0125 214.645 40.0125C215.722 40.0125 216.571 39.9749 217.192 39.8871C217.826 39.8119 218.244 39.7492 218.447 39.6991V34.6583H218.472Z" fill="#00735E"/>
<path d="M228.724 45.3919C228.813 45.442 229.016 45.5298 229.333 45.6552C229.649 45.7806 230.042 45.906 230.524 46.0313C231.005 46.1567 231.563 46.2696 232.197 46.3574C232.843 46.4451 233.527 46.4953 234.275 46.4953C235.073 46.4953 235.846 46.4075 236.619 46.232C237.392 46.0564 238.077 45.7429 238.685 45.2915C239.293 44.8401 239.787 44.2132 240.167 43.4107C240.548 42.6082 240.75 41.5674 240.75 40.3009V39.8871C240.218 40.5141 239.432 41.1035 238.419 41.6552C237.405 42.2069 236.188 42.4828 234.769 42.4828C233.464 42.4828 232.26 42.2696 231.17 41.8433C230.08 41.4169 229.13 40.8151 228.331 40.0376C227.533 39.2602 226.925 38.3323 226.481 37.2539C226.038 36.1755 225.822 34.9718 225.822 33.6552C225.822 32.3386 226.063 31.1348 226.545 30.0188C227.026 28.9154 227.685 27.9498 228.522 27.1473C229.358 26.3448 230.372 25.7053 231.55 25.2414C232.729 24.7774 234.021 24.5517 235.415 24.5517C236.746 24.5517 237.975 24.7524 239.103 25.1411C240.231 25.5298 241.219 26.1317 242.056 26.9342C242.892 27.7367 243.551 28.7649 244.02 30.0188C244.489 31.2602 244.717 32.7273 244.717 34.4201V39.3981C244.717 41.2163 244.463 42.7837 243.969 44.0878C243.462 45.3919 242.778 46.4577 241.891 47.2853C241.004 48.1129 239.952 48.7273 238.723 49.1034C237.494 49.4796 236.163 49.6803 234.718 49.6803C233.768 49.6803 232.894 49.6301 232.108 49.5298C231.322 49.4295 230.638 49.3041 230.03 49.1536C229.421 49.0031 228.927 48.8527 228.522 48.7022C228.129 48.5517 227.837 48.4263 227.647 48.3386L228.724 45.3919ZM235.365 39.1599C236.163 39.1599 236.885 39.0219 237.532 38.7461C238.178 38.4702 238.748 38.094 239.204 37.605C239.673 37.116 240.041 36.5392 240.307 35.8746C240.573 35.21 240.712 34.4702 240.712 33.6552C240.712 32.8652 240.573 32.1379 240.307 31.4608C240.041 30.7837 239.673 30.1944 239.204 29.6928C238.735 29.1912 238.178 28.8151 237.532 28.5392C236.873 28.2633 236.15 28.1254 235.365 28.1254C234.554 28.1254 233.806 28.2633 233.147 28.5517C232.488 28.8401 231.918 29.2414 231.449 29.7429C230.98 30.2445 230.625 30.8339 230.359 31.511C230.106 32.1756 229.979 32.8903 229.979 33.6552C229.979 35.3103 230.473 36.652 231.449 37.6552C232.425 38.6583 233.73 39.1599 235.365 39.1599Z" fill="#00735E"/>
<path d="M250.546 17.2539C251.218 17.2539 251.788 17.4796 252.257 17.9436C252.726 18.4075 252.954 18.9718 252.954 19.6364C252.954 20.3009 252.726 20.8652 252.257 21.3291C251.788 21.7931 251.218 22.0188 250.546 22.0188C249.875 22.0188 249.305 21.7931 248.836 21.3291C248.367 20.8652 248.139 20.3009 248.139 19.6364C248.139 18.9718 248.367 18.4075 248.836 17.9436C249.305 17.4796 249.875 17.2539 250.546 17.2539ZM248.557 26.8715C248.557 26.2194 248.747 25.7555 249.114 25.4671C249.482 25.1787 250.014 25.0282 250.686 25.0282C251.104 25.0282 251.484 25.0784 251.839 25.1787C252.194 25.279 252.422 25.3542 252.536 25.4044V42.395H248.544V26.8715H248.557Z" fill="#00735E"/>
<path d="M51.1458 19.4106C50.4615 20.3636 49.8278 21.4295 49.3336 22.7335C48.6873 22.3824 48.079 21.9561 47.5088 21.4796C48.5859 20.5893 49.8152 19.8871 51.1458 19.4106Z" fill="#00735E"/>
<path d="M46.3557 22.5831C47.1287 23.2351 47.9651 23.7994 48.8395 24.2633C48.3833 25.906 48.1045 27.7743 48.0412 29.7555H43.251C43.4411 26.9969 44.5816 24.5016 46.3557 22.5831Z" fill="#00735E"/>
<path d="M43.2637 31.3229H48.0539C48.1045 33.0407 48.32 34.6583 48.6748 36.1254C47.699 36.652 46.7993 37.3041 45.9756 38.0564C44.4169 36.2006 43.4284 33.8683 43.2637 31.3229Z" fill="#00735E"/>
<path d="M47.0654 39.1975C47.6991 38.6207 48.3834 38.1066 49.1057 37.6802C49.6253 39.2602 50.4616 40.5016 51.146 41.6552C49.6253 41.116 48.2313 40.2759 47.0654 39.1975Z" fill="#00735E"/>
<path d="M54.3779 42.2194C53.288 41.8558 52.2362 40.7649 51.3998 39.0972C51.0704 38.4451 50.7916 37.7304 50.5508 36.9655C51.7547 36.4639 53.0473 36.163 54.3779 36.0752V42.2194Z" fill="#00735E"/>
<path d="M54.3772 34.5078C52.9199 34.5956 51.4879 34.9091 50.1319 35.4483C49.8531 34.1567 49.6757 32.7774 49.6377 31.3354H54.3772V34.5078Z" fill="#00735E"/>
<path d="M54.3772 29.7555H49.6377C49.6884 28.0502 49.9165 26.4075 50.3093 24.9279C51.6019 25.4169 52.9706 25.7179 54.3772 25.7931V29.7555Z" fill="#00735E"/>
<path d="M54.3773 24.2132C53.1354 24.1379 51.9188 23.8621 50.7783 23.4107C50.9684 22.9091 51.1712 22.4201 51.3993 21.9686C52.2357 20.3009 53.2875 19.21 54.3773 18.8464V24.2132Z" fill="#00735E"/>
<path d="M59.2061 41.6677C59.9411 40.6144 60.7268 39.2727 61.2463 37.6928C61.9687 38.1191 62.653 38.6207 63.2866 39.21C62.1207 40.2759 60.7394 41.116 59.2061 41.6677Z" fill="#00735E"/>
<path d="M64.3887 38.0564C63.565 37.3041 62.6652 36.652 61.6895 36.1254C62.0443 34.6583 62.2597 33.0407 62.3104 31.3229H67.1006C66.9232 33.8683 65.9347 36.2006 64.3887 38.0564Z" fill="#00735E"/>
<path d="M67.0876 29.7555H62.2974C62.234 27.7743 61.9552 25.906 61.499 24.2633C62.3861 23.7994 63.2098 23.2351 63.9828 22.5831C65.7696 24.5016 66.9102 26.9969 67.0876 29.7555Z" fill="#00735E"/>
<path d="M62.843 21.4796C62.2728 21.9561 61.6645 22.3699 61.0182 22.7335C60.524 21.4295 59.8777 20.3385 59.2061 19.4106C60.5493 19.8871 61.7659 20.5893 62.843 21.4796Z" fill="#00735E"/>
<path d="M55.9736 18.8589C57.0635 19.2226 58.1153 20.3135 58.9517 21.9812C59.1798 22.4326 59.3825 22.9091 59.5726 23.4232C58.4321 23.8746 57.2282 24.1379 55.9736 24.2257V18.8589Z" fill="#00735E"/>
<path d="M55.9736 25.7931C57.3803 25.7179 58.7489 25.4169 60.0415 24.9279C60.4343 26.4075 60.6624 28.0502 60.7131 29.7555H55.9736V25.7931Z" fill="#00735E"/>
<path d="M55.9736 31.3229H60.7131C60.6624 32.7649 60.4977 34.1442 60.2189 35.4357C58.863 34.8965 57.4436 34.5831 55.9736 34.4953V31.3229Z" fill="#00735E"/>
<path d="M55.9736 36.0752C57.3042 36.163 58.5968 36.4639 59.8007 36.9655C59.5599 37.7304 59.2685 38.4451 58.9517 39.0972C58.1153 40.7649 57.0635 41.8558 55.9736 42.2194V36.0752Z" fill="#00735E"/>
<path d="M43.3644 18.6207C43.8839 18.094 43.4404 16.8276 42.3759 15.7994C41.3114 14.7712 39.5119 14.8965 39.5119 14.8965C39.5119 14.8965 39.4359 16.6896 40.5004 17.7179C41.5522 18.7461 42.8448 19.1473 43.3644 18.6207Z" fill="#00735E"/>
<path d="M50.385 16.0878C48.5475 13.2163 44.4163 12.5266 44.4163 12.5266C44.4163 12.5266 43.2757 16.5016 45.1132 19.3856C45.3667 19.7743 45.6328 20.1379 45.9116 20.4765C47.3943 19.1348 49.1684 18.094 51.1453 17.4922C50.9299 17.0282 50.6891 16.5643 50.385 16.0878Z" fill="#00735E"/>
<path d="M41.8309 27.4357C41.3747 27.3856 40.9058 27.348 40.4116 27.348C36.9647 27.348 34.1768 30.4326 34.1768 30.4326C34.1768 30.4326 36.9647 33.5172 40.4116 33.5172C40.9058 33.5172 41.3747 33.4796 41.8309 33.4295C41.6155 32.4514 41.4888 31.4608 41.4888 30.4326C41.4888 29.4044 41.6155 28.4013 41.8309 27.4357Z" fill="#00735E"/>
<path d="M35.8502 27.1097C37.3075 27.3981 38.6128 27.0596 38.7649 26.3323C38.9169 25.605 37.8525 24.79 36.3951 24.489C34.9378 24.2006 33.4805 25.2664 33.4805 25.2664C33.4805 25.2664 34.3929 26.8088 35.8502 27.1097Z" fill="#00735E"/>
<path d="M59.5351 14.6834C60.2575 14.884 61.1572 13.8934 61.55 12.4765C61.9429 11.0596 60.9798 9.55486 60.9798 9.55486C60.9798 9.55486 59.3577 10.3448 58.9649 11.7618C58.5593 13.1661 58.8255 14.4828 59.5351 14.6834Z" fill="#00735E"/>
<path d="M69.9516 18.3323C71.016 17.3041 70.94 15.511 70.94 15.511C70.94 15.511 69.1405 15.3856 68.076 16.4138C67.0116 17.442 66.568 18.7085 67.0876 19.2351C67.5945 19.7743 68.8871 19.3605 69.9516 18.3323Z" fill="#00735E"/>
<path d="M71.7635 26.558C71.9156 27.2853 73.2081 27.6238 74.6782 27.3354C76.1355 27.047 77.0479 25.5047 77.0479 25.5047C77.0479 25.5047 75.6032 24.4389 74.1332 24.7273C72.6759 25.0157 71.6114 25.8307 71.7635 26.558Z" fill="#00735E"/>
<path d="M68.4688 33.4169C68.9376 33.4796 69.4319 33.5047 69.9388 33.5047C73.3857 33.5047 76.1736 30.4201 76.1736 30.4201C76.1736 30.4201 73.3857 27.3354 69.9388 27.3354C69.4319 27.3354 68.9376 27.373 68.4688 27.4232C68.925 29.4044 68.925 31.4483 68.4688 33.4169Z" fill="#00735E"/>
<path d="M38.5871 34.7461C38.4351 34.0188 37.1425 33.6802 35.6725 33.9686C34.2151 34.2571 33.3027 35.8119 33.3027 35.8119C33.3027 35.8119 34.7474 36.8777 36.2174 36.5893C37.6747 36.2884 38.7392 35.4734 38.5871 34.7461Z" fill="#00735E"/>
<path d="M65.2372 19.3856C67.0747 16.5141 65.9341 12.5266 65.9341 12.5266C65.9341 12.5266 61.8156 13.2163 59.9654 16.0878C59.6613 16.5643 59.4205 17.0407 59.2051 17.5047C61.1313 18.094 62.9054 19.1097 64.4135 20.5016C64.7049 20.163 64.9837 19.7868 65.2372 19.3856Z" fill="#00735E"/>
<path d="M69.4321 26.2069C72.5622 24.8025 73.8167 20.8527 73.8167 20.8527C73.8167 20.8527 69.9897 19.1849 66.8596 20.5893C66.302 20.8401 65.8077 21.1285 65.3389 21.4169C66.7455 22.9718 67.734 24.7523 68.2915 26.6458C68.659 26.5329 69.0519 26.3824 69.4321 26.2069Z" fill="#00735E"/>
<path d="M43.6183 20.3636C40.4882 18.9592 36.6611 20.627 36.6611 20.627C36.6611 20.627 37.9157 24.5768 41.0458 25.9812C41.4006 26.1442 41.7555 26.2821 42.1103 26.395C42.7312 24.4389 43.7957 22.6708 45.177 21.2038C44.6955 20.9028 44.1759 20.6144 43.6183 20.3636Z" fill="#00735E"/>
<path d="M60.1556 45.0533C61.9931 47.9248 66.1243 48.6144 66.1243 48.6144C66.1243 48.6144 67.2648 44.6395 65.4273 41.7555C65.0979 41.2539 64.7557 40.79 64.3882 40.3762C62.8675 41.7555 61.1187 42.7461 59.2559 43.3229C59.4966 43.8997 59.7881 44.4765 60.1556 45.0533Z" fill="#00735E"/>
<path d="M59.5222 46.395C58.7998 46.5956 58.5464 47.8997 58.9519 49.3166C59.3447 50.7335 60.9668 51.5235 60.9668 51.5235C60.9668 51.5235 61.9426 50.0188 61.5371 48.6019C61.1442 47.1975 60.2445 46.2069 59.5222 46.395Z" fill="#00735E"/>
<path d="M67.0749 41.8433C66.5553 42.3699 66.9989 43.6364 68.0633 44.6646C69.1278 45.6928 70.9273 45.5674 70.9273 45.5674C70.9273 45.5674 71.0033 43.7743 69.9389 42.7461C68.8871 41.7179 67.5945 41.3166 67.0749 41.8433Z" fill="#00735E"/>
<path d="M74.5004 33.9686C73.0431 33.6802 71.7378 34.0188 71.5858 34.7461C71.4337 35.4734 72.4982 36.2884 73.9555 36.5768C75.4128 36.8652 76.8702 35.7994 76.8702 35.7994C76.8702 35.7994 75.9577 34.2696 74.5004 33.9686Z" fill="#00735E"/>
<path d="M69.4318 34.9091C69.0263 34.721 68.6081 34.5705 68.2025 34.4326C67.6196 36.3009 66.6058 38.069 65.1738 39.5862C65.6807 39.9248 66.2383 40.2382 66.8466 40.5141C69.9767 41.9185 73.8038 40.2508 73.8038 40.2508C73.8038 40.2508 72.5619 36.3135 69.4318 34.9091Z" fill="#00735E"/>
<path d="M52.1844 43.6238C52.121 44.1128 52.0703 44.627 52.0703 45.1536C52.0703 48.5643 55.1877 51.3229 55.1877 51.3229C55.1877 51.3229 58.3052 48.5643 58.3052 45.1536C58.3052 44.6144 58.2671 44.1003 58.1911 43.5987C56.2269 44.0502 54.1739 44.0502 52.1844 43.6238Z" fill="#00735E"/>
<path d="M41.0458 34.7461C37.9157 36.1505 36.6611 40.1003 36.6611 40.1003C36.6611 40.1003 40.4882 41.768 43.6183 40.3636C44.1505 40.1254 44.6321 39.8495 45.101 39.5611C43.6943 38.0439 42.6552 36.2759 42.0723 34.3448C41.7301 34.4702 41.388 34.5956 41.0458 34.7461Z" fill="#00735E"/>
<path d="M58.1784 17.2539C58.2291 16.8025 58.2671 16.3386 58.2671 15.8495C58.2671 12.4389 55.1496 9.68025 55.1496 9.68025C55.1496 9.68025 52.0322 12.4389 52.0322 15.8495C52.0322 16.3386 52.0702 16.8025 52.1209 17.2539C53.0967 17.0408 54.0978 16.9154 55.137 16.9154C56.1888 16.9028 57.1899 17.0282 58.1784 17.2539Z" fill="#00735E"/>
<path d="M40.0824 43.1222C39.0179 44.1505 39.094 45.9436 39.094 45.9436C39.094 45.9436 40.8934 46.069 41.9579 45.0407C43.0224 44.0125 43.4659 42.7461 42.9464 42.2194C42.4268 41.6802 41.1469 42.094 40.0824 43.1222Z" fill="#00735E"/>
<path d="M44.9365 41.768C43.099 44.6395 44.2395 48.627 44.2395 48.627C44.2395 48.627 48.358 47.9373 50.2082 45.0658C50.5757 44.489 50.8672 43.9122 51.108 43.348C49.2451 42.7712 47.4963 41.7931 45.9756 40.4138C45.5954 40.8276 45.2533 41.2665 44.9365 41.768Z" fill="#00735E"/>
<path d="M51.1585 14.6834C51.8808 14.4828 52.1343 13.1787 51.7288 11.7618C51.3359 10.3448 49.7138 9.55486 49.7138 9.55486C49.7138 9.55486 48.7381 11.0596 49.1436 12.4765C49.5364 13.8809 50.4362 14.8715 51.1585 14.6834Z" fill="#00735E"/>
<path d="M50.9812 46.395C50.2588 46.1943 49.3591 47.1849 48.9663 48.6019C48.5734 50.0188 49.5365 51.5235 49.5365 51.5235C49.5365 51.5235 51.1586 50.7335 51.5514 49.3166C51.957 47.9122 51.7035 46.5956 50.9812 46.395Z" fill="#00735E"/>
</svg>
