<svg width="36" height="36" viewBox="0 0 36 36" fill="none" xmlns="http://www.w3.org/2000/svg">
<g clip-path="url(#clip0_416_35365)">
<path d="M17.9712 3.02354e-05C13.792 -0.00761558 9.73974 1.43504 6.5056 4.08187C3.27146 6.7287 1.05587 10.4157 0.236822 14.5139C-0.582227 18.612 0.046015 22.8674 2.01437 26.554C3.98272 30.2407 7.16922 33.1301 11.0302 34.7294C14.8912 36.3287 19.1875 36.5388 23.1862 35.3238C27.1848 34.1088 30.6379 31.544 32.9565 28.0669C35.2751 24.5899 36.3155 20.4161 35.9002 16.2576C35.4848 12.0991 33.6395 8.21353 30.6789 5.26381C29.0101 3.59498 27.029 2.27119 24.8486 1.36803C22.6682 0.464867 20.3312 2.06282e-05 17.9712 3.02354e-05ZM29.8332 29.8341C23.2827 36.3855 12.6618 36.3855 6.11058 29.8341C-0.440656 23.2827 -0.439942 12.6624 6.11058 6.11102C12.6611 -0.440343 23.2827 -0.439629 29.8332 6.11102C36.3837 12.6617 36.3837 23.2827 29.8332 29.8341Z" fill="#FF6565"/>
<path d="M8.65175 8.65258C10.8375 6.45547 13.7298 5.10217 16.8172 4.83206C19.9045 4.56194 22.9879 5.39241 25.5219 7.17658C25.5862 7.22252 25.6589 7.25529 25.7359 7.273C25.8129 7.29071 25.8926 7.29302 25.9705 7.27978C26.0484 7.26654 26.1229 7.23802 26.1897 7.19587C26.2565 7.15372 26.3143 7.09876 26.3598 7.03416C26.4053 6.96957 26.4375 6.89662 26.4547 6.8195C26.4718 6.74239 26.4736 6.66264 26.4598 6.58486C26.446 6.50707 26.4169 6.43279 26.3743 6.36628C26.3317 6.29977 26.2763 6.24235 26.2114 6.19734C23.4439 4.25798 20.0815 3.35602 16.715 3.64994C13.3484 3.94385 10.1932 5.41485 7.80363 7.80445C5.41408 10.194 3.94312 13.3494 3.6492 16.716C3.35529 20.0826 4.25723 23.445 6.19655 26.2126C6.24157 26.2775 6.29898 26.3329 6.36549 26.3755C6.432 26.4181 6.50628 26.4472 6.58407 26.461C6.66185 26.4748 6.7416 26.473 6.81871 26.4559C6.89582 26.4387 6.96877 26.4065 7.03336 26.361C7.09796 26.3155 7.15291 26.2577 7.19507 26.1909C7.23722 26.1241 7.26573 26.0496 7.27897 25.9717C7.29221 25.8938 7.28991 25.8141 7.27219 25.7371C7.25448 25.6601 7.22171 25.5874 7.17577 25.5231C5.39164 22.989 4.56119 19.9055 4.8313 16.8182C5.10141 13.7308 6.45468 10.8384 8.65175 8.65258Z" fill="#FF6565"/>
<path d="M28.9112 9.58549C28.8465 9.63101 28.7915 9.68887 28.7493 9.75573C28.7071 9.8226 28.6786 9.89716 28.6653 9.9751C28.652 10.0531 28.6543 10.1329 28.672 10.2099C28.6897 10.287 28.7225 10.3598 28.7684 10.4241C30.5412 12.9609 31.3642 16.0409 31.093 19.1238C30.8219 22.2067 29.4739 25.0958 27.2856 27.2842C25.0972 29.4725 22.2083 30.8205 19.1254 31.0917C16.0425 31.3628 12.9626 30.5398 10.4259 28.7671C10.3617 28.7182 10.2884 28.6827 10.2102 28.6628C10.132 28.6429 10.0506 28.639 9.97093 28.6514C9.89122 28.6637 9.81481 28.6919 9.74628 28.7345C9.67775 28.777 9.6185 28.8329 9.57209 28.8989C9.52568 28.9648 9.49305 29.0395 9.47617 29.1184C9.45929 29.1973 9.45849 29.2787 9.47384 29.3579C9.48918 29.4371 9.52034 29.5124 9.56546 29.5792C9.61058 29.6461 9.66872 29.7032 9.73641 29.747C12.5042 31.6824 15.8652 32.581 19.2296 32.2853C22.5939 31.9896 25.7466 30.5184 28.1344 28.1299C30.5222 25.7414 31.9924 22.5882 32.2872 19.2237C32.5819 15.8592 31.6823 12.4984 29.7462 9.73109C29.6544 9.60153 29.5148 9.51373 29.3582 9.48697C29.2017 9.4602 29.0409 9.49666 28.9112 9.58834V9.58549Z" fill="#FF6565"/>
<path d="M17.5524 27.5502C17.6873 27.5566 17.8222 27.5595 17.9578 27.5595C19.5683 27.557 21.1524 27.1506 22.5653 26.3776C23.9781 25.6045 25.1745 24.4894 26.0449 23.1343C26.1363 22.9915 26.1968 22.831 26.2224 22.6633C26.2479 22.4956 26.2381 22.3244 26.1934 22.1608C26.1483 21.9998 26.07 21.85 25.9635 21.721C25.8571 21.5921 25.7248 21.4869 25.5753 21.4121L23.4184 20.3336C23.1627 20.2062 22.8698 20.1743 22.5926 20.2438C22.3154 20.3133 22.0722 20.4796 21.9068 20.7126C21.4383 21.386 20.8048 21.9278 20.0669 22.2863C19.3291 22.6447 18.5116 22.8078 17.6927 22.7598C16.8738 22.7119 16.081 22.4546 15.39 22.0125C14.699 21.5705 14.133 20.9584 13.7463 20.235C13.3595 19.5116 13.1649 18.7011 13.181 17.8809C13.1972 17.0608 13.4236 16.2585 13.8385 15.5509C14.2535 14.8433 14.8431 14.254 15.551 13.8395C16.2588 13.425 17.0613 13.1991 17.8814 13.1835C18.597 13.1659 19.3072 13.3109 19.9586 13.6076C20.61 13.9043 21.1856 14.345 21.642 14.8964C21.8137 15.0999 22.0492 15.2393 22.3103 15.2918C22.5713 15.3442 22.8424 15.3068 23.0794 15.1855L25.2655 14.0935C25.4222 14.0148 25.5598 13.9029 25.6687 13.7655C25.7776 13.6281 25.8551 13.4685 25.8959 13.298C25.9367 13.1275 25.9397 12.9502 25.9048 12.7784C25.8699 12.6066 25.7979 12.4445 25.6938 12.3034C24.7349 10.9978 23.4607 9.95648 21.9903 9.27686C20.5198 8.59725 18.9011 8.30147 17.2853 8.41718C15.6696 8.53289 14.1095 9.0563 12.7509 9.93852C11.3923 10.8207 10.2795 12.033 9.51643 13.4619C8.7534 14.8909 8.36504 16.49 8.38765 18.1097C8.41026 19.7295 8.84309 21.3171 9.64571 22.7242C10.4483 24.1314 11.5945 25.3121 12.9772 26.156C14.3599 27 15.934 27.4796 17.5524 27.5502ZM11.904 12.1842C12.6841 11.3597 13.6249 10.7037 14.6683 10.2568C15.7116 9.80983 16.8355 9.58139 17.9706 9.58553C19.2883 9.58841 20.5868 9.90084 21.7616 10.4977C22.9363 11.0945 23.9544 11.959 24.7338 13.0214L22.562 14.132C21.9899 13.4436 21.27 12.8931 20.4558 12.5213C19.6416 12.1495 18.7541 11.9659 17.8593 11.9844C16.3219 12.0273 14.8586 12.654 13.7667 13.7372C12.6748 14.8203 12.0364 16.2786 11.9811 17.8156C11.9478 19.1035 12.3305 20.3678 13.0724 21.421C13.8144 22.4742 14.8761 23.2601 16.1 23.6623C17.3239 24.0644 18.6449 24.0613 19.8669 23.6534C21.0889 23.2455 22.1469 22.4545 22.8839 21.3978L25.0407 22.4763V22.4877C24.4112 23.4736 23.5824 24.317 22.6075 24.9636C21.6327 25.6102 20.5334 26.0457 19.3802 26.2421C18.227 26.4386 17.0455 26.3916 15.9116 26.1042C14.7777 25.8169 13.7164 25.2955 12.796 24.5736C11.8755 23.8516 11.1163 22.9451 10.567 21.9123C10.0177 20.8795 9.69057 19.7432 9.60657 18.5764C9.52257 17.4096 9.68357 16.2382 10.0792 15.1373C10.4749 14.0365 11.0965 13.0306 11.904 12.1842Z" fill="white"/>
</g>
<defs>
<clipPath id="clip0_416_35365">
<rect width="36" height="36" fill="white"/>
</clipPath>
</defs>
</svg>
