<svg width="42" height="42" viewBox="0 0 42 42" fill="none" xmlns="http://www.w3.org/2000/svg">
<g clip-path="url(#clip0_416_35372)">
<circle cx="14.5" cy="17.5" r="1.5" fill="white"/>
<circle cx="2.5" cy="18.5" r="1.5" fill="white"/>
<circle cx="11" cy="5" r="2" fill="white"/>
<circle cx="33" cy="5" r="2" fill="white"/>
<circle cx="37" cy="9" r="2" fill="white"/>
<circle cx="32" cy="22" r="2" fill="white"/>
<circle cx="22" cy="9" r="2" fill="white"/>
<circle cx="33" cy="37" r="2" fill="white"/>
<circle cx="11" cy="37" r="2" fill="white"/>
<path d="M40.3732 28.9799C40.3856 28.9548 40.3965 28.9292 40.4052 28.903C42.8936 23.1597 42.4489 16.1187 39.217 10.7371C40.9424 8.67445 38.7012 5.72062 36.2503 6.86351C35.8196 6.42338 35.3674 6.00154 34.8988 5.60269C35.8186 3.10221 32.7487 1.05098 30.8368 2.9192C25.2799 0.113181 18.3683 0.148717 12.842 3.01415C10.8761 0.930834 7.57456 3.16459 8.7648 5.77848C8.08314 6.37455 7.43791 7.01846 6.843 7.69939C6.32933 8.28733 7.25991 9.09316 7.77005 8.50932C8.32352 7.87592 8.9232 7.27673 9.5566 6.72145C10.7815 7.60493 12.5575 7.15486 13.2295 5.8063C15.4471 6.44463 17.5648 7.36077 19.5382 8.53657C19.373 9.13231 19.4404 9.79764 19.7239 10.3476C18.0997 11.7506 16.6371 13.3376 15.367 15.0769C14.1945 14.7226 12.9021 15.3156 12.3922 16.426C9.80642 16.4399 7.21263 16.718 4.66603 17.2563C4.44117 16.8373 4.10025 16.49 3.68695 16.2575C4.16541 14.3916 4.92324 12.6167 5.94401 10.9756C6.35075 10.3215 5.32406 9.64155 4.8987 10.3253C3.81342 12.0701 3.00734 13.957 2.49753 15.9404C-0.451209 15.9905 -0.946249 20.0698 1.86092 20.8545C1.81956 26.6603 4.32972 32.3048 8.68249 36.1499C7.77448 38.6027 10.7223 40.6258 12.6677 38.8958C18.345 41.9147 25.5202 41.9151 31.1979 38.8968C33.1765 40.8537 36.3455 38.6675 35.2311 36.1093C37.4744 34.1157 39.2171 31.6771 40.3732 28.9799ZM39.5977 27.6032C37.8939 25.9105 36.0293 24.3749 34.0385 23.0269C34.3212 22.1413 34.0755 21.1449 33.4153 20.4911C35.0893 17.7078 36.4035 14.7233 37.3286 11.6055C37.6368 11.6066 37.9332 11.5497 38.2062 11.4468C41.0408 16.2341 41.5592 22.4065 39.5977 27.6032ZM11.2736 34.5614C10.7555 29.4875 11.6645 24.4255 13.9143 19.8511C15.3119 20.2872 16.8226 19.3681 17.094 17.9335C21.3382 18.4567 25.4258 19.7027 29.2618 21.6432C29.0774 22.3603 29.2301 23.1511 29.6696 23.7476C25.3456 29.2257 19.638 33.3477 13.1056 35.7102C12.7098 35.0835 12.0441 34.645 11.2736 34.5614ZM30.4143 22.2669C30.4143 21.5694 30.9776 21.002 31.67 21.002C33.3358 21.0714 33.3353 23.4628 31.67 23.5319C30.9776 23.5319 30.4143 22.9645 30.4143 22.2669ZM38.5897 9.10966C38.5897 9.80716 38.0264 10.3746 37.334 10.3746C35.6681 10.3052 35.6685 7.91383 37.334 7.84473C38.0264 7.84473 38.5897 8.41216 38.5897 9.10966ZM35.3097 7.66262C34.4589 8.85795 34.8538 10.5859 36.1364 11.2964C35.2402 14.3037 33.9698 17.1825 32.3536 19.8677C32.0158 19.7706 31.6407 19.7464 31.2933 19.7996C29.604 16.1923 27.1459 12.9431 24.1432 10.3478C24.4269 9.79748 24.4945 9.13329 24.3291 8.53674C26.2297 7.40435 28.2656 6.51193 30.3946 5.87754C31.1022 7.24366 33.0003 7.62938 34.1788 6.60672C34.5693 6.94271 34.9474 7.29569 35.3097 7.66262ZM20.6778 9.20494C20.6778 8.50744 21.2412 7.94001 21.9336 7.94001C23.5995 8.00936 23.599 10.4007 21.9336 10.4698C21.2412 10.4698 20.6778 9.90236 20.6778 9.20494ZM32.5834 3.42901C33.2759 3.42901 33.8392 3.99644 33.8392 4.69394C33.7701 6.372 31.3965 6.37159 31.3277 4.69394C31.3277 3.99644 31.891 3.42901 32.5834 3.42901ZM11.0042 5.95879C10.3118 5.95879 9.74848 5.39136 9.74848 4.69386C9.81758 3.01571 12.1912 3.01629 12.26 4.69386C12.26 5.39136 11.6966 5.95879 11.0042 5.95879ZM13.4887 4.59948C13.4823 4.42861 13.4588 4.26226 13.4198 4.10173C18.5723 1.4372 25.0092 1.39075 30.2015 3.97781C30.1347 4.20095 30.0982 4.4369 30.097 4.68122C27.8577 5.34368 25.7164 6.27943 23.7174 7.46836C22.7565 6.47443 21.1111 6.4741 20.1499 7.46828C18.0667 6.2292 15.8306 5.26604 13.4887 4.59948ZM20.5388 11.2702C21.3712 11.8383 22.4958 11.8384 23.3282 11.2703C26.195 13.7456 28.5435 16.8441 30.1612 20.2848C30.0515 20.3691 29.9491 20.4624 29.8549 20.5634C25.8106 18.5121 21.4948 17.2079 17.0118 16.6831C16.8908 16.3168 16.6876 15.9879 16.4238 15.7186C17.6269 14.0842 19.0077 12.5914 20.5388 11.2702ZM14.6514 16.2021C15.3438 16.2021 15.9071 16.7696 15.9071 17.4671C15.838 19.1452 13.4644 19.1447 13.3955 17.4671C13.3956 16.7696 13.9589 16.2021 14.6514 16.2021ZM1.2193 18.4359C1.2193 17.7384 1.78262 17.171 2.47504 17.171C4.14088 17.2403 4.14038 19.6316 2.47504 19.7007C1.78271 19.7008 1.2193 19.1334 1.2193 18.4359ZM3.09187 20.854C3.09187 20.854 4.96148 20.4463 4.96148 18.4521C4.96148 18.4521 9.7589 17.6853 12.1726 17.6584C12.2179 18.2547 12.4726 18.7928 12.8632 19.1989C10.4645 24.0246 9.49694 29.3749 10.0539 34.7363C9.81406 34.8362 9.59329 34.9729 9.39813 35.139C5.38241 31.5416 3.09187 25.5141 3.09187 20.854ZM11.0042 38.3072C10.3118 38.3072 9.74848 37.7398 9.74848 37.0423C9.74848 36.3448 10.3118 35.7774 11.0042 35.7774C11.6874 35.7774 12.26 36.3691 12.26 37.0423C12.26 37.7398 11.6966 38.3072 11.0042 38.3072ZM21.9336 39.9385C18.9462 39.9385 15.992 39.223 13.3517 37.8647C13.4589 37.5575 13.5062 37.2076 13.4853 36.8816C20.2427 34.4459 26.1477 30.1892 30.6209 24.5292C30.9884 24.7015 31.3962 24.7806 31.8014 24.7594C32.0748 25.7743 32.2909 26.8098 32.4441 27.8452C32.5613 28.6378 33.7795 28.4607 33.6619 27.6651C33.4993 26.5657 33.2691 25.4662 32.9769 24.3892C33.124 24.2977 33.2607 24.1909 33.3853 24.0715C35.4393 25.4659 37.3543 27.0667 39.0892 28.8383C38.0133 31.2167 36.4473 33.3703 34.4577 35.1498C34.261 35.0021 34.0416 34.8832 33.8062 34.7987C33.9271 33.6544 33.9798 32.4991 33.9621 31.3563C33.9496 30.5522 32.7187 30.5711 32.7312 31.3754C32.7483 32.4738 32.6974 33.5844 32.5806 34.6844C31.1288 34.9152 30.1794 36.4206 30.5794 37.8313C27.9225 39.2112 24.9454 39.9385 21.9336 39.9385ZM32.971 38.4143C32.2786 38.4143 31.7153 37.8468 31.7153 37.1493C31.7844 35.4712 34.158 35.4718 34.2269 37.1493C34.2269 37.8468 33.6635 38.4143 32.971 38.4143Z" fill="#FF6565"/>
</g>
<defs>
<clipPath id="clip0_416_35372">
<rect width="42" height="42" fill="white"/>
</clipPath>
</defs>
</svg>
