<svg width="53" height="53" viewBox="0 0 53 53" fill="none" xmlns="http://www.w3.org/2000/svg">
<path d="M49.6016 7.80688H3.39886C3.24544 7.80688 3.0983 7.86782 2.9898 7.9763C2.88131 8.08478 2.82034 8.23191 2.82031 8.38533V35.3403C2.82034 35.4937 2.88131 35.6408 2.9898 35.7493C3.0983 35.8578 3.24544 35.9187 3.39886 35.9187H30.5407C30.6927 35.9167 30.8379 35.8549 30.9447 35.7466C31.0516 35.6383 31.1115 35.4923 31.1115 35.3402C31.1115 35.1881 31.0516 35.0422 30.9447 34.9339C30.8379 34.8256 30.6927 34.7638 30.5407 34.7617H3.97731V8.96378H49.0232V34.7616H46.8376C46.761 34.7606 46.6849 34.7748 46.6139 34.8034C46.5428 34.832 46.4781 34.8745 46.4235 34.9283C46.369 34.9821 46.3257 35.0462 46.2961 35.1169C46.2666 35.1876 46.2513 35.2635 46.2513 35.3401C46.2513 35.4168 46.2666 35.4926 46.2961 35.5633C46.3257 35.634 46.369 35.6981 46.4235 35.752C46.4781 35.8058 46.5428 35.8482 46.6139 35.8768C46.6849 35.9054 46.761 35.9197 46.8376 35.9186H49.6015C49.7549 35.9186 49.9021 35.8577 50.0106 35.7492C50.119 35.6407 50.18 35.4936 50.18 35.3402V8.38533C50.18 8.23193 50.1191 8.08481 50.0106 7.97634C49.9021 7.86786 49.755 7.80691 49.6016 7.80688Z" fill="#FF6565"/>
<path d="M32.5194 33.5038C32.621 33.7508 32.6349 34.1353 32.6483 34.5079C32.6722 35.1728 32.6993 35.9261 33.2161 36.4461C33.6641 36.8963 34.2893 36.9797 34.8807 37.0117V44.6152C34.8807 44.717 34.9075 44.817 34.9586 44.9051C35.0096 44.9932 35.083 45.0663 35.1713 45.117C35.2596 45.1676 35.3597 45.1941 35.4615 45.1937C35.5633 45.1932 35.6632 45.166 35.7511 45.1146L38.7475 43.3631L41.744 45.1146C41.8319 45.1659 41.9317 45.1932 42.0335 45.1936C42.1353 45.194 42.2354 45.1676 42.3237 45.1169C42.412 45.0662 42.4854 44.9932 42.5364 44.9051C42.5875 44.817 42.6143 44.717 42.6143 44.6152V38.7498C42.6143 38.5964 42.5534 38.4492 42.4449 38.3408C42.3364 38.2323 42.1893 38.1713 42.0359 38.1713C41.8825 38.1713 41.7353 38.2323 41.6269 38.3408C41.5184 38.4492 41.4574 38.5964 41.4574 38.7498V43.6064L39.0394 42.1929C38.9508 42.1412 38.8501 42.1139 38.7475 42.1139C38.6449 42.1139 38.5442 42.1412 38.4556 42.1929L36.0377 43.6063V36.5132C36.0377 36.5074 36.0361 36.5021 36.036 36.4964L36.0368 36.4908C36.0453 36.3376 35.9927 36.1873 35.8904 36.0729C35.7881 35.9586 35.6446 35.8895 35.4914 35.881C35.3945 35.8756 35.2968 35.8716 35.1991 35.8676C34.7244 35.8482 34.2337 35.8282 34.0364 35.6295C33.8391 35.4309 33.8215 34.9404 33.8044 34.4658C33.7873 33.9912 33.7698 33.5018 33.5893 33.0633C33.4159 32.6417 33.0904 32.2927 32.7757 31.9556C32.4444 31.5999 32.1012 31.232 32.1019 30.926C32.1026 30.62 32.4474 30.2538 32.7809 29.8997C33.0973 29.5638 33.4245 29.2165 33.6002 28.7959C33.7829 28.3583 33.803 27.8683 33.8223 27.3944C33.8417 26.9205 33.8619 26.429 34.0604 26.2317C34.259 26.0344 34.7496 26.0167 35.2245 25.9998C35.6993 25.9828 36.1882 25.9652 36.627 25.7846C37.0483 25.6112 37.3973 25.2857 37.7346 24.9709C38.09 24.6397 38.4575 24.2971 38.7631 24.2971H38.7642C39.0703 24.2979 39.4363 24.6428 39.7903 24.976C40.1263 25.2925 40.4735 25.6198 40.8943 25.7954C41.332 25.9782 41.8219 25.9982 42.2958 26.0176C42.7697 26.0369 43.2612 26.0571 43.4584 26.2557C43.6556 26.4542 43.6733 26.9449 43.6905 27.4197C43.7077 27.8945 43.7251 28.3835 43.9057 28.8222C44.0791 29.2435 44.4045 29.5925 44.7193 29.9298C45.0506 30.2856 45.3938 30.6535 45.3931 30.9594C45.3924 31.2653 45.0475 31.6315 44.714 31.9857C44.3977 32.3216 44.0705 32.6689 43.8948 33.0897C43.712 33.5273 43.692 34.0171 43.6727 34.491C43.6533 34.9648 43.6329 35.4563 43.4346 35.6538C43.2363 35.8514 42.7454 35.8686 42.2707 35.8857C41.7959 35.9028 41.3066 35.9203 40.868 36.1009C40.4467 36.2743 40.0977 36.5998 39.7604 36.9146C39.4051 37.2458 39.0378 37.5883 38.732 37.5883C38.4579 37.5876 38.1307 37.306 37.8463 37.042C37.791 36.9885 37.7255 36.9467 37.6538 36.9188C37.5821 36.891 37.5055 36.8777 37.4286 36.8798C37.3517 36.8819 37.276 36.8993 37.2059 36.9311C37.1358 36.9628 37.0727 37.0082 37.0204 37.0646C36.968 37.121 36.9275 37.1873 36.9011 37.2595C36.8747 37.3318 36.863 37.4086 36.8666 37.4855C36.8703 37.5623 36.8892 37.6377 36.9223 37.7071C36.9555 37.7766 37.0021 37.8387 37.0596 37.8899C37.5047 38.3027 38.0366 38.7435 38.7285 38.7453H38.7326C39.4937 38.7453 40.0549 38.2224 40.5499 37.7608C40.8117 37.5166 41.0826 37.2639 41.3093 37.1708C41.5562 37.0691 41.9408 37.0552 42.3129 37.042C42.978 37.0181 43.7318 36.991 44.2514 36.4739C44.7711 35.9568 44.802 35.2032 44.8294 34.5382C44.8446 34.1662 44.8604 33.7817 44.9632 33.5354C45.0577 33.309 45.3115 33.0396 45.5571 32.7788C46.0219 32.285 46.5489 31.7256 46.5508 30.9623C46.5528 30.199 46.0287 29.6367 45.5663 29.1404C45.3221 28.8784 45.0694 28.6075 44.9762 28.3809C44.8745 28.1341 44.8607 27.7495 44.8474 27.3774C44.8236 26.7123 44.7964 25.9586 44.2794 25.4388C43.7623 24.9191 43.0087 24.8883 42.3436 24.861C41.9716 24.8458 41.587 24.8299 41.3408 24.7271C41.1144 24.6326 40.8447 24.3787 40.584 24.1333C40.0904 23.6683 39.5309 23.1414 38.7675 23.1395H38.7634C38.0022 23.1395 37.4412 23.6625 36.9462 24.1241C36.6842 24.3683 36.4133 24.6209 36.1866 24.7141C35.9398 24.8159 35.5552 24.8295 35.1832 24.843C34.5182 24.8668 33.7645 24.8938 33.2445 25.411C32.7245 25.9281 32.694 26.6816 32.6668 27.3467C32.6516 27.7187 32.6357 28.1033 32.5329 28.3496C32.4384 28.5759 32.1846 28.8455 31.9391 29.1062C31.4743 29.5998 30.9472 30.1592 30.9453 30.9227C30.9435 31.6861 31.4675 32.2482 31.9299 32.7445C32.1736 33.0062 32.426 33.2769 32.5194 33.5038Z" fill="#FF6565"/>
<path d="M11.2759 15.7596H32.1835C32.2601 15.7606 32.3361 15.7464 32.4072 15.7178C32.4783 15.6892 32.543 15.6467 32.5975 15.5929C32.6521 15.5391 32.6954 15.475 32.725 15.4043C32.7545 15.3336 32.7697 15.2577 32.7697 15.1811C32.7697 15.1045 32.7545 15.0286 32.725 14.9579C32.6954 14.8872 32.6521 14.8231 32.5975 14.7693C32.543 14.7154 32.4783 14.673 32.4072 14.6444C32.3361 14.6158 32.2601 14.6016 32.1835 14.6026H11.2759C11.1238 14.6046 10.9786 14.6665 10.8718 14.7747C10.765 14.883 10.7051 15.029 10.7051 15.1811C10.7051 15.3332 10.765 15.4792 10.8718 15.5874C10.9786 15.6957 11.1238 15.7575 11.2759 15.7596Z" fill="white"/>
<path d="M41.7245 15.7596C41.8011 15.7606 41.8771 15.7464 41.9482 15.7178C42.0193 15.6892 42.084 15.6467 42.1386 15.5929C42.1931 15.5391 42.2364 15.475 42.266 15.4043C42.2955 15.3336 42.3107 15.2577 42.3107 15.1811C42.3107 15.1045 42.2955 15.0286 42.266 14.9579C42.2364 14.8872 42.1931 14.8231 42.1386 14.7693C42.084 14.7154 42.0193 14.673 41.9482 14.6444C41.8771 14.6158 41.8011 14.6016 41.7245 14.6026H35.933C35.8563 14.6016 35.7803 14.6158 35.7092 14.6444C35.6381 14.673 35.5734 14.7154 35.5189 14.7693C35.4643 14.8231 35.421 14.8872 35.3915 14.9579C35.3619 15.0286 35.3467 15.1045 35.3467 15.1811C35.3467 15.2577 35.3619 15.3336 35.3915 15.4043C35.421 15.475 35.4643 15.5391 35.5189 15.5929C35.5734 15.6467 35.6381 15.6892 35.7092 15.7178C35.7803 15.7464 35.8563 15.7606 35.933 15.7596H41.7245Z" fill="white"/>
<path d="M42.3035 20.3228C42.3035 20.2469 42.2885 20.1716 42.2594 20.1014C42.2304 20.0313 42.1877 19.9675 42.134 19.9138C42.0803 19.8601 42.0165 19.8174 41.9463 19.7884C41.8761 19.7593 41.8009 19.7444 41.7249 19.7444H11.2757C11.1223 19.7444 10.9752 19.8053 10.8667 19.9138C10.7582 20.0223 10.6973 20.1694 10.6973 20.3228C10.6973 20.4762 10.7582 20.6234 10.8667 20.7319C10.9752 20.8403 11.1223 20.9013 11.2757 20.9013H41.7249C41.8009 20.9013 41.8761 20.8863 41.9463 20.8573C42.0165 20.8282 42.0803 20.7856 42.134 20.7319C42.1877 20.6782 42.2304 20.6144 42.2594 20.5442C42.2885 20.474 42.3035 20.3988 42.3035 20.3228Z" fill="white"/>
<path d="M11.2759 24.9908C11.1238 24.9928 10.9786 25.0547 10.8718 25.1629C10.765 25.2712 10.7051 25.4172 10.7051 25.5693C10.7051 25.7214 10.765 25.8673 10.8718 25.9756C10.9786 26.0839 11.1238 26.1457 11.2759 26.1478H27.212C27.2886 26.1488 27.3647 26.1346 27.4358 26.106C27.5069 26.0774 27.5716 26.0349 27.6261 25.9811C27.6806 25.9273 27.724 25.8631 27.7535 25.7925C27.7831 25.7218 27.7983 25.6459 27.7983 25.5693C27.7983 25.4926 27.7831 25.4168 27.7535 25.3461C27.724 25.2754 27.6806 25.2113 27.6261 25.1574C27.5716 25.1036 27.5069 25.0612 27.4358 25.0326C27.3647 25.004 27.2886 24.9897 27.212 24.9908H11.2759Z" fill="white"/>
<circle cx="39" cy="31" r="3" fill="white"/>
</svg>
