<svg width="52" height="52" viewBox="0 0 52 52" fill="none" xmlns="http://www.w3.org/2000/svg">
<g clip-path="url(#clip0_402_263)">
<path d="M1.08333 9.75004H50.9167C51.204 9.75004 51.4795 9.6359 51.6827 9.43274C51.8859 9.22958 52 8.95403 52 8.66671C52 8.37939 51.8859 8.10384 51.6827 7.90068C51.4795 7.69751 51.204 7.58337 50.9167 7.58337H1.08333C0.796016 7.58337 0.520465 7.69751 0.317301 7.90068C0.114137 8.10384 0 8.37939 0 8.66671C0 8.95403 0.114137 9.22958 0.317301 9.43274C0.520465 9.6359 0.796016 9.75004 1.08333 9.75004Z" fill="#692583"/>
<path d="M50.9167 42.25H1.08333C0.796016 42.25 0.520465 42.3641 0.317301 42.5673C0.114137 42.7705 0 43.046 0 43.3333C0 43.6207 0.114137 43.8962 0.317301 44.0994C0.520465 44.3025 0.796016 44.4167 1.08333 44.4167H50.9167C51.204 44.4167 51.4795 44.3025 51.6827 44.0994C51.8859 43.8962 52 43.6207 52 43.3333C52 43.046 51.8859 42.7705 51.6827 42.5673C51.4795 42.3641 51.204 42.25 50.9167 42.25Z" fill="#692583"/>
<path d="M50.9167 16.25H1.08333C0.796016 16.25 0.520465 16.3641 0.317301 16.5673C0.114137 16.7705 0 17.046 0 17.3333C0 17.6207 0.114137 17.8962 0.317301 18.0994C0.520465 18.3025 0.796016 18.4167 1.08333 18.4167H50.9167C51.204 18.4167 51.4795 18.3025 51.6827 18.0994C51.8859 17.8962 52 17.6207 52 17.3333C52 17.046 51.8859 16.7705 51.6827 16.5673C51.4795 16.3641 51.204 16.25 50.9167 16.25Z" fill="#692583"/>
<path d="M50.9167 22.7501C48.3925 22.7501 48.1 20.5834 44.6875 20.5834C43.3344 20.5631 42.0166 21.0152 40.9608 21.8618C40.262 22.4516 39.3726 22.7673 38.4583 22.7501C35.9342 22.7501 35.6417 20.5834 32.24 20.5834C30.8839 20.5651 29.5633 21.0168 28.5025 21.8618C27.8042 22.4524 26.9145 22.7683 26 22.7501C23.4758 22.7501 23.1833 20.5834 19.7708 20.5834C18.4148 20.5651 17.0942 21.0168 16.0333 21.8618C15.3388 22.4517 14.4527 22.7676 13.5417 22.7501C11.0067 22.7501 10.725 20.5834 7.30167 20.5834C3.87833 20.5834 3.61833 22.7501 1.08333 22.7501C0.796016 22.7501 0.520465 22.8642 0.317301 23.0674C0.114137 23.2706 0 23.5461 0 23.8334C0 24.1207 0.114137 24.3963 0.317301 24.5995C0.520465 24.8026 0.796016 24.9168 1.08333 24.9168C4.49583 24.9168 4.78833 22.7501 7.3125 22.7501C9.83667 22.7501 10.1292 24.9168 13.5525 24.9168C14.9234 24.9452 16.261 24.4929 17.3333 23.6384C18.0288 23.0502 18.9142 22.7345 19.825 22.7501C22.3492 22.7501 22.6417 24.9168 26.0542 24.9168C27.4073 24.9371 28.7251 24.485 29.7808 23.6384C30.4683 23.0584 31.3406 22.7434 32.24 22.7501C34.7642 22.7501 35.0567 24.9168 38.4583 24.9168C39.8336 24.9524 41.177 24.4995 42.25 23.6384C42.9455 23.0502 43.8309 22.7345 44.7417 22.7501C47.2658 22.7501 47.5583 24.9168 50.9708 24.9168C51.2582 24.9168 51.5337 24.8026 51.7369 24.5995C51.94 24.3963 52.0542 24.1207 52.0542 23.8334C52.0542 23.5461 51.94 23.2706 51.7369 23.0674C51.5337 22.8642 51.2582 22.7501 50.9708 22.7501H50.9167Z" fill="#692583"/>
<path d="M1.94989 11.9167C1.70151 11.9674 1.47876 12.1035 1.3204 12.3014C1.16204 12.4994 1.07812 12.7466 1.08323 13C1.08323 13.2874 1.19736 13.5629 1.40053 13.7661C1.60369 13.9692 1.87924 14.0834 2.16656 14.0834C2.45388 14.0834 2.72943 13.9692 2.93259 13.7661C3.13576 13.5629 3.24989 13.2874 3.24989 13C3.25319 12.8376 3.21988 12.6764 3.15244 12.5286C3.085 12.3807 2.98516 12.2499 2.86032 12.1459C2.73547 12.0418 2.58882 11.9672 2.43122 11.9275C2.27362 11.8879 2.10912 11.8842 1.94989 11.9167Z" fill="#692583"/>
<path d="M6.28344 11.9167C6.08353 11.9576 5.89922 12.054 5.75173 12.195C5.60424 12.336 5.49957 12.5158 5.44976 12.7137C5.39996 12.9115 5.40704 13.1195 5.47021 13.3135C5.53337 13.5075 5.65004 13.6797 5.80679 13.8103C5.96354 13.941 6.15399 14.0247 6.35622 14.0518C6.55845 14.079 6.76423 14.0484 6.94987 13.9638C7.13552 13.8791 7.29347 13.7437 7.40556 13.5732C7.51765 13.4027 7.57931 13.204 7.58344 13C7.58673 12.8376 7.55342 12.6764 7.48598 12.5286C7.41854 12.3807 7.3187 12.2499 7.19386 12.1459C7.06901 12.0418 6.92236 11.9672 6.76476 11.9275C6.60716 11.8879 6.44266 11.8842 6.28344 11.9167Z" fill="#692583"/>
<path d="M10.6166 11.9167C10.3683 11.9674 10.1455 12.1035 9.98715 12.3014C9.82879 12.4994 9.74487 12.7466 9.74998 13C9.74998 13.2874 9.86411 13.5629 10.0673 13.7661C10.2704 13.9692 10.546 14.0834 10.8333 14.0834C11.1206 14.0834 11.3962 13.9692 11.5993 13.7661C11.8025 13.5629 11.9166 13.2874 11.9166 13C11.9199 12.8376 11.8866 12.6764 11.8192 12.5286C11.7518 12.3807 11.6519 12.2499 11.5271 12.1459C11.4022 12.0418 11.2556 11.9672 11.098 11.9275C10.9404 11.8879 10.7759 11.8842 10.6166 11.9167Z" fill="#692583"/>
<path d="M15.5784 12.0034C15.3469 11.9072 15.0891 11.8943 14.8492 11.967C14.6092 12.0396 14.4018 12.1932 14.2624 12.4016C14.1231 12.61 14.0603 12.8603 14.0848 13.1098C14.1093 13.3593 14.2196 13.5926 14.3969 13.7699C14.5742 13.9472 14.8075 14.0575 15.057 14.082C15.3065 14.1065 15.5568 14.0437 15.7652 13.9043C15.9736 13.765 16.1272 13.5576 16.1998 13.3176C16.2724 13.0777 16.2596 12.8199 16.1634 12.5884C16.0535 12.3237 15.8431 12.1133 15.5784 12.0034Z" fill="#692583"/>
<path d="M19.7168 11.9167C19.4986 11.8723 19.2721 11.8961 19.068 11.9849C18.8639 12.0738 18.6921 12.2233 18.576 12.4133C18.4599 12.6032 18.4051 12.8243 18.4191 13.0465C18.4332 13.2687 18.5153 13.4811 18.6544 13.655C18.7935 13.8288 18.9827 13.9556 19.1964 14.0181C19.4101 14.0805 19.6378 14.0756 19.8486 14.0041C20.0594 13.9325 20.243 13.7977 20.3745 13.6181C20.506 13.4384 20.579 13.2226 20.5834 13.0001C20.5886 12.7466 20.5046 12.4994 20.3463 12.3015C20.1879 12.1035 19.9652 11.9674 19.7168 11.9167Z" fill="#692583"/>
<path d="M24.245 12.0033C24.0967 11.9402 23.9362 11.9109 23.7752 11.9177C23.6142 11.9245 23.4567 11.9671 23.3142 12.0424C23.1717 12.1178 23.0479 12.2239 22.9516 12.3532C22.8554 12.4825 22.7892 12.6316 22.7579 12.7898C22.7266 12.9479 22.731 13.111 22.7707 13.2672C22.8105 13.4233 22.8846 13.5687 22.9876 13.6927C23.0906 13.8166 23.22 13.916 23.3663 13.9836C23.5127 14.0511 23.6722 14.0852 23.8334 14.0833C24.082 14.0804 24.322 13.9921 24.5132 13.8331C24.7044 13.6742 24.8351 13.4543 24.8834 13.2104C24.9316 12.9665 24.8945 12.7134 24.7783 12.4936C24.6621 12.2739 24.4738 12.1007 24.245 12.0033Z" fill="#692583"/>
<path d="M28.5784 12.0034C28.3969 11.9289 28.1986 11.9052 28.0046 11.9347C27.8107 11.9641 27.6284 12.0457 27.4772 12.1707C27.326 12.2956 27.2115 12.4593 27.1461 12.6442C27.0806 12.8292 27.0666 13.0284 27.1055 13.2207C27.1445 13.4129 27.2349 13.591 27.3671 13.7359C27.4993 13.8808 27.6684 13.9871 27.8563 14.0434C28.0442 14.0997 28.2439 14.104 28.434 14.0557C28.6242 14.0074 28.7976 13.9084 28.9359 13.7692C29.0614 13.6428 29.1539 13.4874 29.2051 13.3167C29.2562 13.146 29.2645 12.9654 29.2291 12.7907C29.1938 12.6161 29.1159 12.4529 29.0024 12.3155C28.8889 12.1782 28.7432 12.071 28.5784 12.0034Z" fill="#692583"/>
<path d="M32.7057 11.9167C32.4875 11.8745 32.2616 11.9004 32.0587 11.991C31.8557 12.0815 31.6855 12.2323 31.5712 12.4229C31.4568 12.6134 31.4038 12.8346 31.4194 13.0563C31.435 13.2779 31.5184 13.4895 31.6583 13.6622C31.7981 13.8349 31.9878 13.9604 32.2014 14.0216C32.415 14.0829 32.6423 14.077 32.8525 14.0047C33.0626 13.9324 33.2455 13.7973 33.3762 13.6175C33.5069 13.4378 33.5792 13.2222 33.5832 13C33.5879 12.745 33.5024 12.4966 33.3419 12.2984C33.1814 12.1003 32.9561 11.9651 32.7057 11.9167Z" fill="#692583"/>
<path d="M36.6167 11.9167C36.4168 11.9576 36.2325 12.054 36.085 12.195C35.9375 12.336 35.8328 12.5158 35.783 12.7137C35.7332 12.9115 35.7403 13.1195 35.8035 13.3135C35.8666 13.5075 35.9833 13.6797 36.14 13.8103C36.2968 13.941 36.4872 14.0247 36.6895 14.0518C36.8917 14.079 37.0975 14.0484 37.2831 13.9638C37.4688 13.8791 37.6267 13.7437 37.7388 13.5732C37.8509 13.4027 37.9126 13.204 37.9167 13C37.92 12.8376 37.8867 12.6764 37.8192 12.5286C37.7518 12.3807 37.652 12.2499 37.5271 12.1459C37.4023 12.0418 37.2556 11.9672 37.098 11.9275C36.9404 11.8879 36.7759 11.8842 36.6167 11.9167Z" fill="#692583"/>
<path d="M41.5783 12.0033C41.43 11.9402 41.2695 11.9109 41.1085 11.9177C40.9474 11.9245 40.7899 11.9671 40.6475 12.0424C40.505 12.1178 40.3811 12.2239 40.2849 12.3532C40.1886 12.4825 40.1225 12.6316 40.0912 12.7898C40.0599 12.9479 40.0643 13.111 40.104 13.2672C40.1437 13.4233 40.2178 13.5687 40.3208 13.6927C40.4239 13.8166 40.5533 13.916 40.6996 13.9836C40.8459 14.0511 41.0055 14.0852 41.1666 14.0833C41.3818 14.0846 41.5925 14.0217 41.7718 13.9028C41.9511 13.7838 42.0909 13.6142 42.1734 13.4154C42.256 13.2167 42.2774 12.9979 42.2351 12.7869C42.1928 12.576 42.0886 12.3824 41.9358 12.2308C41.8328 12.1322 41.7113 12.0549 41.5783 12.0033Z" fill="#692583"/>
<path d="M45.9115 12.0033C45.7633 11.9402 45.6027 11.9109 45.4417 11.9177C45.2807 11.9245 45.1232 11.9671 44.9807 12.0424C44.8382 12.1178 44.7144 12.2239 44.6181 12.3532C44.5219 12.4825 44.4557 12.6316 44.4244 12.7898C44.3931 12.9479 44.3975 13.111 44.4372 13.2672C44.477 13.4233 44.5511 13.5687 44.6541 13.6927C44.7571 13.8166 44.8865 13.916 45.0328 13.9836C45.1792 14.0511 45.3387 14.0852 45.4999 14.0833C45.7485 14.0804 45.9885 13.9921 46.1797 13.8331C46.3709 13.6742 46.5016 13.4543 46.5499 13.2104C46.5981 12.9665 46.561 12.7134 46.4448 12.4936C46.3286 12.2739 46.1403 12.1007 45.9115 12.0033Z" fill="#692583"/>
<path d="M49.0642 12.2308C48.9135 12.3827 48.8113 12.5758 48.7702 12.7857C48.7291 12.9956 48.7511 13.2129 48.8333 13.4104C48.9156 13.6078 49.0544 13.7765 49.2324 13.8951C49.4103 14.0138 49.6194 14.0771 49.8333 14.0771C50.0472 14.0771 50.2563 14.0138 50.4343 13.8951C50.6122 13.7765 50.7511 13.6078 50.8333 13.4104C50.9156 13.2129 50.9376 12.9956 50.8965 12.7857C50.8554 12.5758 50.7531 12.3827 50.6025 12.2308C50.5018 12.1293 50.382 12.0487 50.25 11.9937C50.1179 11.9387 49.9763 11.9104 49.8333 11.9104C49.6903 11.9104 49.5487 11.9387 49.4167 11.9937C49.2847 12.0487 49.1649 12.1293 49.0642 12.2308Z" fill="#692583"/>
<path d="M6.49992 28.1667H2.16659C1.87927 28.1667 1.60372 28.2809 1.40055 28.484C1.19739 28.6872 1.08325 28.9628 1.08325 29.2501C1.08325 29.5374 1.19739 29.813 1.40055 30.0161C1.60372 30.2193 1.87927 30.3334 2.16659 30.3334H6.49992C6.78724 30.3334 7.06279 30.2193 7.26595 30.0161C7.46912 29.813 7.58325 29.5374 7.58325 29.2501C7.58325 28.9628 7.46912 28.6872 7.26595 28.484C7.06279 28.2809 6.78724 28.1667 6.49992 28.1667Z" fill="#692583"/>
<path d="M4.33333 36.8334C4.04602 36.8334 3.77047 36.9475 3.5673 37.1507C3.36414 37.3538 3.25 37.6294 3.25 37.9167C3.25 38.204 3.36414 38.4796 3.5673 38.6827C3.77047 38.8859 4.04602 39 4.33333 39H8.66667C8.95398 39 9.22953 38.8859 9.4327 38.6827C9.63586 38.4796 9.75 38.204 9.75 37.9167C9.75 37.6294 9.63586 37.3538 9.4327 37.1507C9.22953 36.9475 8.95398 36.8334 8.66667 36.8334H4.33333Z" fill="#692583"/>
<path d="M8.66675 33.5833C8.66675 33.8707 8.78088 34.1462 8.98405 34.3494C9.18721 34.5525 9.46276 34.6667 9.75008 34.6667H14.0834C14.3707 34.6667 14.6463 34.5525 14.8494 34.3494C15.0526 34.1462 15.1667 33.8707 15.1667 33.5833C15.1667 33.296 15.0526 33.0205 14.8494 32.8173C14.6463 32.6141 14.3707 32.5 14.0834 32.5H9.75008C9.46276 32.5 9.18721 32.6141 8.98405 32.8173C8.78088 33.0205 8.66675 33.296 8.66675 33.5833Z" fill="#692583"/>
<path d="M18.4167 28.1667H14.0833C13.796 28.1667 13.5205 28.2809 13.3173 28.484C13.1141 28.6872 13 28.9628 13 29.2501C13 29.5374 13.1141 29.813 13.3173 30.0161C13.5205 30.2193 13.796 30.3334 14.0833 30.3334H18.4167C18.704 30.3334 18.9795 30.2193 19.1827 30.0161C19.3859 29.813 19.5 29.5374 19.5 29.2501C19.5 28.9628 19.3859 28.6872 19.1827 28.484C18.9795 28.2809 18.704 28.1667 18.4167 28.1667Z" fill="#692583"/>
<path d="M16.2501 36.8334C15.9628 36.8334 15.6872 36.9475 15.484 37.1507C15.2809 37.3538 15.1667 37.6294 15.1667 37.9167C15.1667 38.204 15.2809 38.4796 15.484 38.6827C15.6872 38.8859 15.9628 39 16.2501 39H20.5834C20.8707 39 21.1463 38.8859 21.3494 38.6827C21.5526 38.4796 21.6667 38.204 21.6667 37.9167C21.6667 37.6294 21.5526 37.3538 21.3494 37.1507C21.1463 36.9475 20.8707 36.8334 20.5834 36.8334H16.2501Z" fill="#692583"/>
<path d="M20.5833 33.5833C20.5833 33.8707 20.6974 34.1462 20.9006 34.3494C21.1037 34.5525 21.3793 34.6667 21.6666 34.6667H25.9999C26.2872 34.6667 26.5628 34.5525 26.766 34.3494C26.9691 34.1462 27.0833 33.8707 27.0833 33.5833C27.0833 33.296 26.9691 33.0205 26.766 32.8173C26.5628 32.6141 26.2872 32.5 25.9999 32.5H21.6666C21.3793 32.5 21.1037 32.6141 20.9006 32.8173C20.6974 33.0205 20.5833 33.296 20.5833 33.5833Z" fill="#692583"/>
<path d="M30.3334 28.1667H26.0001C25.7128 28.1667 25.4372 28.2809 25.234 28.484C25.0309 28.6872 24.9167 28.9628 24.9167 29.2501C24.9167 29.5374 25.0309 29.813 25.234 30.0161C25.4372 30.2193 25.7128 30.3334 26.0001 30.3334H30.3334C30.6207 30.3334 30.8963 30.2193 31.0994 30.0161C31.3026 29.813 31.4167 29.5374 31.4167 29.2501C31.4167 28.9628 31.3026 28.6872 31.0994 28.484C30.8963 28.2809 30.6207 28.1667 30.3334 28.1667Z" fill="#692583"/>
<path d="M28.1666 36.8334C27.8793 36.8334 27.6037 36.9475 27.4006 37.1507C27.1974 37.3538 27.0833 37.6294 27.0833 37.9167C27.0833 38.204 27.1974 38.4796 27.4006 38.6827C27.6037 38.8859 27.8793 39 28.1666 39H32.4999C32.7872 39 33.0628 38.8859 33.266 38.6827C33.4691 38.4796 33.5833 38.204 33.5833 37.9167C33.5833 37.6294 33.4691 37.3538 33.266 37.1507C33.0628 36.9475 32.7872 36.8334 32.4999 36.8334H28.1666Z" fill="#692583"/>
<path d="M32.5 33.5833C32.5 33.8707 32.6141 34.1462 32.8173 34.3494C33.0205 34.5525 33.296 34.6667 33.5833 34.6667H37.9167C38.204 34.6667 38.4795 34.5525 38.6827 34.3494C38.8859 34.1462 39 33.8707 39 33.5833C39 33.296 38.8859 33.0205 38.6827 32.8173C38.4795 32.6141 38.204 32.5 37.9167 32.5H33.5833C33.296 32.5 33.0205 32.6141 32.8173 32.8173C32.6141 33.0205 32.5 33.296 32.5 33.5833Z" fill="#692583"/>
<path d="M42.2499 28.1667H37.9166C37.6293 28.1667 37.3537 28.2809 37.1506 28.484C36.9474 28.6872 36.8333 28.9628 36.8333 29.2501C36.8333 29.5374 36.9474 29.813 37.1506 30.0161C37.3537 30.2193 37.6293 30.3334 37.9166 30.3334H42.2499C42.5372 30.3334 42.8128 30.2193 43.016 30.0161C43.2191 29.813 43.3333 29.5374 43.3333 29.2501C43.3333 28.9628 43.2191 28.6872 43.016 28.484C42.8128 28.2809 42.5372 28.1667 42.2499 28.1667Z" fill="#692583"/>
<path d="M40.0833 36.8334C39.796 36.8334 39.5205 36.9475 39.3173 37.1507C39.1141 37.3538 39 37.6294 39 37.9167C39 38.204 39.1141 38.4796 39.3173 38.6827C39.5205 38.8859 39.796 39 40.0833 39H44.4167C44.704 39 44.9795 38.8859 45.1827 38.6827C45.3859 38.4796 45.5 38.204 45.5 37.9167C45.5 37.6294 45.3859 37.3538 45.1827 37.1507C44.9795 36.9475 44.704 36.8334 44.4167 36.8334H40.0833Z" fill="#692583"/>
<path d="M49.8334 34.6667C50.1207 34.6667 50.3963 34.5525 50.5994 34.3494C50.8026 34.1462 50.9167 33.8707 50.9167 33.5833C50.9167 33.296 50.8026 33.0205 50.5994 32.8173C50.3963 32.6141 50.1207 32.5 49.8334 32.5H45.5001C45.2128 32.5 44.9372 32.6141 44.734 32.8173C44.5309 33.0205 44.4167 33.296 44.4167 33.5833C44.4167 33.8707 44.5309 34.1462 44.734 34.3494C44.9372 34.5525 45.2128 34.6667 45.5001 34.6667H49.8334Z" fill="#692583"/>
</g>
<defs>
<clipPath id="clip0_402_263">
<rect width="52" height="52" fill="white"/>
</clipPath>
</defs>
</svg>
